<svg xmlns="http://www.w3.org/2000/svg" viewBox="0 0 126.32 119.3"><defs><style>.cls-1{fill:#ececec;}.cls-2{fill:#fff;}.cls-3{fill:#dcdcdc;}.cls-4{fill:#c8c8c8;}.cls-5{fill:#1a2e35;}.cls-13,.cls-14,.cls-15,.cls-16,.cls-6{fill:#ffc800;}.cls-7{fill:#2b454e;}.cls-8{fill:#a8a8a8;}.cls-9{fill:#375a64;}.cls-10{fill:#ed776a;}.cls-11{fill:#ff9cbf;}.cls-12{opacity:0.1;}.cls-13,.cls-18{opacity:0.8;}.cls-14,.cls-19{opacity:0.6;}.cls-15,.cls-20{opacity:0.4;}.cls-16,.cls-17{opacity:0.2;}</style></defs><title>GraphicDesign</title><g id="Layer_2" data-name="Layer 2"><g id="Layer_1-2" data-name="Layer 1"><polygon class="cls-1" points="118.21 32.03 117.76 32.03 117.76 31.73 117.91 31.73 117.91 31.58 118.21 31.58 118.21 32.03"/><path class="cls-1" d="M117.15,32h-.61v-.3h.61Zm-1.22,0h-.61v-.3h.61Zm-1.22,0h-.61v-.3h.61Zm-1.22,0h-.61v-.3h.61Zm-1.22,0h-.6v-.3h.6Zm-1.21,0h-.61v-.3h.61Zm-1.22,0h-.61v-.3h.61Zm-1.22,0H108v-.3h.61Zm-1.22,0h-.61v-.3h.61Zm-1.22,0h-.61v-.3h.61ZM105,32h-.61v-.3H105Zm-1.21,0h-.61v-.3h.61Zm-1.22,0h-.61v-.3h.61Z"/><polygon class="cls-1" points="101.31 32.03 100.86 32.03 100.86 31.58 101.16 31.58 101.16 31.73 101.31 31.73 101.31 32.03"/><path class="cls-1" d="M101.16,31h-.3v-.61h.3Zm0-1.22h-.3v-.61h.3Zm0-1.22h-.3v-.61h.3Zm0-1.22h-.3V26.7h.3Zm0-1.22h-.3v-.61h.3Zm0-1.22h-.3v-.6h.3Zm0-1.21h-.3v-.61h.3Zm0-1.22h-.3v-.61h.3Zm0-1.22h-.3v-.61h.3Zm0-1.22h-.3v-.61h.3Zm0-1.22h-.3v-.61h.3Zm0-1.22h-.3V17h.3Zm0-1.21h-.3v-.61h.3Z"/><polygon class="cls-1" points="101.16 15.13 100.86 15.13 100.86 14.68 101.31 14.68 101.31 14.98 101.16 14.98 101.16 15.13"/><path class="cls-1" d="M117.15,15h-.61v-.3h.61Zm-1.22,0h-.61v-.3h.61Zm-1.22,0h-.61v-.3h.61Zm-1.22,0h-.61v-.3h.61Zm-1.22,0h-.6v-.3h.6Zm-1.21,0h-.61v-.3h.61Zm-1.22,0h-.61v-.3h.61Zm-1.22,0H108v-.3h.61Zm-1.22,0h-.61v-.3h.61Zm-1.22,0h-.61v-.3h.61ZM105,15h-.61v-.3H105Zm-1.21,0h-.61v-.3h.61Zm-1.22,0h-.61v-.3h.61Z"/><polygon class="cls-1" points="118.21 15.13 117.91 15.13 117.91 14.98 117.76 14.98 117.76 14.68 118.21 14.68 118.21 15.13"/><path class="cls-1" d="M118.21,31h-.3v-.61h.3Zm0-1.22h-.3v-.61h.3Zm0-1.22h-.3v-.61h.3Zm0-1.22h-.3V26.7h.3Zm0-1.22h-.3v-.61h.3Zm0-1.22h-.3v-.6h.3Zm0-1.21h-.3v-.61h.3Zm0-1.22h-.3v-.61h.3Zm0-1.22h-.3v-.61h.3Zm0-1.22h-.3v-.61h.3Zm0-1.22h-.3v-.61h.3Zm0-1.22h-.3V17h.3Zm0-1.21h-.3v-.61h.3Z"/><rect class="cls-2" x="99.94" y="30.81" width="2.12" height="2.12"/><path class="cls-1" d="M102.22,33.09H99.79V30.66h2.43Zm-2.12-.3h1.82V31H100.1Z"/><rect class="cls-2" x="99.94" y="22.29" width="2.12" height="2.12"/><path class="cls-1" d="M102.22,24.56H99.79V22.14h2.43Zm-2.12-.3h1.82V22.44H100.1Z"/><rect class="cls-2" x="99.94" y="13.76" width="2.12" height="2.12"/><path class="cls-1" d="M102.22,16H99.79V13.61h2.43Zm-2.12-.3h1.82V13.91H100.1Z"/><rect class="cls-2" x="117" y="30.81" width="2.12" height="2.12"/><path class="cls-1" d="M119.27,33.09h-2.42V30.66h2.42Zm-2.12-.3H119V31h-1.82Z"/><rect class="cls-2" x="117" y="22.29" width="2.12" height="2.12"/><path class="cls-1" d="M119.27,24.56h-2.42V22.14h2.42Zm-2.12-.3H119V22.44h-1.82Z"/><rect class="cls-2" x="117" y="13.76" width="2.12" height="2.12"/><path class="cls-1" d="M119.27,16h-2.42V13.61h2.42Zm-2.12-.3H119V13.91h-1.82Z"/><rect class="cls-2" x="108.47" y="13.76" width="2.12" height="2.12"/><path class="cls-1" d="M110.75,16h-2.43V13.61h2.43Zm-2.13-.3h1.82V13.91h-1.82Z"/><rect class="cls-2" x="108.47" y="30.81" width="2.12" height="2.12"/><path class="cls-1" d="M110.75,33.09h-2.43V30.66h2.43Zm-2.13-.3h1.82V31h-1.82Z"/><path class="cls-3" d="M109.74,25.38h-3.4L105,29.09h1.29v.33h-2.63v-.33h.81l4.38-11.8h1.41l4.33,11.8h.79v.33h-5.62v-.33H111ZM106.49,25h3.11l-1.49-4.5Z"/><path class="cls-1" d="M23.41,7.12a16.52,16.52,0,0,1-2.2,7.15h-3A16.69,16.69,0,0,1,16,7.12c3.1-1.74,3.18-5.62,3.18-5.62h.31V7.65a1,1,0,1,0,.44,0V1.5h.31S20.31,5.38,23.41,7.12Z"/><rect class="cls-4" x="17.47" y="13.9" width="4.46" height="1.88"/><path class="cls-1" d="M30.06,11.55h-.3a10.06,10.06,0,0,0-20.12,0h-.3a10.36,10.36,0,0,1,20.72,0Z"/><rect class="cls-1" x="9.25" y="1.06" width="20.66" height="0.3"/><rect class="cls-2" x="8.42" y="10.49" width="2.12" height="2.12"/><path class="cls-1" d="M10.7,12.76H8.27V10.34H10.7Zm-2.12-.3H10.4V10.64H8.58Z"/><rect class="cls-2" x="8.42" y="0.15" width="2.12" height="2.12"/><path class="cls-1" d="M10.7,2.43H8.27V0H10.7ZM8.58,2.12H10.4V.3H8.58Z"/><rect class="cls-2" x="28.85" y="10.49" width="2.12" height="2.12"/><path class="cls-1" d="M31.13,12.76H28.7V10.34h2.43ZM29,12.46h1.83V10.64H29Z"/><rect class="cls-2" x="28.85" y="0.15" width="2.12" height="2.12"/><path class="cls-1" d="M31.13,2.43H28.7V0h2.43ZM29,2.12h1.83V.3H29Z"/><path class="cls-1" d="M113.39,83.67l4.11-.28c1.31-.09,2.59-.15,3.86-.17l-.46.45c0-1.12,0-2.24,0-3.36l.5.49c-2.66,0-5.31-.06-8-.22l.28-.27C113.59,81.36,113.48,82.46,113.39,83.67Zm0,0c-.09-1-.2-2.18-.28-3.36v-.26l.29,0c2.66-.16,5.31-.22,8-.22h.51v.51c0,1.12,0,2.24,0,3.36v.47h-.45c-1.38,0-2.76-.09-4.1-.17S114.62,83.77,113.39,83.67Z"/><path class="cls-1" d="M117.84,87.92l4.1-.28c1.32-.09,2.6-.15,3.87-.18l-.46.46c0-1.12,0-2.24,0-3.37l.5.5c-2.66,0-5.32-.06-8-.22l.27-.28C118,85.61,117.93,86.71,117.84,87.92Zm0,0c-.09-1-.21-2.18-.28-3.37l0-.26h.3c2.65-.16,5.31-.22,8-.23h.51v.5c0,1.13,0,2.25,0,3.37l0,.47h-.44c-1.38,0-2.76-.09-4.11-.17S119.07,88,117.84,87.92Z"/><path class="cls-1" d="M108.94,87.92l4.11-.28c1.31-.09,2.59-.15,3.86-.18l-.45.46c0-1.12,0-2.24,0-3.37l.49.5c-2.65,0-5.31-.06-8-.22l.28-.28C109.15,85.61,109,86.71,108.94,87.92Zm0,0c-.09-1-.2-2.18-.27-3.37l0-.26h.29c2.66-.16,5.32-.22,8-.23h.51v.5c0,1.13,0,2.25,0,3.37v.47h-.45c-1.38,0-2.76-.09-4.1-.17S110.17,88,108.94,87.92Z"/><path class="cls-1" d="M6.18,87.92l4.11-.28c1.32-.09,2.59-.15,3.87-.18l-.46.46c0-1.12,0-2.24,0-3.37l.5.5c-2.66,0-5.32-.06-8-.22l.28-.28C6.39,85.61,6.27,86.71,6.18,87.92Zm0,0c-.08-1-.2-2.18-.27-3.37l0-.26h.29c2.66-.16,5.32-.22,8-.23h.5v.5c0,1.13,0,2.25,0,3.37l0,.47h-.44c-1.39,0-2.77-.09-4.11-.17S7.41,88,6.18,87.92Z"/><path class="cls-1" d="M6.18,9.27,10.29,9c1.32-.08,2.59-.14,3.87-.17l-.46.46c0-1.12,0-2.25,0-3.37l.5.5c-2.66,0-5.32-.07-8-.22l.28-.28C6.39,7,6.27,8.05,6.18,9.27Zm0,0c-.08-1-.2-2.18-.27-3.37l0-.26.29,0c2.66-.16,5.32-.21,8-.22h.5v.5c0,1.12,0,2.25,0,3.37l0,.47h-.44c-1.39,0-2.77-.09-4.11-.17S7.41,9.36,6.18,9.27Z"/><path class="cls-1" d="M1.74,13.52l4.1-.29c1.32-.08,2.59-.14,3.87-.17l-.46.46c0-1.13,0-2.25,0-3.37l.5.5c-2.66,0-5.32-.07-8-.23L2,10.15C1.94,11.2,1.82,12.3,1.74,13.52Zm0,0c-.09-1-.21-2.18-.28-3.37l0-.26.3,0c2.65-.16,5.31-.21,8-.22h.51v.5c0,1.12,0,2.24,0,3.37l0,.46H9.71c-1.38,0-2.77-.09-4.11-.18S3,13.61,1.74,13.52Z"/><path class="cls-1" d="M117.84,9.27l4.1-.29c1.32-.08,2.6-.14,3.87-.17l-.46.46c0-1.12,0-2.24,0-3.37l.5.5c-2.66,0-5.32-.06-8-.22l.27-.28C118,7,117.93,8.06,117.84,9.27Zm0,0c-.09-1-.21-2.18-.28-3.37l0-.26h.3c2.65-.16,5.31-.22,8-.23h.51v.5c0,1.13,0,2.25,0,3.37l0,.47h-.44c-1.38,0-2.76-.09-4.11-.17S119.07,9.37,117.84,9.27Z"/><path class="cls-1" d="M46.85,65.4l-4.11.29c-1.31.08-2.59.14-3.87.17l.46-.46c0,1.12,0,2.25,0,3.37l-.5-.5c2.66,0,5.32.06,8,.22l-.28.28C46.64,67.71,46.76,66.62,46.85,65.4Zm0,0c.09,1,.2,2.18.27,3.37l0,.26-.29,0c-2.66.15-5.32.21-8,.22h-.5v-.5c0-1.12,0-2.25,0-3.37v-.47h.45c1.38,0,2.76.09,4.1.17S45.62,65.31,46.85,65.4Z"/><path class="cls-1" d="M42.4,61.15l-4.11.29c-1.31.08-2.59.14-3.86.17l.46-.46c0,1.13,0,2.25,0,3.37l-.5-.5c2.66,0,5.31.07,8,.22l-.28.28C42.2,63.46,42.31,62.37,42.4,61.15Zm0,0c.09,1,.2,2.18.28,3.37v.26l-.29,0c-2.66.16-5.31.21-8,.22h-.51v-.5c0-1.12,0-2.24,0-3.37v-.47h.45c1.38,0,2.76.09,4.1.18S41.17,61.06,42.4,61.15Z"/><path class="cls-5" d="M1.85,100.34c10.32-.21,20.64-.31,31-.39l31-.11,31,.11,15.48.14,15.48.25-15.48.24-15.48.14-31,.12-31-.12C22.49,100.64,12.17,100.54,1.85,100.34Z"/><path class="cls-5" d="M21.83,70.35c-.95-.93-2.18-2-3.63-1.65s-1.89,1.86-2.13,3.1c-.31,1.6-.56,3.22-.81,4.83s-.5,3.25-.74,4.88l-.39,2.76c-.06.46-.12.92-.19,1.38s-.14.9-.16,1.36c0,.14.22.16.25,0,.18-.77.25-1.57.36-2.35s.23-1.56.34-2.35c.23-1.55.47-3.11.7-4.66s.48-3.11.72-4.66c.22-1.32.31-3,1.48-3.83a2.28,2.28,0,0,1,2.19-.2,6.46,6.46,0,0,1,2,1.39A0,0,0,0,0,21.83,70.35Z"/><path class="cls-6" d="M20.53,69.4s-1.94-.7-2.9.72.19,5,9,7a24.82,24.82,0,0,0-2.13-8C22.63,65.05,19.26,66.62,20.53,69.4Z"/><path class="cls-5" d="M26.14,76.57a6.46,6.46,0,0,0-.44-.71l-.45-.68-.35-.51s0-.08,0-.12l0-.23c0-.17.05-.33.07-.5s.05-.33.08-.49a2.82,2.82,0,0,1,.12-.52s0,0,0,0a1.38,1.38,0,0,1-.08.29l-.06.22-.12.51-.09.47,0,.22-.49-.66c-.47-.62-1-1.21-1.48-1.79v0a17,17,0,0,1,.23-2.76s0,0,0,0a9.8,9.8,0,0,0-.33,2.64c-.18-.21-.37-.41-.55-.61-.43-.47-.87-.92-1.32-1.37,0,0,0,0,0,0,.75.8,1.45,1.64,2.14,2.48-.54,0-1.08,0-1.61.06s-1.2.13-1.79.21c0,0,0,0,0,0a15.09,15.09,0,0,1,1.78-.16c.58,0,1.15,0,1.73,0,.37.46.74.92,1.1,1.39h-.08c-.14,0-.27,0-.41,0s-.54,0-.8,0a12.56,12.56,0,0,0-1.63.25s0,0,0,0c.55-.06,1.09-.12,1.63-.13h.79c.13,0,.27,0,.4,0a.52.52,0,0,0,.22,0l.72.92.55.75a8.54,8.54,0,0,0,.56.78S26.15,76.59,26.14,76.57Z"/><path class="cls-5" d="M21.37,71.4a5.92,5.92,0,0,0-.94,0l-.95,0s0,0,0,0c.31,0,.63,0,1,0s.62,0,.93,0C21.38,71.42,21.38,71.41,21.37,71.4Z"/><path class="cls-5" d="M24.14,72.12c0-.31.08-.61.14-.91,0,0,0,0,0,0,0,.29-.1.59-.14.89a3.11,3.11,0,0,0-.06.44A2.06,2.06,0,0,0,24,73s0,0,.05,0a3.19,3.19,0,0,0,.05-.42C24.11,72.4,24.13,72.26,24.14,72.12Z"/><path class="cls-5" d="M23.56,68.77c-.07.3-.15.6-.21.89s-.05.31-.07.46a2.27,2.27,0,0,0,0,.45,0,0,0,0,0,0,0,3.21,3.21,0,0,0,.07-.43l.06-.44c.06-.3.11-.61.19-.91A0,0,0,0,0,23.56,68.77Z"/><path class="cls-5" d="M12.07,86.68C12,86.13,12,85.57,11.9,85c-.11-1.1-.25-2.2-.39-3.3s-.29-2.19-.47-3.27A8.44,8.44,0,0,0,10.71,77,1.43,1.43,0,0,0,9.88,76c-1-.36-1.74.72-2.16,1.48,0,0,0,0,0,0,.25-.36.94-1.38,1.73-1.33.53,0,1,.41,1.21,1.73.63,3.29,1.21,10,1.27,10.42,0,.23.2.22.2,0C12.18,87.77,12.11,87.23,12.07,86.68Z"/><path class="cls-6" d="M8,77.1s.91-3.21-1.1-1.6C3.56,78.16,3.44,84,3.44,84s5.94-3.45,6.68-5.73C11.22,74.85,8,77.1,8,77.1Z"/><path class="cls-5" d="M9.13,78.67c-.47.1-.94.16-1.41.23L7.05,79,6.6,79c.44-.6.88-1.21,1.31-1.83,0,0,0,0,0,0a13.48,13.48,0,0,0-1,1.14l-.27-.74a8.81,8.81,0,0,1-.28-.87s0,0,0,0c.08.3.14.59.22.89a8.16,8.16,0,0,0,.26.84c-.22.28-.42.57-.63.87-.1-.29-.23-.57-.32-.87,0,0,0,0,0,0,.1.33.16.67.26,1l-.4.6c-.24.37-.47.75-.69,1.13a.09.09,0,0,0,0,.09c-.38.65-.73,1.31-1.09,2,0,0,0,.05,0,0C4.21,82.61,4.6,82,5,81.34H5a1.06,1.06,0,0,1,.19,0l.2,0,.46-.11a9.21,9.21,0,0,1,.91-.2s0,0,0,0c-.36.07-.72.11-1.09.15l-.51.07h0l.64-1,.67-.93.61-.12L7.76,79l1.38-.27S9.15,78.67,9.13,78.67Z"/><path class="cls-5" d="M5.56,79a2.58,2.58,0,0,1-.08-.26,4.58,4.58,0,0,1-.14-.53s0,0,0,0c0,.18.08.36.13.54a3.21,3.21,0,0,0,.15.53s.08,0,.07,0Z"/><path class="cls-5" d="M9.74,77.93c-.28,0-.55.06-.82.08l-.82.11s0,0,0,0l.82-.07c.27,0,.54-.08.82-.1C9.76,78,9.76,77.93,9.74,77.93Z"/><path class="cls-5" d="M16.44,82.62c-.11-2.36-.26-4.71-.5-7.06-.11-1.18-.25-2.35-.41-3.51a24.51,24.51,0,0,0-.68-3.39,6.47,6.47,0,0,0-1.13-2.4,2.56,2.56,0,0,0-2.28-1,4.55,4.55,0,0,0-2.58,1.48c-.81.8-1.55,1.66-2.3,2.51-.19.21-.38.43-.56.65,0,0,0,0,0,0,.73-.84,1.49-1.66,2.28-2.44a6.42,6.42,0,0,1,2.51-1.81,2.59,2.59,0,0,1,1.46,0,2.22,2.22,0,0,1,1,.63,5.12,5.12,0,0,1,1.13,2.18,37.79,37.79,0,0,1,1.09,6.69c.24,2.27.41,4.56.52,6.84s.21,4.6.43,6.89c0,.29.06.57.1.85s.31.19.3,0C16.65,87.37,16.54,85,16.44,82.62Z"/><path class="cls-6" d="M8.73,67s1.34-2.5-.25-3.3S1.56,68.86,0,77.56c0,0,8.61-3.81,11.53-7.6S11.14,65.33,8.73,67Z"/><path class="cls-5" d="M10,69C9,69,8.06,69,7.09,69c.18-.21.36-.42.55-.62a10.27,10.27,0,0,0,.75-.88,0,0,0,0,0,0,0,6.29,6.29,0,0,0-.73.73L6.9,69c-.37.4-.73.8-1.09,1.21v-.63c0-.32,0-.65,0-1,0-.67,0-1.33,0-2,0,0,0,0,0,0,0,.67-.12,1.33-.15,2,0,.33,0,.66,0,1v.79a1.54,1.54,0,0,1-.17.19c-.77.88-1.5,1.8-2.22,2.72,0,0,0-.1,0-.15s0-.2,0-.31,0-.44-.08-.66-.07-.42-.1-.62-.1-.47-.12-.71c0,0,0,0,0,0,0,.23.06.48.09.71s0,.43,0,.64l.06.64c0,.1,0,.2,0,.3s0,.11,0,.16a.22.22,0,0,0,0,.12l-.37.48-1.45,2s0,0,0,0c.45-.59.92-1.17,1.39-1.75.36,0,.72,0,1.07,0H5a0,0,0,1,0,0,0L3.84,74c-.34,0-.68,0-1,0l1.26-1.51L4.54,72A2.07,2.07,0,0,0,5,72h.51l.95,0,2,0a0,0,0,1,0,0,0l-2-.05-1,0h-.8l1.08-1.28,0,0c.36-.42.71-.84,1.07-1.25A2.09,2.09,0,0,0,7,69.09c1,0,2,0,3,0A0,0,0,1,0,10,69Z"/><path class="cls-5" d="M9.5,70.75H9.26s0,0,0,0H9.5S9.52,70.75,9.5,70.75Z"/><path class="cls-5" d="M9,70.75l-.93,0H7.58a1.55,1.55,0,0,0-.43,0s0,0,0,0a1.53,1.53,0,0,0,.43,0H9S9,70.75,9,70.75Z"/><path class="cls-5" d="M6.27,73.66a13.57,13.57,0,0,0-1.91-.18s0,0,0,0c.63.06,1.26.09,1.89.19C6.28,73.7,6.29,73.66,6.27,73.66Z"/><path class="cls-5" d="M3.68,70.89c0-.06,0-.11,0-.17s0-.25-.05-.37-.08-.48-.13-.71c0,0,0,0,0,0,0,.24.06.48.08.73l0,.36a1,1,0,0,0,.05.34,0,0,0,0,0,.08,0A.33.33,0,0,0,3.68,70.89Z"/><path class="cls-5" d="M16.35,63.8c-.31-.57-.7-1.33-1.47-1.28s-.92.69-1.05,1.22a26.54,26.54,0,0,0-.54,5.11c-.17,3.59-.32,7.18-.35,10.77,0,1,0,2,0,3s0,2,.07,3a.08.08,0,0,0,.15,0c0-.87,0-1.74,0-2.61s0-1.7,0-2.54c0-1.72.07-3.44.14-5.15s.13-3.42.21-5.12c0-.85.07-1.71.11-2.56s.07-1.65.17-2.47q.08-.69.21-1.38a2,2,0,0,1,.4-.92.88.88,0,0,1,1.12-.08,2.43,2.43,0,0,1,.8,1S16.36,63.83,16.35,63.8Z"/><path class="cls-6" d="M16.14,63.53s-.63-2.23.77-1.12c2.33,1.86,2.41,5.91,2.41,5.91s-4.14-2.41-4.65-4C13.9,62,16.14,63.53,16.14,63.53Z"/><path class="cls-5" d="M18.45,66.66l-.12-.19a1.21,1.21,0,0,0,0-.19V66c0-.19,0-.38,0-.57,0,0,0,0,0,0,0,.19,0,.37,0,.56s0,.18,0,.27,0,.08,0,.12c-.16-.25-.33-.5-.5-.74-.05-.08-.1-.14-.15-.21a3.56,3.56,0,0,1,0-.73c0-.26,0-.52,0-.78a0,0,0,1,0,0,0l0,.81a5.52,5.52,0,0,0,0,.58c-.4-.55-.82-1.07-1.25-1.59,0,0-.05,0,0,0,.26.34.52.68.77,1-.49-.11-1-.18-1.48-.25,0,0,0,0,0,0,.52.08,1,.21,1.56.33a0,0,0,0,1,0,0l.58.84.24.35h0l-.16,0-.35,0-.71,0a0,0,0,1,0,0,0,5.49,5.49,0,0,1,.7,0l.37,0,.16,0H18c.13.19.26.39.4.58.23.35.44.72.69,1.05,0,0,0,0,0,0A9.79,9.79,0,0,0,18.45,66.66Z"/><path class="cls-5" d="M17.42,64.14v-.27a4.87,4.87,0,0,1,0-.54s0,0,0,0,0,.36,0,.54v.4a.29.29,0,0,0,0,.13s0,0,0,0a.25.25,0,0,0,0-.12Z"/><path class="cls-5" d="M16.91,65.06c-.16,0-.31,0-.47,0L15.93,65s0,0,0,0c.33,0,.66.08,1,.09C16.92,65.09,16.92,65.06,16.91,65.06Z"/><path class="cls-5" d="M18.21,65.07a.27.27,0,0,1,0,.09v.38a.32.32,0,0,0,0,.14h0a.13.13,0,0,0,0-.06v-.46a.27.27,0,0,1,0-.09S18.18,65,18.21,65.07Z"/><path class="cls-5" d="M16.45,75.72c-.87-.65-1.65-1.59-2.82-1.64a2.25,2.25,0,0,0-2,1.5,7.92,7.92,0,0,0-.48,1.34c-.17.61-.34,1.22-.49,1.84-.3,1.21-.56,2.44-.78,3.67-.11.69-.22,1.38-.31,2.07a16.54,16.54,0,0,0-.2,2.12.11.11,0,0,0,.21,0c.12-.58.17-1.18.26-1.76s.17-1.18.27-1.76c.2-1.18.43-2.34.69-3.5s.5-2.21.85-3.27a2.77,2.77,0,0,1,1.49-1.94c1.25-.41,2.39.65,3.31,1.34C16.44,75.76,16.47,75.74,16.45,75.72Z"/><path class="cls-6" d="M15.55,75.1s-.8-2.29.36-2.74c1.73-.68,6.28,4.45,5.39,12.3a45.73,45.73,0,0,1-6.11-4.11c-2.59-2.18-3.26-5-2.12-5.77A2.35,2.35,0,0,1,15.55,75.1Z"/><path class="cls-5" d="M20.78,83a5.41,5.41,0,0,0-.42-.79c-.15-.27-.3-.54-.46-.81-.3-.51-.6-1-.91-1.54l-.15-.25a.29.29,0,0,1,0-.09l.05-.23c0-.17.07-.34.1-.51.06-.34.12-.68.21-1,0,0,0,0,0,0-.07.34-.18.67-.28,1,0,.16-.1.32-.14.48l0,.17c-.38-.61-.76-1.22-1.17-1.81a.69.69,0,0,0,0-.25c0-.12,0-.23,0-.35s.06-.51.1-.77a14.7,14.7,0,0,1,.28-1.5s0,0,0,0c-.13.49-.26,1-.36,1.49,0,.24-.09.49-.12.74s0,.25,0,.37,0,.08,0,.12c-.12-.18-.25-.36-.38-.53-.4-.53-.82-1-1.24-1.56,0,0-.05,0,0,0a27.33,27.33,0,0,1,2,2.89c.11.18.22.37.34.55H18l-.44,0-.89-.08c-.59,0-1.18-.08-1.77-.15,0,0,0,0,0,0,.6.07,1.19.17,1.79.25l.88.12a3,3,0,0,0,.68.07c.23.38.46.76.7,1.13H16.77s0,0,0,0l1.16,0,.55,0,.27,0a.53.53,0,0,0,.25,0l.59,1,.55.88a7,7,0,0,0,.6.9S20.79,83,20.78,83Z"/><path class="cls-5" d="M19.1,76.63a5,5,0,0,1-.15.75c-.07.25-.14.5-.23.75a0,0,0,1,0,.05,0q.12-.37.21-.75c.06-.25.1-.51.16-.76C19.15,76.61,19.11,76.61,19.1,76.63Z"/><path class="cls-5" d="M16.52,78.16a.32.32,0,0,0-.19-.07l-.33,0L15.38,78l-1.29-.14s0,0,0,0L15.3,78l.59.08.28,0a1.2,1.2,0,0,1,.33,0S16.53,78.18,16.52,78.16Z"/><path class="cls-5" d="M19.1,81.62l-.61,0H18a.61.61,0,0,1-.19,0s0,0,0,0a.55.55,0,0,1,.18,0h.16l.31,0,.61,0S19.12,81.62,19.1,81.62Z"/><path class="cls-5" d="M20.34,80.74l.06-.35.13-.67s0,0,0,0l-.15.66c0,.11-.05.22-.07.33l0,.15a.49.49,0,0,0,0,.17s0,0,0,0A1,1,0,0,0,20.34,80.74Z"/><polygon class="cls-7" points="18.63 87.51 18.43 90.75 17.85 100.34 8.03 100.34 7.45 90.75 7.25 87.51 18.63 87.51"/><polygon class="cls-5" points="18.63 87.51 18.43 90.75 7.45 90.75 7.25 87.51 18.63 87.51"/><rect class="cls-7" x="6.35" y="85.21" width="13.19" height="3.25"/><ellipse class="cls-1" cx="63.77" cy="114.56" rx="54.24" ry="4.74"/><rect class="cls-8" x="36.98" y="0.27" width="50.83" height="50.73"/><rect class="cls-5" x="36.98" y="0.27" width="50.86" height="3.07"/><path class="cls-4" d="M39.39,1.8a.64.64,0,1,1-.63-.63A.63.63,0,0,1,39.39,1.8Z"/><path class="cls-2" d="M42,1.8a.64.64,0,0,1-.63.64.64.64,0,0,1-.64-.64.64.64,0,0,1,.64-.63A.63.63,0,0,1,42,1.8Z"/><path class="cls-6" d="M44.6,1.8a.64.64,0,0,1-1.28,0,.64.64,0,0,1,1.28,0Z"/><rect class="cls-2" x="43.82" y="8.53" width="37.17" height="37.17"/><path class="cls-6" d="M62.39,39.61v-.29A12.92,12.92,0,1,0,49.46,26.4h-.29A13.22,13.22,0,1,1,62.39,39.61Z"/><path class="cls-2" d="M50,26.4a.71.71,0,1,1-.71-.71A.71.71,0,0,1,50,26.4Z"/><path class="cls-6" d="M49.32,27.25a.85.85,0,1,1,0-1.7.85.85,0,1,1,0,1.7Zm0-1.41a.57.57,0,0,0-.57.56.58.58,0,0,0,.57.57.57.57,0,0,0,.56-.57A.56.56,0,0,0,49.32,25.84Z"/><path class="cls-6" d="M58.42,23.67a1.54,1.54,0,1,1-1.54-1.54A1.53,1.53,0,0,1,58.42,23.67Z"/><circle class="cls-6" cx="67.89" cy="23.67" r="1.54"/><circle class="cls-2" cx="75.45" cy="26.4" r="0.71"/><path class="cls-6" d="M75.45,27.25a.85.85,0,1,1,0-1.7.85.85,0,1,1,0,1.7Zm0-1.41a.56.56,0,0,0-.56.56.57.57,0,0,0,.56.57A.58.58,0,0,0,76,26.4.57.57,0,0,0,75.45,25.84Z"/><path class="cls-2" d="M63.09,13.33a.71.71,0,1,1-.7-.71A.7.7,0,0,1,63.09,13.33Z"/><path class="cls-6" d="M62.39,14.19a.86.86,0,1,1,0-1.71.85.85,0,0,1,.85.85A.86.86,0,0,1,62.39,14.19Zm0-1.42a.56.56,0,0,0-.57.56.57.57,0,1,0,1.13,0A.56.56,0,0,0,62.39,12.77Z"/><path class="cls-6" d="M63.09,39.46a.71.71,0,1,1-1.41,0,.71.71,0,1,1,1.41,0Z"/><path class="cls-5" d="M65.21,41.13a8,8,0,0,1,.56,3.59l-1.32.64A8.06,8.06,0,0,1,62,42.71a3.39,3.39,0,0,0,.19-3.13l.14-.07L63.6,42.2a.46.46,0,0,0-.12.56.46.46,0,0,0,.83-.41.47.47,0,0,0-.52-.25l-1.31-2.68.14-.07A3.42,3.42,0,0,0,65.21,41.13Z"/><rect class="cls-5" x="64.15" y="44.83" width="2.17" height="0.91" transform="translate(-13.26 33.23) rotate(-26.03)"/><rect class="cls-5" x="67.5" y="44.65" width="0.17" height="1.63"/><rect class="cls-5" x="66.77" y="45.38" width="1.63" height="0.17"/><rect class="cls-5" x="66.77" y="45.38" width="1.63" height="0.17" transform="translate(-12.35 61.11) rotate(-45)"/><rect class="cls-5" x="67.5" y="44.65" width="0.17" height="1.63" transform="translate(-12.35 61.11) rotate(-45)"/><path class="cls-5" d="M67.58,41.94a2.28,2.28,0,0,1-2.09-1.61,2.3,2.3,0,0,0-.73-1,1.83,1.83,0,0,0-2,.31l-.23-.24a2.16,2.16,0,0,1,2.43-.36,2.5,2.5,0,0,1,.86,1.12c.37.72.72,1.39,1.8,1.42Z"/><path class="cls-6" d="M65.28,23.33a2.9,2.9,0,0,1-5.79,0Z"/><rect class="cls-9" x="23.46" y="10.93" width="8.86" height="33.34"/><rect class="cls-1" x="24.14" y="11.22" width="0.07" height="0.77" transform="translate(-1.12 20.5) rotate(-45)"/><rect class="cls-1" x="23.79" y="11.57" width="0.77" height="0.07" transform="translate(-1.12 20.5) rotate(-45)"/><rect class="cls-1" x="31.37" y="11.51" width="0.07" height="0.46" transform="translate(0.9 25.65) rotate(-45.01)"/><rect class="cls-1" x="31.18" y="11.43" width="0.46" height="0.07" transform="translate(1.09 25.57) rotate(-45)"/><rect class="cls-1" x="31.73" y="11.51" width="0.07" height="0.46" transform="translate(1 25.9) rotate(-45)"/><rect class="cls-1" x="31.53" y="11.43" width="0.46" height="0.07" transform="translate(1.19 25.82) rotate(-45)"/><path class="cls-1" d="M25.91,16.48l-.38-.92-.68.53v-3l2.07,2.09-.87.13.38.92Zm-.32-1.15.4,1,.25-.1-.39-1,.76-.11L25,13.49v2.3Z"/><polygon class="cls-1" points="30.63 15.29 31.01 16.23 30.63 16.39 30.24 15.45 29.6 15.94 29.6 13.31 31.44 15.17 30.63 15.29"/><rect class="cls-1" x="24.38" y="20.02" width="2.93" height="0.22" transform="translate(-5.92 28.15) rotate(-52.08)"/><polygon class="cls-1" points="25.67 19.2 25.23 19.28 25.13 19.75 25.03 19.28 24.59 19.2 25.03 19.09 25.13 18.66 25.23 19.09 25.67 19.2"/><polygon class="cls-1" points="26.65 18.47 26.39 18.51 26.33 18.79 26.27 18.51 26.01 18.47 26.27 18.4 26.33 18.15 26.39 18.4 26.65 18.47"/><polygon class="cls-1" points="26.95 19.93 26.8 19.95 26.77 20.11 26.74 19.95 26.59 19.93 26.74 19.89 26.77 19.75 26.8 19.89 26.95 19.93"/><rect class="cls-1" x="28.65" y="28.29" width="2.93" height="0.22" transform="translate(-10.79 34.71) rotate(-52.08)"/><polygon class="cls-1" points="30.63 20.54 31.01 21.47 30.63 21.63 30.24 20.69 29.6 21.19 29.6 18.55 31.44 20.42 30.63 20.54"/><path class="cls-1" d="M29.42,20.18a.85.85,0,0,1-.78-.33c-.15-.3,0-.94.91-1.45a1.39,1.39,0,0,1,1.68.05.63.63,0,0,1,0,.51,1.85,1.85,0,0,1-1,1h0A2.08,2.08,0,0,1,29.42,20.18Zm1-1.88a1.73,1.73,0,0,0-.85.23c-.85.46-1,1-.85,1.25s.71.39,1.39.09h0a1.69,1.69,0,0,0,1-1,.49.49,0,0,0,0-.38A.8.8,0,0,0,30.47,18.3Z"/><path class="cls-1" d="M29,20.37a.38.38,0,0,1-.28-.14h0a.33.33,0,0,1,0-.34.43.43,0,0,1,.38-.22.33.33,0,0,1,.3.17.35.35,0,0,1-.14.46A.41.41,0,0,1,29,20.37Zm-.16-.23a.23.23,0,0,0,.31,0,.2.2,0,0,0,.08-.27.19.19,0,0,0-.17-.1.33.33,0,0,0-.25.15.16.16,0,0,0,0,.18Z"/><path class="cls-1" d="M29.42,20.75l-.09-.11s.1-.08.09-.13-.17-.18-.25-.21l0-.13s.32.13.34.32A.28.28,0,0,1,29.42,20.75Z"/><path class="cls-1" d="M24.91,24a3.58,3.58,0,0,1,1.43-.75l.46.46a3.49,3.49,0,0,1-.75,1.42,1.53,1.53,0,0,0-1.34.38l-.05,0,.93-.94a.21.21,0,0,0,.26,0,.21.21,0,0,0-.29-.29.2.2,0,0,0,0,.25l-.94.94-.05-.05A1.51,1.51,0,0,0,24.91,24Z"/><rect class="cls-1" x="26.18" y="23.15" width="0.96" height="0.41" transform="translate(29 58.71) rotate(-135)"/><rect class="cls-5" x="28.18" y="22.41" width="3.55" height="3.31"/><path class="cls-1" d="M29.47,24a3.58,3.58,0,0,1,1.42-.75l.46.46a3.49,3.49,0,0,1-.75,1.42,1.53,1.53,0,0,0-1.34.38l-.05,0,.94-.94a.2.2,0,0,0,.25,0,.21.21,0,0,0-.29-.29.2.2,0,0,0,0,.25l-.94.94,0-.05A1.51,1.51,0,0,0,29.47,24Z"/><rect class="cls-1" x="30.73" y="23.15" width="0.96" height="0.41" transform="translate(36.77 61.93) rotate(-135)"/><path class="cls-1" d="M29.14,25.42a.55.55,0,0,1-.49-.24c-.1-.16-.17-.47.11-1a.57.57,0,0,0,0-.5.67.67,0,0,0-.45-.25l0-.15a.81.81,0,0,1,.56.33.68.68,0,0,1,0,.63c-.25.51-.2.77-.12.9a.42.42,0,0,0,.37.18Z"/><path class="cls-1" d="M26.71,27.05v.59h-.2a.08.08,0,0,1-.08-.06s0-.07,0-.15H25.9v1.78l.1,0h.08a.1.1,0,0,1,.09.11v.2h-1v-.2c0-.06,0-.1.08-.11h.08l.1,0V27.43h-.51c0,.08,0,.12,0,.15a.07.07,0,0,1-.08.06h-.2v-.59h2.08Z"/><path class="cls-1" d="M27.06,34.37H24.52V31.83h2.54Zm-2.32-.22h2.1v-2.1h-2.1Z"/><path class="cls-1" d="M31.06,41.93H28.87V40h2.19Zm-2-.21h1.75V40.19H29.09Z"/><path class="cls-1" d="M29.86,42.51H28.33V41.14h1.53Zm-1.31-.22h1.09v-.94H28.55Z"/><rect class="cls-1" x="29.96" y="40.63" width="0.78" height="0.14" transform="translate(-19.89 33.38) rotate(-45)"/><polygon class="cls-1" points="30.73 40.76 30.59 40.76 30.59 40.47 30.31 40.47 30.31 40.32 30.73 40.32 30.73 40.76"/><path class="cls-1" d="M31.18,34.37H28.64V31.83h1.19a.94.94,0,0,1,1-.83,1,1,0,0,1,1,1,1,1,0,0,1-.56.88Zm-2.32-.22H31V32.69l.07,0a.75.75,0,1,0-1-.72v.11H28.86Z"/><path class="cls-1" d="M30.25,32.54c-.38-.06-.44.34-.44.49a.43.43,0,0,1-.31.34s.59.16.88-.14A.39.39,0,0,0,30.25,32.54Z"/><path class="cls-1" d="M31.54,31.32l-.95,1.35a.4.4,0,0,0-.29-.23h-.07L31,31.32Z"/><rect class="cls-1" x="25.17" y="36.51" width="0.94" height="1.92" transform="translate(34 -7.15) rotate(45)"/><rect class="cls-1" x="26.1" y="36.33" width="0.94" height="0.41" transform="translate(33.62 -8.09) rotate(45)"/><polygon class="cls-1" points="24.57 38.54 24.62 37.83 24.76 37.84 24.72 38.38 25.27 38.34 25.27 38.49 24.57 38.54"/><path class="cls-1" d="M30.7,37.41a.51.51,0,0,1,0-1,.51.51,0,1,1,0,1Zm0-.8a.29.29,0,1,0,.3.29A.29.29,0,0,0,30.7,36.61Z"/><path class="cls-1" d="M28.35,38.21l2-1.1.34.19s-1.46.89-1.72,1A1,1,0,0,1,28.35,38.21Z"/><path class="cls-1" d="M30.7,38.55a.51.51,0,1,1,.51-.51A.51.51,0,0,1,30.7,38.55Zm0-.81a.3.3,0,0,0-.3.3A.3.3,0,0,0,31,38,.3.3,0,0,0,30.7,37.74Z"/><path class="cls-1" d="M28.34,36.72l2,1.11.35-.2s-1.47-.89-1.72-1A1,1,0,0,0,28.34,36.72Z"/><path class="cls-1" d="M24.54,42.18V40.3l1.2.94Zm.21-1.43v1l.63-.5Z"/><polygon class="cls-1" points="27.04 40.33 27.04 42.16 25.88 41.24 27.04 40.33"/><path class="cls-1" d="M25.85,42.24h-.07V42h.07Zm0-.58h-.07v-.29h.07Zm0-.58h-.07v-.29h.07Zm0-.58h-.07v-.29h.07Z"/><rect class="cls-9" x="89.06" y="2.68" width="18.26" height="10.83"/><polygon class="cls-1" points="90.03 3.65 89.48 3.1 89.53 3.05 90.08 3.6 90.03 3.65"/><polygon class="cls-1" points="89.53 3.65 89.48 3.6 90.03 3.05 90.08 3.1 89.53 3.65"/><rect class="cls-1" x="106.32" y="3.26" width="0.07" height="0.46" transform="translate(28.67 76.21) rotate(-44.99)"/><rect class="cls-1" x="106.12" y="3.18" width="0.46" height="0.07" transform="translate(28.88 76.14) rotate(-45)"/><rect class="cls-1" x="106.68" y="3.26" width="0.07" height="0.46" transform="translate(28.78 76.46) rotate(-44.99)"/><rect class="cls-1" x="106.48" y="3.18" width="0.46" height="0.07" transform="translate(29.01 76.42) rotate(-45.02)"/><rect class="cls-1" x="92.28" y="4.4" width="0.07" height="7.12"/><rect class="cls-1" x="94.91" y="4.4" width="0.07" height="7.12"/><path class="cls-1" d="M91,5.06a.91.91,0,0,0-.76.43,1,1,0,0,0,.76.43,1,1,0,0,0,.78-.43A.94.94,0,0,0,91,5.06Zm0,.78a.36.36,0,0,1,0-.71.36.36,0,1,1,0,.71Z"/><path class="cls-1" d="M91.26,5.49a.28.28,0,0,1-.28.27.27.27,0,0,1-.27-.27A.28.28,0,0,1,91,5.21.29.29,0,0,1,91.26,5.49Z"/><path class="cls-1" d="M91,7.53a.91.91,0,0,0-.76.43A1,1,0,0,0,91,8.4,1,1,0,0,0,91.76,8,.94.94,0,0,0,91,7.53Zm0,.79a.36.36,0,0,1,0-.71.36.36,0,1,1,0,.71Z"/><path class="cls-1" d="M91.26,8a.29.29,0,0,1-.28.28A.28.28,0,0,1,90.71,8,.27.27,0,0,1,91,7.69.28.28,0,0,1,91.26,8Z"/><path class="cls-1" d="M91,9.9a.91.91,0,0,0-.76.43,1,1,0,0,0,.76.43,1,1,0,0,0,.78-.43A.94.94,0,0,0,91,9.9Zm0,.78a.35.35,0,0,1-.35-.35.36.36,0,0,1,.71,0A.36.36,0,0,1,91,10.68Z"/><path class="cls-1" d="M91.26,10.33a.28.28,0,0,1-.28.27.27.27,0,1,1,0-.54A.28.28,0,0,1,91.26,10.33Z"/><rect class="cls-1" x="89.81" y="6.74" width="16.75" height="0.07"/><rect class="cls-1" x="89.81" y="9.12" width="16.75" height="0.07"/><path class="cls-1" d="M96.92,6h0a0,0,0,0,1,0,0V4.83a0,0,0,0,1,0,0,0,0,0,0,1,0,0V5.92h.58a0,0,0,1,1,0,.08Z"/><path class="cls-1" d="M98.54,5.2V6a0,0,0,0,1,0,0,0,0,0,0,1,0,0V5.84a.39.39,0,0,1-.32.16.42.42,0,0,1,0-.84.39.39,0,0,1,.32.16V5.2a0,0,0,0,1,0,0S98.54,5.17,98.54,5.2Zm-.08.38a.32.32,0,1,0-.32.34A.33.33,0,0,0,98.46,5.58Z"/><path class="cls-1" d="M98.89,5.2a0,0,0,0,1,.08,0v.46a.26.26,0,1,0,.52,0V5.2a0,0,0,0,1,0,0h.06v.5h0v.27a.4.4,0,0,1-.41.39.33.33,0,0,1-.17,0,0,0,0,0,1,0-.07.35.35,0,0,0,.14,0,.31.31,0,0,0,.32-.31V5.88a.36.36,0,0,1-.26.12.34.34,0,0,1-.34-.34Z"/><path class="cls-1" d="M99.86,5.58a.42.42,0,0,1,.41-.42.41.41,0,0,1,.41.39h0s0,0,0,0H100a.32.32,0,0,0,.32.33.33.33,0,0,0,.28-.15,0,0,0,0,1,0,0s0,0,0,.06a.41.41,0,0,1-.35.19A.42.42,0,0,1,99.86,5.58Zm.09-.07h.64a.32.32,0,0,0-.64,0Z"/><path class="cls-1" d="M100.94,5.2a0,0,0,0,1,.08,0v.19a0,0,0,0,0,0,0,.42.42,0,0,1,.34-.2s0,0,0,0a0,0,0,0,1,0,0,.29.29,0,0,0-.24.14.52.52,0,0,0-.1.2h0V6a0,0,0,1,1-.08,0Z"/><path class="cls-1" d="M102.35,4.92l-.17.1h0l0,0s0,0,0-.06l.23-.14a0,0,0,0,1,.06,0V6a0,0,0,1,1-.08,0Z"/><path class="cls-1" d="M96.92,8.5h0a0,0,0,0,1,0-.05V7.33a0,0,0,0,1,0,0s0,0,0,0V8.41h.58a0,0,0,0,1,0,0,0,0,0,0,1,0,.05Z"/><path class="cls-1" d="M98.54,7.69v.76s0,.05,0,.05a0,0,0,0,1,0-.05V8.33a.4.4,0,0,1-.32.17.42.42,0,0,1-.4-.43.41.41,0,0,1,.4-.42.39.39,0,0,1,.32.16V7.69a0,0,0,0,1,0,0A0,0,0,0,1,98.54,7.69Zm-.08.38a.32.32,0,1,0-.32.34A.33.33,0,0,0,98.46,8.07Z"/><path class="cls-1" d="M98.89,7.69a0,0,0,0,1,.08,0v.46a.26.26,0,1,0,.52,0V7.69s0,0,0,0h.07s0,0,0,0v.46h0v.27a.4.4,0,0,1-.41.4.47.47,0,0,1-.17,0s0,0,0-.06,0,0,0,0a.35.35,0,0,0,.14,0,.31.31,0,0,0,.32-.31V8.37a.32.32,0,0,1-.26.12.34.34,0,0,1-.34-.34Z"/><path class="cls-1" d="M99.86,8.07a.42.42,0,0,1,.41-.42.41.41,0,0,1,.41.39h0a0,0,0,0,1,0,0H100a.32.32,0,0,0,.32.32.33.33,0,0,0,.28-.15s0,0,0,0a0,0,0,0,1,0,.05.42.42,0,0,1-.35.2A.42.42,0,0,1,99.86,8.07ZM100,8h.64A.32.32,0,0,0,100,8Z"/><path class="cls-1" d="M100.94,7.69a0,0,0,1,1,.08,0v.17a.43.43,0,0,1,.34-.21,0,0,0,0,1,0,.08.32.32,0,0,0-.24.14.6.6,0,0,0-.1.2h0v.37a0,0,0,1,1-.08,0Z"/><path class="cls-1" d="M102.15,8.42l.56-.51a.3.3,0,0,0,.11-.23.31.31,0,0,0-.31-.31.32.32,0,0,0-.21.08l-.06,0s0,0-.06,0a0,0,0,0,1,0-.06l.06-.05a.38.38,0,0,1,.27-.1.39.39,0,0,1,.29.13.37.37,0,0,1,.1.26.37.37,0,0,1-.13.29l-.48.44h.57a0,0,0,0,1,0,0,0,0,0,0,1,0,.05h-.68l0,0A0,0,0,0,1,102.15,8.42Z"/><path class="cls-1" d="M96.92,11h0a0,0,0,0,1,0,0V9.82a0,0,0,0,1,0,0,0,0,0,0,1,0,0V10.9h.58a0,0,0,0,1,0,0,0,0,0,0,1,0,0Z"/><path class="cls-1" d="M98.54,10.18V11a0,0,0,0,1,0,0,0,0,0,0,1,0,0v-.13a.4.4,0,0,1-.32.17.43.43,0,0,1,0-.85.4.4,0,0,1,.32.17v-.13a0,0,0,0,1,0,0A0,0,0,0,1,98.54,10.18Zm-.08.39a.32.32,0,1,0-.63,0,.32.32,0,1,0,.63,0Z"/><path class="cls-1" d="M98.89,10.18a0,0,0,1,1,.08,0v.46a.26.26,0,1,0,.52,0v-.48h.07v.76a.4.4,0,0,1-.41.4.47.47,0,0,1-.17,0,0,0,0,0,1,0-.06s0,0,0,0a.37.37,0,0,0,.14,0,.32.32,0,0,0,.32-.32v-.05a.36.36,0,0,1-.26.12.35.35,0,0,1-.34-.35Z"/><path class="cls-1" d="M99.86,10.57a.42.42,0,0,1,.41-.43.42.42,0,0,1,.41.4h0a0,0,0,0,1,0,0H100a.32.32,0,0,0,.32.33.32.32,0,0,0,.28-.16s0,0,0,0a0,0,0,0,1,0,.06.43.43,0,0,1-.35.19A.42.42,0,0,1,99.86,10.57Zm.09-.07h.64a.32.32,0,0,0-.64,0Z"/><path class="cls-1" d="M100.94,10.19a0,0,0,1,1,.08,0v.18s0,0,0,0a.43.43,0,0,1,.34-.21s0,0,0,0a0,0,0,0,1,0,0,.29.29,0,0,0-.24.14.58.58,0,0,0-.1.19V11a0,0,0,1,1-.08,0Z"/><path class="cls-1" d="M102.88,9.85l-.31.33a.36.36,0,0,1,.21.11.4.4,0,0,1,.12.29.39.39,0,0,1-.13.29.38.38,0,0,1-.29.12.39.39,0,0,1-.28-.12s0,0,0-.06,0,0,.06,0a.31.31,0,0,0,.22.09.32.32,0,0,0,.33-.32.29.29,0,0,0-.1-.23.32.32,0,0,0-.22-.1h0a0,0,0,0,1,0-.07l.3-.3h-.46a0,0,0,0,1-.05,0,0,0,0,0,1,.05,0h.56a0,0,0,0,1,.05,0v0Z"/><rect class="cls-9" x="95.16" y="6.94" width="0.54" height="2.05"/><rect class="cls-5" x="95.16" y="9.3" width="0.54" height="2.05"/><rect class="cls-6" x="95.16" y="4.46" width="0.54" height="2.05"/><rect class="cls-1" x="89.81" y="12.63" width="3.18" height="0.07"/><rect class="cls-1" x="93.09" y="5.36" width="1.1" height="0.93"/><path class="cls-1" d="M94.06,5.46h-.13V5.22c0-.27-.1-.4-.28-.4s-.31.35-.31.37v.27h-.13V5.19a.46.46,0,0,1,.44-.5c.26,0,.41.19.41.53Z"/><path class="cls-1" d="M105.09,6.05a.56.56,0,0,1-.56-.56.57.57,0,0,1,.56-.57.58.58,0,0,1,.57.57A.57.57,0,0,1,105.09,6.05Zm0-1a.49.49,0,1,0,.49.49A.49.49,0,0,0,105.09,5Z"/><path class="cls-1" d="M105.09,8.53a.57.57,0,0,1-.56-.57.56.56,0,0,1,.56-.56.57.57,0,0,1,.57.56A.58.58,0,0,1,105.09,8.53Zm0-1.06a.49.49,0,1,0,.49.49A.49.49,0,0,0,105.09,7.47Z"/><path class="cls-1" d="M105.09,11a.56.56,0,0,1,0-1.12.56.56,0,1,1,0,1.12Zm0-1.05a.49.49,0,1,0,.49.49A.49.49,0,0,0,105.09,10Z"/><polygon class="cls-4" points="73.32 77.21 72.55 81.88 67.27 110.37 66.42 110.37 70.26 81.88 70.82 77.21 73.32 77.21"/><polygon class="cls-8" points="70.82 77.21 73.32 77.21 72.55 81.88 70.26 81.88 70.82 77.21"/><polygon class="cls-4" points="89.89 110.37 89.04 110.37 83.76 81.88 82.98 77.21 85.49 77.21 86.05 81.88 89.89 110.37"/><polygon class="cls-8" points="85.49 77.21 86.05 81.88 83.76 81.88 82.98 77.21 85.49 77.21"/><polygon class="cls-4" points="105.71 110.37 104.86 110.37 99.58 81.88 98.81 77.21 101.31 77.21 101.87 81.88 105.71 110.37"/><polygon class="cls-8" points="101.87 81.88 99.58 81.88 98.81 77.21 101.31 77.21 101.87 81.88"/><polygon class="cls-4" points="104.36 79.41 65.71 79.41 65.71 75.33 80.18 75.33 85.04 41.02 102.89 41.02 104.36 79.41"/><polygon class="cls-3" points="102.11 75.33 65.71 75.33 65.71 79.41 102.25 79.41 102.11 75.33"/><polygon class="cls-3" points="104.36 79.41 102.25 79.41 100.88 41.02 102.89 41.02 104.36 79.41"/><path class="cls-10" d="M65,115.7c.75.07,21.12-4.81,21.77-5.47a37.83,37.83,0,0,0-.92-4.45v0c-.37-1.6-6.32-14.55-6.32-14.55l-13.2,3.7,6,12s-2.48,1.8-4.61,3.5h0a31.39,31.39,0,0,0-2.69,2.29C64.44,113.49,64.3,115.63,65,115.7Z"/><path class="cls-2" d="M65,115.69c.75.08,21.12-4.8,21.77-5.46a35.9,35.9,0,0,0-.92-4.45v0c-.14-.6-1-2.77-2.14-5.26-2.18.58-10,2.7-12.8,3.57l1.43,2.85s-2.49,1.8-4.62,3.5h0a31.39,31.39,0,0,0-2.69,2.29C64.44,113.49,64.29,115.63,65,115.69Z"/><path class="cls-6" d="M65,115.79c.77.07,21.15-4.86,21.81-5.54.25-.26-.2-3.48-1.32-6.88l-13.14,3.19s-6.71,5.32-7.35,6.14S64.21,115.73,65,115.79Z"/><path class="cls-5" d="M65.07,114.91c3.4-.91,17.19-4.27,20.61-4.91,0,0,0,0,0,0-3.35,1-17.16,4.22-20.61,4.94C65,115,65,114.93,65.07,114.91Z"/><path class="cls-5" d="M66.11,111.65a2.85,2.85,0,0,1,2.25.34,2.7,2.7,0,0,1,1.2,1.64s0,0,0,0a3.25,3.25,0,0,0-3.4-1.94S66.09,111.66,66.11,111.65Z"/><path class="cls-5" d="M71.34,107.16a4.89,4.89,0,0,1,4.19.67s0,.09-.06.08a19,19,0,0,0-4.11-.57A.09.09,0,0,1,71.34,107.16Z"/><path class="cls-5" d="M70.38,107.83a4.91,4.91,0,0,1,4.19.66s0,.1,0,.09A19.67,19.67,0,0,0,70.4,108,.09.09,0,0,1,70.38,107.83Z"/><path class="cls-5" d="M69.43,108.5a4.9,4.9,0,0,1,4.18.66s0,.1,0,.08a20.34,20.34,0,0,0-4.12-.57A.09.09,0,0,1,69.43,108.5Z"/><path class="cls-5" d="M68.47,109.16a4.89,4.89,0,0,1,4.19.67s0,.09-.06.08a19,19,0,0,0-4.11-.57A.09.09,0,0,1,68.47,109.16Z"/><path class="cls-5" d="M84,107a1.22,1.22,0,0,1,.57,2.38A1.22,1.22,0,0,1,84,107Z"/><path class="cls-5" d="M69.57,105.85A12.47,12.47,0,0,0,73,107.39a.18.18,0,0,0,.22-.17s0,0,0,0a7.35,7.35,0,0,0-2.09-3.2c-.57-.49-1.58-.84-2.13-.1S69,105.4,69.57,105.85Zm-.33-1.12c-.23-1.52,1.39-.7,1.8-.32a7.88,7.88,0,0,1,.72.8c.47.58.85,1.22,1.26,1.84-.54-.25-1.11-.45-1.66-.68S69.36,105.57,69.24,104.73Z"/><path class="cls-5" d="M77.85,105.12c-.33-.87-1.39-.81-2.08-.5a7.41,7.41,0,0,0-2.9,2.48s0,.05,0,.06,0,.24.16.22a12.3,12.3,0,0,0,3.67-.53C77.39,106.58,78.15,105.94,77.85,105.12Zm-3,1.73c-.6.07-1.19.1-1.79.19.57-.48,1.12-1,1.73-1.41a7.37,7.37,0,0,1,.92-.57c.5-.25,2.28-.58,1.64.82C77,106.65,75.57,106.78,74.86,106.85Z"/><path class="cls-5" d="M70.87,105.79,85,101.55S73.36,77.25,73.73,76c.24-.82,17.73-.88,22.85-5.48,5.3-4.76,1.18-14.12,1.18-14.12l-14.7-.07s.25,3.06-.31,3.54c-.37.32-20.47,2.09-24.32,9.48C54.94,76.06,70.87,105.79,70.87,105.79Z"/><path class="cls-5" d="M73.73,76a7.63,7.63,0,0,0,.74,2.39l-10.57,13c-3.77-8.59-7.31-18.49-5.47-22C62.28,62,82.37,60.2,82.75,59.88c.56-.47.3-3.54.3-3.54l9.34,0L76.88,75.43C75,75.64,73.79,75.8,73.73,76Z"/><path class="cls-9" d="M70.52,102.8a8.08,8.08,0,0,1,1.16-.43L72.9,102c.81-.26,1.62-.51,2.44-.74,1.64-.46,3.28-.92,4.94-1.34.86-.22,2.71-.7,2.83-.68a.07.07,0,0,1,0,.12c-1.6.57-3.22,1.06-4.84,1.56s-3.25,1-4.89,1.39L72,102.6a10.4,10.4,0,0,1-1.45.31S70.47,102.83,70.52,102.8Z"/><path class="cls-9" d="M97,59.21c0-.49-.1-1-.16-1.47,0-.05-.1-.05-.09,0a21.23,21.23,0,0,1,0,6,8.55,8.55,0,0,1-2.62,4.75c-2.92,2.72-7,3.53-10.8,4.17q-3.26.56-6.56.87c-1.08.11-2.15.19-3.23.26s-2.14.08-3.21.14c-.34,0-.64.17-.59.56a2.39,2.39,0,0,0,.26.67l.34.78c.43,1,.86,1.94,1.3,2.91q1.33,3,2.72,6Q77.1,90.74,80,96.55L80.78,98s.06,0,0,0C79,94,77.09,90.11,75.27,86.16q-1.36-2.94-2.72-5.88c-.44-1-.89-2-1.33-3l-.67-1.47-.33-.74c-.09-.21-.42-.7-.19-.89s.47-.08.66-.09l.85,0,1.62-.06c1.09-.06,2.18-.13,3.28-.23,2.13-.18,4.26-.45,6.38-.79,3.78-.61,7.88-1.3,10.9-3.83A9.07,9.07,0,0,0,96.62,65,14.9,14.9,0,0,0,97,59.21Z"/><path class="cls-10" d="M34,97.07c.53.53,19.33,9.77,20.25,9.67a34.4,34.4,0,0,0,2.13-4l0,0c.74-1.47,7.43-13.82,7.43-13.82l-11.7-5.92L45.22,95s-3.06-.2-5.79-.24h0a29.92,29.92,0,0,0-3.53,0C34.9,95,33.43,96.54,34,97.07Z"/><path class="cls-2" d="M34,97.07c.53.53,19.33,9.77,20.25,9.67a34.4,34.4,0,0,0,2.13-4l0,0a3,3,0,0,0,.16-.31l.12-.22.18-.33c.51-1,1.34-2.53,2.26-4.24l-11.92-6L45.22,95s-3.06-.2-5.79-.24h0a29.92,29.92,0,0,0-3.53,0C34.9,95,33.42,96.54,34,97.07Z"/><path class="cls-6" d="M33.85,97.1c.55.54,19.4,9.75,20.34,9.64.35,0,2.05-2.8,3.37-6.14L45.4,94.68s-8.56-.18-9.58,0S33.3,96.56,33.85,97.1Z"/><path class="cls-5" d="M34.48,96.48c3.2,1.46,16,7.68,19,9.37,0,0,0,0,0,0-3.2-1.39-15.91-7.7-19-9.34C34.39,96.5,34.42,96.45,34.48,96.48Z"/><path class="cls-5" d="M37.36,94.64a2.84,2.84,0,0,1,1.52,1.69,2.76,2.76,0,0,1-.12,2s0,0,0,0a3.27,3.27,0,0,0-1.38-3.67S37.34,94.63,37.36,94.64Z"/><path class="cls-5" d="M44.25,94.51a4.9,4.9,0,0,1,2.8,3.18c0,.06-.06.07-.09,0a19.86,19.86,0,0,0-2.81-3.06A.09.09,0,0,1,44.25,94.51Z"/><path class="cls-5" d="M43.09,94.42a4.9,4.9,0,0,1,2.8,3.18c0,.05-.07.07-.09,0A19.47,19.47,0,0,0,43,94.56.09.09,0,0,1,43.09,94.42Z"/><path class="cls-5" d="M41.93,94.32a4.9,4.9,0,0,1,2.8,3.18c0,.06-.07.07-.1,0a18.88,18.88,0,0,0-2.8-3.06A.09.09,0,0,1,41.93,94.32Z"/><path class="cls-5" d="M40.77,94.22a4.92,4.92,0,0,1,2.8,3.18c0,.06-.07.07-.1,0a19.41,19.41,0,0,0-2.8-3.07A.09.09,0,0,1,40.77,94.22Z"/><path class="cls-5" d="M54.15,102.45a1.23,1.23,0,0,1-1.08,2.21A1.23,1.23,0,0,1,54.15,102.45Z"/><path class="cls-5" d="M43.73,92.37a12,12,0,0,0,1.62,3.34.16.16,0,0,0,.27,0,0,0,0,0,0,.06,0,7.42,7.42,0,0,0,.43-3.79c-.12-.74-.68-1.66-1.58-1.44S43.58,91.66,43.73,92.37Zm.45-1.07c.8-1.32,1.52.35,1.59.9a7.74,7.74,0,0,1,0,1.08c0,.74-.12,1.48-.2,2.22-.26-.54-.57-1-.85-1.58S43.74,92,44.18,91.3Z"/><path class="cls-5" d="M50.57,97.09c.3-.87-.56-1.51-1.28-1.71a7.38,7.38,0,0,0-3.82.06,0,0,0,0,0,0,.06.16.16,0,0,0,0,.27,12.28,12.28,0,0,0,3.16,1.94C49.28,97.92,50.28,97.92,50.57,97.09Zm-3.41-.57c-.5-.33-1-.68-1.49-1a20.76,20.76,0,0,1,2.23,0,7.87,7.87,0,0,1,1.07.15c.54.12,2.12,1,.74,1.67C48.94,97.73,47.76,96.91,47.16,96.52Z"/><path class="cls-5" d="M45.28,93l14.1,7s11-22.38,12.22-23.82c1.61-1.93,22.58.79,27.53-5.42,5.11-6.42.73-14.4.73-14.4h-16a13.27,13.27,0,0,0,.87,4.36s-18.26-1.08-23.42,3.94C57.38,68.56,45.28,93,45.28,93Z"/><path class="cls-9" d="M87.68,62.38a29.67,29.67,0,0,0-2.54-1.55,10.68,10.68,0,0,0-1.92-.77c-.47-.12-.67-.15-.24,0l1.18.56h-.25l-.94,0c-.62,0-1.23,0-1.84,0-1.25,0-2.48.11-3.73.18,0,0,0,.05,0,.05,1.24,0,2.48,0,3.72,0,.62,0,1.23,0,1.84,0l.9,0c.25,0,.52,0,.77,0l.34.16c.9.43,1.8.87,2.67,1.36C87.68,62.44,87.7,62.4,87.68,62.38Z"/><path class="cls-9" d="M83.52,55.82c.16.75.3,1.51.49,2.26.09.34.17.69.29,1s.25.61.57.68.49-.23.47-.54-.1-.69-.16-1S85.05,57.43,85,57c0-.19-.06-.39-.08-.59s0-.42-.06-.53,0,0,0,0h0l0,0s0,0,0-.06h0c.07,0,.07.14.1.21l.15.57c.09.36.18.73.26,1.09s.16.72.23,1.09a1.67,1.67,0,0,1,0,.83.65.65,0,0,1-.61.46.25.25,0,0,1,0,.07c0,.08.05.16.08.23s0,.16.07.24a.41.41,0,0,1,0,.11.56.56,0,0,1,0,.13.06.06,0,0,1-.12,0,.6.6,0,0,0-.06-.11.61.61,0,0,1,0-.12l-.06-.23a1.89,1.89,0,0,1,0-.23c0-.05,0-.09,0-.14a.83.83,0,0,1-.42-.18,1.42,1.42,0,0,1-.43-.69c-.1-.32-.17-.64-.25-1a14,14,0,0,1-.4-2.42A.07.07,0,0,1,83.52,55.82Z"/><path class="cls-9" d="M91.22,58c0,.37.08.75.15,1.12s.16.72.27,1.08a3.87,3.87,0,0,0,.42,1,3.62,3.62,0,0,0,.7.76,6.18,6.18,0,0,0,1.72,1,8.41,8.41,0,0,0,1,.31,4.36,4.36,0,0,0,.52.11,1.38,1.38,0,0,1,.41.11.09.09,0,0,1,0,.15,1.58,1.58,0,0,1-.78,0,5.71,5.71,0,0,1-.82-.18,6,6,0,0,1-1.55-.71A5.18,5.18,0,0,1,92,61.62a3.76,3.76,0,0,1-.65-1.56,7.81,7.81,0,0,1-.16-2.1A0,0,0,0,1,91.22,58Z"/><path class="cls-9" d="M48.14,90.45a8,8,0,0,1,1.13.48l1.18.54c.76.37,1.52.74,2.27,1.13,1.52.8,3,1.59,4.52,2.42.77.44,2.45,1.36,2.52,1.45s0,.12-.07.1c-1.56-.68-3.07-1.44-4.59-2.2s-3-1.51-4.52-2.34l-1.22-.7a11,11,0,0,1-1.27-.77S48.08,90.43,48.14,90.45Z"/><path class="cls-9" d="M99.85,60.14a.06.06,0,0,0-.11,0c0,3.46-.5,7.34-3.17,9.83-2.93,2.72-7.15,3-10.94,3-2.18,0-4.36-.08-6.54,0s-4.4.18-6.58.46a3.58,3.58,0,0,0-2.23,1.06,11.93,11.93,0,0,0-1.48,2.13q-1.65,2.73-3.19,5.51c-2,3.69-3.93,7.47-5.67,11.31-.21.48-.43,1-.64,1.43,0,0,0,.06.05,0,1.76-3.86,3.67-7.65,5.7-11.38,1-1.86,2.06-3.71,3.14-5.53.51-.86,1-1.74,1.57-2.56a3.9,3.9,0,0,1,2-1.67,8,8,0,0,1,1.62-.24l1.68-.13c1.08-.08,2.17-.14,3.26-.18,2.2-.08,4.39-.06,6.59,0,3.82.07,8-.06,11.15-2.49A8.92,8.92,0,0,0,99,66.6a16.09,16.09,0,0,0,.85-5.16C99.86,61,99.86,60.57,99.85,60.14Z"/><path class="cls-9" d="M77,75.32c-.78,0-1.55,0-2.33.07a9.56,9.56,0,0,0-1.93.17,2.19,2.19,0,0,0-1.54.88c-.61.82-3.88,7.15-5.26,10-.38.77-.76,1.55-1.13,2.34s-.72,1.63-1.1,2.44c0,0,0,.06,0,0,.33-.68.71-1.34,1.06-2s.68-1.35,1-2l2-4.1c.69-1.36,1.51-2.67,2.2-4,.59-1.13,1.38-2.68,1.93-2.91a8.75,8.75,0,0,1,2.41-.58L77,75.38A0,0,0,0,0,77,75.32Z"/><path class="cls-5" d="M94.16,34.76c.73,2.89,2.1,6.24,1.43,9.26a9.89,9.89,0,0,1-4.19,5.62c-4.23,3-10.68,4.62-14.89.67-1.68-1.58-2.69-5.37-.82-7.22a12.58,12.58,0,0,1,3.43-2,5.45,5.45,0,0,0,3-3.65c.87-3.3.12-5.43-.26-8.73a2.34,2.34,0,0,1,.44-1.86A4.23,4.23,0,0,1,84,25.4a4.17,4.17,0,0,1,1.9-.73c1.46-.14,3.11.9,4.39,1.5a3.87,3.87,0,0,1,2.37,2.76C93.2,30.86,93.67,32.81,94.16,34.76Z"/><path class="cls-5" d="M94.8,36.06c-.84-2.61-1.73-5.2-2.61-7.8,0,0,0,0,0,0,.66,2.16,1.29,4.32,2,6.47s1.51,4.23,2,6.39c1.09,4.84-3.5,7.85-7.69,8.46-.19,0-.12.33.07.3,3.66-.66,7.74-2.79,8-7C96.7,40.63,95.49,38.19,94.8,36.06Z"/><path class="cls-5" d="M82.06,28.42a0,0,0,0,0-.08,0c.42,2.7,1.18,5.81.13,8.46a6.88,6.88,0,0,1-2.57,3.19,16.9,16.9,0,0,1-3,1.3c-3.94,1.65-2.84,7.2.59,8.75.07,0,.13-.09.06-.12a5.11,5.11,0,0,1-2.51-6.73c1-2.08,3.76-2,5.44-3.41C83.6,37.08,82.94,32.29,82.06,28.42Z"/><path class="cls-10" d="M89.33,39.35c-1.81,3.91-8,13-11,13.39-2.64.37-9.16-1.15-11.36-2.36-1-.55,1.53-8,3.23-7.68,2.12.44,5,1.49,7,1.61.7,0,4-2.35,9.94-6.23C89.32,36.63,90.35,37.14,89.33,39.35Z"/><path class="cls-10" d="M66.82,43.63s-5.25-.81-5.52-.76-.21.44-.18.74a3.24,3.24,0,0,0,.23.5c.4.78,1.06,2.17,0,2.49C60,47,58.46,43.89,58.3,43.37a1.73,1.73,0,0,1,0-.73,3.29,3.29,0,0,1,1.8-2.42A12.26,12.26,0,0,1,64.49,40Z"/><path class="cls-5" d="M66.82,43.63s-5.25-.81-5.52-.76-.21.44-.18.74a3.24,3.24,0,0,0,.23.5l-3-1.47a3.29,3.29,0,0,1,1.8-2.42A12.26,12.26,0,0,1,64.49,40Z"/><path class="cls-10" d="M67,50.38c-.27-.14-1.68-.56-3.59-1.22-.51-1.47-1.87-4.29-2.23-5a10.08,10.08,0,0,0-1.4-2.64c-.16.08-.7.34-1.39.61a7.78,7.78,0,0,1-2.9.66,1,1,0,0,1-1-.52c-.3-.61,1-1.31,2.48-2.28,2-1.33,4.55-2.85,5.79-2.48,1.83.54,3.64,2.78,4.26,3.39a20.72,20.72,0,0,0,3.17,1.83C69.71,45.45,67.37,50.58,67,50.38Z"/><path class="cls-5" d="M61,43.57s0,0,0,0,.28.79.14.86-1.71-.67-2.39-.9c0,0,0,0,0,0a10,10,0,0,1,1,.47c.31.15,1.22.69,1.53.54S61.06,43.71,61,43.57Z"/><path class="cls-5" d="M53.78,47.1c-.18.17-.38.32-.47.23h0c-.08-.09.07-.28.25-.46Z"/><path class="cls-7" d="M55.88,46.85a6.2,6.2,0,0,1-2.16.3.25.25,0,0,1-.22-.22,6.23,6.23,0,0,1,.36-2.15c.13-.13.73-.44,1.31-.8.76-.47,8.94-8,9.08-8.09s.37.17.5.29.32.38.28.51-7.83,8.12-8.32,8.87C56.33,46.13,56,46.72,55.88,46.85Z"/><path class="cls-8" d="M55.88,46.85l-.07,0a7,7,0,0,1-1.24-1,4.84,4.84,0,0,1-.77-1,.29.29,0,0,1,.06-.1L54,44.7a5.36,5.36,0,0,0,2,2Z"/><rect class="cls-5" x="56.76" y="41.86" width="0.6" height="3.64" rx="0.3" ry="0.3" transform="translate(48.52 -27.67) rotate(45.74)"/><rect class="cls-8" x="56.52" y="42.88" width="0.35" height="2.31" rx="0.17" ry="0.17" transform="translate(48.64 -27.3) rotate(45.73)"/><rect class="cls-5" x="56.4" y="44.1" width="0.1" height="0.35" transform="translate(-14.88 51.96) rotate(-44.26)"/><path class="cls-10" d="M63.41,49.16c-.65-.22-1.23-.42-1.63-.54a4.9,4.9,0,0,1-2.93-2.16c-.63-.92-3.83-1.91-2.27-2.88s4.35,1.4,4.62,1a.64.64,0,0,0,0-.45C61.54,44.87,62.9,47.69,63.41,49.16Z"/><path class="cls-6" d="M80.35,41.71l6.49,2.59a52.58,52.58,0,0,0,3-4.59c1.21-2.3.64-3.28-2.33-2.13A65.1,65.1,0,0,0,80.35,41.71Z"/><path class="cls-5" d="M86,44a8.32,8.32,0,0,1,.8.29c.23-.34.46-.69.69-1l.37-.51.4-.56s0,0,0,0c-.13.22-.24.39-.36.58a5.54,5.54,0,0,1-.33.51c-.24.36-.48.75-.74,1.1,0,0-.8-.36-.87-.4S86,44,86,44Z"/><path class="cls-5" d="M81.26,41.35c1,.32,1.93.64,2.88,1l1.41.58c.47.19.92.44,1.39.63,0,0,0,0,0,0-.46-.21-1-.37-1.42-.56l-1.42-.56c-.94-.37-1.89-.75-2.84-1.1C81.21,41.38,81.23,41.35,81.26,41.35Z"/><path class="cls-6" d="M82.52,57.16l18.41,1.48s-4.71-16.06-8.51-20.12C90.7,36.67,89,37,87.58,38.14c-.36.3-4.79,5.92-5.16,7.88a5.61,5.61,0,0,0,1.07,3.65Z"/><path class="cls-5" d="M85.24,41.12c-.55.89-1.15,1.74-1.71,2.62a12.11,12.11,0,0,0-.78,1.35,3.33,3.33,0,0,0-.38,1.49,2.62,2.62,0,0,1,0-.79,3.53,3.53,0,0,1,.24-.76,10.22,10.22,0,0,1,.75-1.38c.27-.4.54-.8.82-1.19.05-.13.1-.27.16-.4a3.77,3.77,0,0,1,.28-.57,4.76,4.76,0,0,1-.21.6.77.77,0,0,0-.07.16C84.65,41.87,84.94,41.49,85.24,41.12Z"/><path class="cls-2" d="M97.27,47.88a12.78,12.78,0,0,1-2.25.71,2.57,2.57,0,0,1-.68,0,1.06,1.06,0,0,1-.63-.27,2.19,2.19,0,0,1-.53-1.25,14.57,14.57,0,0,1-.13-1.6s0-.06,0-.08c0-.35,0-.7-.07-1A6.76,6.76,0,0,0,92.73,43a3.28,3.28,0,0,0-.61-1.19A2.45,2.45,0,0,0,91,41.07a3.5,3.5,0,0,0-1.33-.16,10.55,10.55,0,0,0-1.85.25h-.07l-.76.16c-.74.15-1.47.31-2.21.4l0-.07c.72-.08,1.44-.24,2.15-.39l.8-.17h.06a10.44,10.44,0,0,1,1.84-.25,3.71,3.71,0,0,1,1.36.16,2.67,2.67,0,0,1,1.11.79A3.36,3.36,0,0,1,92.8,43,7,7,0,0,1,93,44.36c0,.33,0,.65.07,1v.08c0,.56,0,1.11.13,1.65a2.13,2.13,0,0,0,.51,1.22,1.44,1.44,0,0,0,1.26.24,12.64,12.64,0,0,0,2.24-.7ZM86.35,55.74a2.19,2.19,0,0,0-1.19-.65,1.12,1.12,0,0,0-.67.17,2.48,2.48,0,0,0-.52.45,10.11,10.11,0,0,0-1,1.48H83a10.4,10.4,0,0,1,1-1.44,1.47,1.47,0,0,1,1.14-.6,2.16,2.16,0,0,1,1.16.64c.59.55,1.1,1.2,1.65,1.8h.11C87.49,57,87,56.32,86.35,55.74Zm12.83-2.56H99a4.43,4.43,0,0,0-2.4,1.22,17.56,17.56,0,0,0-1.84,2c-.46.55-.9,1.1-1.41,1.6h.09c.49-.5.92-1,1.37-1.57a17.38,17.38,0,0,1,1.82-2A4.34,4.34,0,0,1,99,53.24h.21S99.19,53.2,99.18,53.18Zm-3.59-9.31a4.55,4.55,0,0,0-2.26,1.26l-.22.21-.07.07a23.14,23.14,0,0,0-1.5,1.78c-.44.55-.88,1.11-1.37,1.62l-.06.06c-.11.12-.24.24-.37.36a4,4,0,0,1-1.13.72,2.47,2.47,0,0,1-1.32.1,3.46,3.46,0,0,1-1.23-.53,7.86,7.86,0,0,1-1-.87c-.65-.64-1.21-1.36-1.89-2a3.11,3.11,0,0,0-.74-.5v.06a2.78,2.78,0,0,1,.71.48c.67.61,1.24,1.33,1.88,2a8,8,0,0,0,1,.88,3.22,3.22,0,0,0,1.26.54,2.63,2.63,0,0,0,1.36-.1,4,4,0,0,0,1.15-.74c.14-.13.28-.26.41-.4l0-.06a20.63,20.63,0,0,0,1.34-1.6,19.94,19.94,0,0,1,1.46-1.73l.06-.07.26-.25a4.41,4.41,0,0,1,2.23-1.25S95.59,43.89,95.59,43.87Zm-2,6a2.1,2.1,0,0,0-1.18-.67c-.72-.2-1.46-.28-2.2-.42h-.08l-.4-.08a8,8,0,0,1-1.29-.39,3.42,3.42,0,0,1-1.12-.74,2.51,2.51,0,0,1-.64-1.16,3.6,3.6,0,0,1,0-1.35,16,16,0,0,1,.72-2.61c.15-.44.29-.88.43-1.32v-.07a9,9,0,0,0,.3-1.24,4.89,4.89,0,0,0,0-2.12l-.05,0a4.86,4.86,0,0,1,0,2.08,12.87,12.87,0,0,1-.31,1.26.64.64,0,0,0,0,.07q-.2.64-.42,1.29a17,17,0,0,0-.73,2.62,3.71,3.71,0,0,0,0,1.37,2.54,2.54,0,0,0,.66,1.2,3.33,3.33,0,0,0,1.14.75,6.59,6.59,0,0,0,1.31.39l.35.08h.09c.75.14,1.5.22,2.24.42a2.2,2.2,0,0,1,1.15.64,1.46,1.46,0,0,1,.09,1.29,15.22,15.22,0,0,1-1.12,2.47,17.33,17.33,0,0,0-1.11,2.49,4.44,4.44,0,0,0-.22,1.35,1.75,1.75,0,0,0,0,.32h0a1.86,1.86,0,0,1,0-.33,4.31,4.31,0,0,1,.22-1.33,16.79,16.79,0,0,1,1.12-2.48,15,15,0,0,0,1.12-2.49,2.2,2.2,0,0,0,.11-.68A1,1,0,0,0,93.63,49.91Z"/><path class="cls-5" d="M88.44,49.28a14,14,0,0,0-2.14.22c-.35.07-.69.15-1,.24l-.52.13a2.59,2.59,0,0,1-.55.07s0,0,0,0a3.13,3.13,0,0,0,.53,0,3,3,0,0,0,.5-.06l1.06-.22c.71-.14,1.43-.28,2.15-.36C88.47,49.33,88.47,49.28,88.44,49.28Z"/><path class="cls-5" d="M90.16,50a17.52,17.52,0,0,0-1.76-.19h-.89l-.42,0-.46,0s0,0,0,0l.44,0,.44,0,.88,0c.59,0,1.18,0,1.76.07C90.19,50.06,90.19,50,90.16,50Z"/><path class="cls-10" d="M90,37.68c0,.33-.87,2.79-2.31,3.14-.47.12-1.21-2.42-1.21-2.42l-.1-.18L85,35.78l2.5-2.89.37-.39.72,1.56.06.12.07.14.18.4.14.3c0,.11.09.22.13.32A18.13,18.13,0,0,1,90,37.68Z"/><path class="cls-5" d="M88.62,34.06a5.59,5.59,0,0,1-2.23,4.16L85,35.78l2.5-2.89.37-.39Z"/><path class="cls-10" d="M80.43,32.08c.16,4.91,3.12,5.37,4.18,5.33s4.23-.26,4.58-5.16-2-6.39-4.19-6.43S80.27,27.16,80.43,32.08Z"/><path class="cls-5" d="M81.1,31.21l.33-.09a.55.55,0,0,0,.31-.16.17.17,0,0,0,0-.21.44.44,0,0,0-.43-.08.64.64,0,0,0-.39.25C80.81,31.05,81,31.23,81.1,31.21Z"/><path class="cls-5" d="M84.46,31,84.13,31a.53.53,0,0,1-.33-.12.17.17,0,0,1,0-.21.46.46,0,0,1,.43-.13.68.68,0,0,1,.41.21A.18.18,0,0,1,84.46,31Z"/><path class="cls-5" d="M83.75,32.26s0,0,0,0c0,.33,0,.72.36.82,0,0,0,0,0,0C83.77,33.09,83.7,32.58,83.75,32.26Z"/><path class="cls-5" d="M84,31.9c.54-.06.61,1,.11,1.07S83.59,32,84,31.9Z"/><path class="cls-5" d="M84.25,31.94c.1.06.2.16.32.16s.22-.11.3-.23,0,0,0,0c0,.21,0,.43-.27.47s-.36-.13-.42-.33C84.19,32,84.21,31.92,84.25,31.94Z"/><path class="cls-5" d="M81.89,32.32l0,0c0,.33,0,.72-.27.85,0,0,0,0,0,0C82,33.14,82,32.63,81.89,32.32Z"/><path class="cls-5" d="M81.56,32c-.54,0-.49,1.08,0,1.08S82,32,81.56,32Z"/><path class="cls-5" d="M81.34,32.07c-.08.06-.16.17-.26.18s-.21-.1-.29-.21,0,0,0,0c0,.21.08.42.28.45s.31-.15.35-.36C81.41,32.11,81.38,32.05,81.34,32.07Z"/><path class="cls-5" d="M84,35c-.07.08-.14.2-.26.22a.74.74,0,0,1-.36,0,0,0,0,0,0,0,0,.45.45,0,0,0,.45.13c.15,0,.2-.18.23-.32A0,0,0,0,0,84,35Z"/><path class="cls-5" d="M82.66,34.53a1.36,1.36,0,0,0,.54.42.59.59,0,0,0,.37,0c.27-.07.28-.32.23-.53a1.46,1.46,0,0,0-.12-.33A1.75,1.75,0,0,1,82.66,34.53Z"/><path class="cls-11" d="M83.2,35a.59.59,0,0,0,.37,0c.27-.07.28-.32.23-.53A.63.63,0,0,0,83.2,35Z"/><path class="cls-5" d="M82.51,33.87a6.5,6.5,0,0,0,0,.74s.06,0,.14,0h0a1.12,1.12,0,0,0,1.06-.48s0,0,0,0a1.73,1.73,0,0,1-1,.35c0-.07.09-.86.06-.86a2.37,2.37,0,0,0-.53.15c0-1.05.27-2.08.31-3.13a0,0,0,0,0-.06,0A16.7,16.7,0,0,0,82,34C82,34.12,82.42,33.92,82.51,33.87Z"/><path class="cls-5" d="M88.84,32.64c-.53,0-1.92-1.51-2-4.09a19.26,19.26,0,0,0,.36,2.65,4.65,4.65,0,0,1-.83-2.91,8.44,8.44,0,0,1-2.14,1.1,3.32,3.32,0,0,1-1.66.19c-.07-.07,1.38-.52,1.78-1a17.29,17.29,0,0,1-3.83,1.29,4.32,4.32,0,0,1,1.57-4.07c1.87-1.2,4.82.12,5.61.89a3.42,3.42,0,0,1,1.94,1.52C90.7,29.62,89.42,32.67,88.84,32.64Z"/><path class="cls-6" d="M84.4,33.86A1.55,1.55,0,0,1,83,32.19h0a1.54,1.54,0,1,1,1.79,1.65A1.59,1.59,0,0,1,84.4,33.86Zm-1.21-1.65A1.34,1.34,0,1,0,84.64,31a1.28,1.28,0,0,0-.34,0A1.36,1.36,0,0,0,83.19,32.21Z"/><path class="cls-6" d="M81.14,34c-.63,0-1.18-.64-1.22-1.49a1.89,1.89,0,0,1,.27-1.09,1,1,0,0,1,1.65-.08,1.85,1.85,0,0,1,.37,1.06,1.42,1.42,0,0,1-1,1.58Zm-.77-2.47a1.56,1.56,0,0,0-.24,1c0,.74.48,1.31,1,1.29s.91-.65.88-1.38a1.69,1.69,0,0,0-.33-.94.83.83,0,0,0-.68-.35h-.08A.79.79,0,0,0,80.37,31.54Z"/><path class="cls-6" d="M83.05,32.37l.12-.17a.84.84,0,0,0-1.15,0l.16.13C82.5,32,83,32.35,83.05,32.37Z"/><path class="cls-6" d="M89.93,32.43l.18-.11c0-.08-.48-.81-1-.86s-3.18.34-3.3.36l0,.2c.79-.11,2.92-.4,3.25-.36S89.82,32.23,89.93,32.43Z"/><path class="cls-10" d="M89.26,34.06a1.19,1.19,0,0,1-.22.08.71.71,0,0,1-.52,0,.76.76,0,0,1-.2-.12.92.92,0,0,1-.22-.25l.11-1.34s.89-1.65,1.62-1.35S90,33.66,89.26,34.06Z"/><path class="cls-5" d="M89.67,31.71s0,0,0,0a2.11,2.11,0,0,0-.92,1.44.46.46,0,0,1,.67-.21s0,0,0,0a.5.5,0,0,0-.53.25,2.62,2.62,0,0,0-.22.48.05.05,0,0,1-.1,0h0A1.86,1.86,0,0,1,89.67,31.71Z"/><path class="cls-2" d="M89.17,33.86a.23.23,0,0,1-.25.21.23.23,0,1,1,0-.46A.24.24,0,0,1,89.17,33.86Z"/><path class="cls-2" d="M89.59,33.46a.16.16,0,1,1-.32,0,.16.16,0,0,1,.17-.15A.16.16,0,0,1,89.59,33.46Z"/><path class="cls-10" d="M93.27,39.4c3.35,5.19,7.75,13.87,5.36,15.53-3.95,2.74-14.9,3.61-17.4,3.71-1.08,0-2.66-7.12-1.87-8s12.26-.56,12.4-1.26c.08-.39-.58-3.88-1.35-8.21C89.52,36.2,92.31,37.92,93.27,39.4Z"/><path class="cls-10" d="M81.28,50.25S78,50,75.85,49.87a13,13,0,0,0-4.16.42c-1.35.54-6.62,3.7-5.88,5s4.85-2.11,4.85-2.11-4.51,2.94-3.45,4.2S72.5,54.3,72.5,54.3s-4.57,3.12-3.26,4.25c1,.85,5-2.86,5-2.86s-3.91,2.71-2.94,3.64,5-2.18,5-2.18a7.59,7.59,0,0,0,6.54,1.3C83.28,58.36,81.28,50.25,81.28,50.25Z"/><path class="cls-5" d="M72.16,52.05c-.55.33-1.1.65-1.61,1s-1,.76-1.49,1.18a11.17,11.17,0,0,0-1.69,1.81,22.25,22.25,0,0,1,3.29-2.85c.51-.38,1-.78,1.51-1.15C72.18,52.06,72.17,52,72.16,52.05Z"/><path class="cls-5" d="M73.54,53.88c-.68.44-1.36.86-2,1.34s-1.23,1-1.85,1.5c0,0,0,.05,0,0,.64-.49,1.27-.9,1.91-1.38s1.27-1,1.93-1.46C73.56,53.88,73.55,53.87,73.54,53.88Z"/><path class="cls-5" d="M75,55.23a17.51,17.51,0,0,0-2.93,2.29s0,0,0,0c1-.78,1.71-1.4,2.9-2.26C75.05,55.25,75,55.21,75,55.23Z"/><path class="cls-5" d="M81.9,50.14c-.76-.07-1.59,0-2.37-.06s-1.32-.12-2-.16a24.22,24.22,0,0,0-4.74,0,12.65,12.65,0,0,0-2.89,1.28s0,.06,0,0a16.61,16.61,0,0,1,3.25-1.19,46.49,46.49,0,0,1,6.24.15c.8,0,1.67,0,2.47,0A0,0,0,1,0,81.9,50.14Z"/><path class="cls-6" d="M97.55,46l-7-.6A52.8,52.8,0,0,1,90,40c0-2.6.91-3.22,3-.86A64.8,64.8,0,0,1,97.55,46Z"/><path class="cls-5" d="M91.44,45.46c-.07,0-.79-.1-.84-.09,0-.41-.1-.82-.16-1.23,0-.21-.06-.41-.1-.61s-.07-.48-.1-.68c0,0,0,0,0,0,0,.26,0,.46.06.69s0,.4.07.6c.05.43.09.89.16,1.31a7.16,7.16,0,0,0,1,0S91.45,45.47,91.44,45.46Z"/><path class="cls-5" d="M96.9,45.27c-1-.16-2-.3-3-.4-.5,0-1-.09-1.52-.12s-1,0-1.52-.06a0,0,0,1,0,0,0c.5,0,1,.1,1.52.14l1.52.14c1,.09,2,.18,3,.3A0,0,0,1,0,96.9,45.27Z"/><rect class="cls-7" x="13.07" y="57.77" width="101.4" height="3.61"/><rect class="cls-9" x="16.7" y="61.37" width="94.15" height="3.61"/><polygon class="cls-9" points="16.71 115.58 15.25 115.58 19.49 64.98 23.21 64.98 16.71 115.58"/><polygon class="cls-5" points="23.21 64.98 22.78 68.36 19.21 68.36 19.49 64.98 23.21 64.98"/><polygon class="cls-9" points="110.84 115.58 112.3 115.58 108.05 64.98 104.33 64.98 110.84 115.58"/><polygon class="cls-5" points="104.33 64.98 104.77 68.36 108.34 68.36 108.05 64.98 104.33 64.98"/><polygon class="cls-5" points="38.57 57.77 59.49 57.77 54.41 43.81 33.49 43.81 38.57 57.77"/><polygon class="cls-7" points="37.83 57.77 58.75 57.77 53.67 43.81 32.75 43.81 37.83 57.77"/><polygon class="cls-5" points="32.75 43.81 37.83 57.77 46.29 57.77 34.71 43.81 32.75 43.81"/><polygon class="cls-9" points="34.1 57.77 36.65 57.77 38.94 53.81 36.39 53.81 34.1 57.77"/><polygon class="cls-7" points="38.94 53.81 38.94 57.77 36.65 57.77 38.94 53.81"/><polygon class="cls-9" points="48.38 57.77 50.93 57.77 53.22 53.81 50.67 53.81 48.38 57.77"/><polygon class="cls-5" points="53.22 53.81 53.22 57.77 50.93 57.77 53.22 53.81"/><rect class="cls-4" x="68.11" y="57.01" width="16.91" height="0.76"/><rect class="cls-8" x="68.11" y="57.01" width="8.51" height="0.76"/><polygon class="cls-4" points="75.7 57.77 59.23 57.77 57.07 46.58 73.55 46.58 75.7 57.77"/><path class="cls-8" d="M67.39,52.17a.9.9,0,0,1-.91,1,1.11,1.11,0,0,1-1.09-1,.9.9,0,0,1,.91-1A1.11,1.11,0,0,1,67.39,52.17Z"/><polygon class="cls-5" points="25.53 55.91 24.98 55.84 27.77 34.62 37.9 29.07 38.16 29.55 28.28 34.97 25.53 55.91"/><path class="cls-6" d="M27.26,34.8A.77.77,0,1,0,28,34,.77.77,0,0,0,27.26,34.8Z"/><path class="cls-6" d="M37.15,29.31a.78.78,0,1,0,.77-.77A.78.78,0,0,0,37.15,29.31Z"/><polygon class="cls-6" points="43.1 30.01 39.48 34.05 37.81 31.99 36.79 30.73 39.51 27.7 40.87 28.58 43.1 30.01"/><polygon class="cls-12" points="43.1 30.01 39.48 34.05 37.81 31.99 40.87 28.58 43.1 30.01"/><polygon class="cls-6" points="48.36 32.01 42.04 39.06 37.84 33.7 42.58 28.42 48.36 32.01"/><polygon class="cls-6" points="30.22 57.77 20.87 57.77 21.44 54.83 29.64 54.83 30.22 57.77"/><path class="cls-1" d="M81.73,4.83l-9.67,9.59A1.68,1.68,0,0,1,69.7,12l9.66-9.59Z"/><polygon class="cls-4" points="81.73 4.83 78.98 7.56 77.15 4.64 79.36 2.45 81.73 4.83"/><path class="cls-1" d="M69.06,15h0a.43.43,0,0,1,0-.6l2.18-2.17.6.6L69.66,15A.42.42,0,0,1,69.06,15Z"/><path class="cls-1" d="M71.85,12.87,69.66,15a.41.41,0,0,1-.59,0,.42.42,0,0,1,0-.6l.37-.37,1.81-1.8Z"/><rect class="cls-6" x="77.32" y="3.18" width="5.02" height="2.37" transform="translate(26.67 -55.36) rotate(45.2)"/><path class="cls-6" d="M80.89,5.65,78.53,3.28l2-2a1.67,1.67,0,0,1,2.37,0h0a1.67,1.67,0,0,1,0,2.37Z"/><path class="cls-6" d="M75.66,10.86l-3.59,3.56a1.67,1.67,0,0,1-2,.25l-.38.37a.41.41,0,0,1-.59,0,.42.42,0,0,1,0-.6l.37-.37a1.67,1.67,0,0,1,.26-2l1.21-1.2Z"/><rect class="cls-1" x="13.65" y="36.88" width="5.32" height="18.72" transform="translate(62.54 29.93) rotate(90)"/><rect class="cls-6" x="21.78" y="44.94" width="4" height="2.59" transform="translate(70.01 22.46) rotate(90)"/><rect class="cls-13" x="18.64" y="44.94" width="4" height="2.59" transform="translate(66.87 25.6) rotate(90)"/><rect class="cls-14" x="15.5" y="44.94" width="4" height="2.59" transform="translate(63.74 28.74) rotate(90)"/><rect class="cls-15" x="12.36" y="44.94" width="4" height="2.59" transform="translate(60.6 31.88) rotate(90)"/><rect class="cls-16" x="9.23" y="44.94" width="4" height="2.59" transform="translate(57.46 35.01) rotate(90)"/><g class="cls-17"><rect x="21.78" y="44.94" width="4" height="2.59" transform="translate(70.01 22.46) rotate(90)"/><rect class="cls-18" x="18.64" y="44.94" width="4" height="2.59" transform="translate(66.87 25.6) rotate(90)"/><rect class="cls-19" x="15.5" y="44.94" width="4" height="2.59" transform="translate(63.74 28.74) rotate(90)"/><rect class="cls-20" x="12.36" y="44.94" width="4" height="2.59" transform="translate(60.6 31.88) rotate(90)"/><rect class="cls-17" x="9.23" y="44.94" width="4" height="2.59" transform="translate(57.46 35.01) rotate(90)"/></g><path class="cls-5" d="M8.22,46.57a.34.34,0,1,1,.33-.33A.34.34,0,0,1,8.22,46.57Z"/><rect class="cls-1" x="11.28" y="31.16" width="5.32" height="18.72" transform="translate(32.73 2.01) rotate(45)"/><rect class="cls-6" x="17.22" y="33.94" width="4" height="2.59" transform="translate(30.54 -3.27) rotate(45)"/><rect class="cls-13" x="15" y="36.16" width="4" height="2.59" transform="translate(31.46 -1.05) rotate(45)"/><rect class="cls-14" x="12.78" y="38.38" width="4" height="2.59" transform="translate(32.38 1.17) rotate(45)"/><rect class="cls-15" x="10.56" y="40.6" width="4" height="2.59" transform="translate(33.3 3.39) rotate(45)"/><rect class="cls-16" x="8.35" y="42.82" width="4" height="2.59" transform="translate(34.22 5.61) rotate(45)"/><g class="cls-12"><rect x="17.22" y="33.94" width="4" height="2.59" transform="translate(30.54 -3.27) rotate(45)"/><rect class="cls-18" x="15" y="36.16" width="4" height="2.59" transform="translate(31.46 -1.05) rotate(45)"/><rect class="cls-19" x="12.78" y="38.38" width="4" height="2.59" transform="translate(32.38 1.17) rotate(45)"/><rect class="cls-20" x="10.56" y="40.6" width="4" height="2.59" transform="translate(33.3 3.39) rotate(45)"/><rect class="cls-17" x="8.35" y="42.82" width="4" height="2.59" transform="translate(34.22 5.61) rotate(45)"/></g><path class="cls-5" d="M8.46,46.48a.34.34,0,1,1,0-.48A.34.34,0,0,1,8.46,46.48Z"/><rect class="cls-1" x="5.56" y="28.79" width="5.32" height="18.72"/><rect class="cls-6" x="6.22" y="29.38" width="4" height="2.59"/><rect class="cls-13" x="6.22" y="32.52" width="4" height="2.59"/><rect class="cls-14" x="6.22" y="35.66" width="4" height="2.59"/><rect class="cls-15" x="6.22" y="38.8" width="4" height="2.59"/><rect class="cls-16" x="6.22" y="41.94" width="4" height="2.59"/><path class="cls-5" d="M8.76,46.24a.55.55,0,1,1-.54-.55A.54.54,0,0,1,8.76,46.24Z"/><polygon class="cls-3" points="122.11 50.6 109.51 50.6 109.51 34.43 118.86 34.43 122.11 37.51 122.11 50.6"/><rect class="cls-1" x="109.51" y="45.86" width="12.6" height="4.73"/><polygon class="cls-6" points="109.51 45.87 113.5 42.05 117.11 45.87 109.51 45.87"/><polygon class="cls-6" points="114.63 45.87 119.36 39.88 122.11 43.36 122.11 45.87 114.63 45.87"/><path class="cls-2" d="M113.64,39.53a1.42,1.42,0,1,1-1.42-1.41A1.42,1.42,0,0,1,113.64,39.53Z"/><polygon class="cls-1" points="118.86 34.43 122.11 37.51 118.86 37.51 118.86 34.43"/><path class="cls-8" d="M112.44,48.76a.07.07,0,0,1,.1.05.67.67,0,0,0,.65.47.68.68,0,0,0,.69-.68V47a.09.09,0,0,1,.08-.09.09.09,0,0,1,.09.09V48.6a.85.85,0,0,1-.86.86.86.86,0,0,1-.81-.59A.08.08,0,0,1,112.44,48.76Z"/><path class="cls-8" d="M114.73,47a.09.09,0,0,1,.09-.09h.72a.72.72,0,0,1,0,1.44h-.63v1a.09.09,0,1,1-.18,0Zm.81,1.18a.55.55,0,0,0,0-1.09h-.63V48.2Z"/><path class="cls-8" d="M118,48.32a.08.08,0,0,1-.09-.08.09.09,0,0,1,.09-.09h.79a.08.08,0,0,1,.08.09v.88a.07.07,0,0,1,0,.06,1.31,1.31,0,0,1-.82.28,1.28,1.28,0,1,1,.82-2.28s0,.09,0,.12a.08.08,0,0,1-.12,0,1.15,1.15,0,0,0-.71-.25,1.11,1.11,0,1,0,0,2.21,1.18,1.18,0,0,0,.67-.21v-.75Z"/></g></g></svg>