<svg xmlns="http://www.w3.org/2000/svg" viewBox="0 0 115.71 127.09"><defs><style>.cls-1{fill:#5793ce;}.cls-2{fill:#396caa;}.cls-3,.cls-8{fill:#d4ecff;}.cls-4{fill:#b2d3ea;}.cls-5{fill:#fafdff;}.cls-6{fill:#173d7a;}.cls-7{fill:#fff;}.cls-8{opacity:0.4;}.cls-9{fill:#274f89;}</style></defs><title>hoisting</title><g id="Layer_2" data-name="Layer 2"><g id="Layer_1-2" data-name="Layer 1"><path class="cls-1" d="M8.46,95.72a.35.35,0,0,1-.17,0L.47,91.61A.86.86,0,0,1,0,90.85a.86.86,0,0,1,.46-.78l7.75-4.25a.15.15,0,0,0,.08-.13.14.14,0,0,0-.07-.13L.55,81.29a.84.84,0,0,1-.45-.75.87.87,0,0,1,.42-.77l10.79-6.48a2.63,2.63,0,0,1,2.63,0l6,3.4a.36.36,0,0,1,.13.49.35.35,0,0,1-.49.14l-6-3.4a1.92,1.92,0,0,0-1.91,0L.9,80.39a.15.15,0,0,0-.08.14.15.15,0,0,0,.08.13l7.67,4.26a.88.88,0,0,1,.45.77.89.89,0,0,1-.46.77L.8,90.7a.15.15,0,0,0-.08.14A.16.16,0,0,0,.81,91L8.63,95a.36.36,0,0,1,.15.48A.35.35,0,0,1,8.46,95.72Z"/><rect class="cls-1" x="7.02" y="93.26" width="1.94" height="4.19" transform="translate(94.69 135.86) rotate(119.83)"/><path class="cls-1" d="M5.49,94.71a1.52,1.52,0,0,1,.68-1.19c.38-.22.69,0,.69.4a1.55,1.55,0,0,1-.68,1.19C5.8,95.33,5.49,95.15,5.49,94.71Z"/><rect class="cls-1" x="10.45" y="94.38" width="3.15" height="6.57" transform="translate(102.73 135.82) rotate(119.83)"/><path class="cls-2" d="M9.69,95.21l-1.23-.7a2.46,2.46,0,0,0-1,1.68l1.23.71A2.48,2.48,0,0,0,9.69,95.21Z"/><path class="cls-1" d="M8.06,96.68a2.48,2.48,0,0,1,1.11-1.93c.61-.36,1.11-.07,1.11.64a2.44,2.44,0,0,1-1.1,1.93C8.56,97.68,8.06,97.39,8.06,96.68Z"/><ellipse class="cls-3" cx="6.96" cy="94.08" rx="0.46" ry="0.26" transform="matrix(1, 0, 0, 1, -0.28, 0.02)"/><path class="cls-4" d="M33,69.36,13.85,58.42c-.7-.4-.61-1.11.2-1.58l11-6.37a3.06,3.06,0,0,1,2.74-.12L47,61.3c.71.4.62,1.11-.19,1.58l-11,6.37A3,3,0,0,1,33,69.36Z"/><path class="cls-2" d="M48.73,57.61h0V12.82L30.92,8.16l-3.28-1.9a3.29,3.29,0,0,0-2.94.12L21.64,8.15h-9.5L15,51.39a.87.87,0,0,0,.51.79L33.23,65.59a3.26,3.26,0,0,0,2.94-.13L48,58.63A1.2,1.2,0,0,0,48.73,57.61Z"/><path class="cls-3" d="M26.27,6a3.33,3.33,0,0,0-1.57.41L21.64,8.15h-9.5V53.06a.85.85,0,0,0,.51.79L33.23,65.59a2.76,2.76,0,0,0,1.36.29l.21-45.2Z"/><path class="cls-1" d="M33.42,65.68a3.34,3.34,0,0,0,2.35,0V20.15H33.42Z"/><path class="cls-3" d="M33.23,20.69,12.65,9c-.76-.44-.66-1.2.21-1.7L24.7.42A3.26,3.26,0,0,1,27.64.29L48.22,12c.75.44.66,1.19-.21,1.7L36.17,20.56A3.26,3.26,0,0,1,33.23,20.69Z"/><path class="cls-5" d="M48,12.89,36.17,19.73a3.26,3.26,0,0,1-2.94.12L12.65,8.12a1.06,1.06,0,0,1-.38-.34A.79.79,0,0,0,12.65,9L33.23,20.69a3.26,3.26,0,0,0,2.94-.13L48,13.73c.68-.39.88-.94.59-1.37A1.63,1.63,0,0,1,48,12.89Z"/><path class="cls-6" d="M33.81,15.93,20.11,8c-.35-.2-.31-.55.1-.79L25.75,4a1.54,1.54,0,0,1,1.37-.06l13.71,8c.35.2.3.56-.1.79l-5.54,3.2A1.53,1.53,0,0,1,33.81,15.93Z"/><path class="cls-3" d="M26.41,8.34l-.79-.46c-.05,0,0-.07,0-.11l.77-.44a.21.21,0,0,1,.19,0l.79.46c.05,0,.05.08,0,.11l-.77.44A.19.19,0,0,1,26.41,8.34Z"/><path class="cls-3" d="M29.07,9.87l-.8-.46c-.05,0,0-.08,0-.11l.76-.44a.19.19,0,0,1,.19,0l.8.46c.05,0,0,.07,0,.11l-.76.44A.21.21,0,0,1,29.07,9.87Z"/><path class="cls-3" d="M31.72,11.39l-.79-.46c-.05,0-.05-.07,0-.11l.77-.44a.25.25,0,0,1,.19,0l.79.46c.05,0,0,.08,0,.11l-.77.44A.19.19,0,0,1,31.72,11.39Z"/><path class="cls-3" d="M34.37,12.92l-.79-.46s0-.08,0-.11l.77-.44a.19.19,0,0,1,.19,0l.79.46s0,.08,0,.11l-.77.44A.21.21,0,0,1,34.37,12.92Z"/><path class="cls-1" d="M20.11,8h0l.09,0,5.54-3.2a1.51,1.51,0,0,1,1.37-.06l13.69,7.94c.33-.24.34-.55,0-.74l-13.71-8A1.54,1.54,0,0,0,25.75,4l-5.54,3.2C19.8,7.43,19.76,7.78,20.11,8Z"/><path class="cls-6" d="M38.48,29.56l7.79-4.46a1.89,1.89,0,0,0,.79-1.52V20.8c0-.59-.35-.86-.79-.6l-7.79,4.46a1.89,1.89,0,0,0-.8,1.51V29C37.68,29.55,38,29.81,38.48,29.56Z"/><path class="cls-7" d="M46.66,20.11a.79.79,0,0,1,.2.58v2.79a1.89,1.89,0,0,1-.8,1.51l-7.79,4.47a.58.58,0,0,1-.39.08.47.47,0,0,0,.6,0l7.79-4.46a1.89,1.89,0,0,0,.79-1.52V20.8C47.06,20.4,46.9,20.15,46.66,20.11Z"/><path class="cls-2" d="M40.82,26.53l.72-.41a.41.41,0,0,0,.17-.33V25c0-.13-.08-.19-.17-.13l-.72.41a.41.41,0,0,0-.17.33v.76C40.65,26.53,40.73,26.59,40.82,26.53Z"/><path class="cls-7" d="M43.21,25.15l.72-.41a.41.41,0,0,0,.17-.33v-.76c0-.13-.08-.19-.17-.13l-.72.41a.41.41,0,0,0-.17.33V25C43,25.15,43.12,25.21,43.21,25.15Z"/><path class="cls-6" d="M38.48,49.7l7.79-4.47a1.88,1.88,0,0,0,.79-1.51V40.93c0-.58-.35-.85-.79-.6l-7.79,4.46a1.91,1.91,0,0,0-.8,1.52V49.1C37.68,49.68,38,50,38.48,49.7Z"/><path class="cls-7" d="M46.66,40.25a.78.78,0,0,1,.2.58v2.78a1.9,1.9,0,0,1-.8,1.52l-7.79,4.46a.59.59,0,0,1-.39.09.5.5,0,0,0,.6,0l7.79-4.47a1.88,1.88,0,0,0,.79-1.51V40.93C47.06,40.53,46.9,40.29,46.66,40.25Z"/><path class="cls-2" d="M40.82,46.67l.72-.41a.45.45,0,0,0,.17-.33v-.77c0-.13-.08-.18-.17-.13l-.72.41a.45.45,0,0,0-.17.33v.77C40.65,46.67,40.73,46.72,40.82,46.67Z"/><path class="cls-7" d="M43.21,45.29l.72-.41a.45.45,0,0,0,.17-.33v-.77c0-.12-.08-.18-.17-.13l-.72.41a.45.45,0,0,0-.17.33v.77C43,45.29,43.12,45.34,43.21,45.29Z"/><path class="cls-6" d="M38.48,59.76l7.79-4.46a1.88,1.88,0,0,0,.79-1.51V51c0-.59-.35-.85-.79-.6l-7.79,4.46a1.9,1.9,0,0,0-.8,1.52v2.78C37.68,59.75,38,60,38.48,59.76Z"/><path class="cls-7" d="M46.66,50.31a.81.81,0,0,1,.2.58v2.79a1.91,1.91,0,0,1-.8,1.52l-7.79,4.46a.58.58,0,0,1-.39.08.47.47,0,0,0,.6,0l7.79-4.46a1.88,1.88,0,0,0,.79-1.51V51C47.06,50.6,46.9,50.36,46.66,50.31Z"/><path class="cls-2" d="M40.82,56.74l.72-.42a.41.41,0,0,0,.17-.33v-.76c0-.13-.08-.19-.17-.13l-.72.41a.43.43,0,0,0-.17.33v.77C40.65,56.73,40.73,56.79,40.82,56.74Z"/><path class="cls-7" d="M43.21,55.36l.72-.42a.41.41,0,0,0,.17-.33v-.76c0-.13-.08-.19-.17-.13l-.72.41a.45.45,0,0,0-.17.33v.77C43,55.35,43.12,55.41,43.21,55.36Z"/><path class="cls-6" d="M38.48,39.63l7.79-4.46a1.92,1.92,0,0,0,.79-1.52V30.86c0-.58-.35-.85-.79-.6l-7.79,4.46a1.93,1.93,0,0,0-.8,1.52V39C37.68,39.61,38,39.88,38.48,39.63Z"/><path class="cls-7" d="M46.66,30.18a.79.79,0,0,1,.2.58v2.79a1.89,1.89,0,0,1-.8,1.51l-7.79,4.46a.54.54,0,0,1-.39.09.47.47,0,0,0,.6,0l7.79-4.46a1.92,1.92,0,0,0,.79-1.52V30.86C47.06,30.47,46.9,30.22,46.66,30.18Z"/><path class="cls-2" d="M40.82,36.6l.72-.41a.43.43,0,0,0,.17-.33v-.77c0-.12-.08-.18-.17-.13l-.72.42a.41.41,0,0,0-.17.33v.76C40.65,36.6,40.73,36.66,40.82,36.6Z"/><path class="cls-7" d="M43.21,35.22l.72-.41a.43.43,0,0,0,.17-.33v-.77c0-.12-.08-.18-.17-.13l-.72.42a.41.41,0,0,0-.17.33v.76C43,35.22,43.12,35.28,43.21,35.22Z"/><path class="cls-1" d="M31.73,26.71l-18-10.38A1.75,1.75,0,0,1,13,14.94V11.51c0-.54.33-.78.73-.55l18,10.38a1.74,1.74,0,0,1,.73,1.39v3.43C32.46,26.69,32.13,26.94,31.73,26.71Z"/><path class="cls-8" d="M31.21,25.51,14.27,15.72a.88.88,0,0,1-.37-.7V12.44c0-.27.17-.4.37-.28l16.94,9.78a.88.88,0,0,1,.37.71v2.58C31.58,25.5,31.42,25.62,31.21,25.51Z"/><path class="cls-3" d="M17.8,16.46,15.27,15a.85.85,0,0,1-.36-.69h0c0-.26.16-.38.36-.27L17.8,15.5a.86.86,0,0,1,.36.69h0C18.16,16.45,18,16.57,17.8,16.46Z"/><ellipse class="cls-6" cx="19.54" cy="16.99" rx="0.34" ry="0.59" transform="matrix(0.87, -0.5, 0.5, 0.87, -5.88, 12.05)"/><path class="cls-6" d="M21.42,18.07c0,.26-.19.37-.42.24a.92.92,0,0,1-.41-.72c0-.26.18-.37.41-.24A.91.91,0,0,1,21.42,18.07Z"/><path class="cls-3" d="M22.88,18.91c0,.27-.19.37-.41.24a.91.91,0,0,1-.42-.72c0-.26.19-.37.42-.23A.92.92,0,0,1,22.88,18.91Z"/><path class="cls-6" d="M24.34,19.76c0,.26-.18.37-.41.24a.94.94,0,0,1-.42-.72c0-.27.19-.37.42-.24A.9.9,0,0,1,24.34,19.76Z"/><path class="cls-6" d="M30.5,24.07l-.85-.49a.54.54,0,0,1-.23-.44v-.9c0-.17.1-.25.23-.18l.85.5a.54.54,0,0,1,.23.44v.9C30.73,24.07,30.63,24.14,30.5,24.07Z"/><path class="cls-1" d="M31.73,32.75l-18-10.38A1.74,1.74,0,0,1,13,21V17.55c0-.53.33-.78.73-.55l18,10.38a1.75,1.75,0,0,1,.73,1.39V32.2C32.46,32.74,32.13,33,31.73,32.75Z"/><path class="cls-8" d="M31.21,31.55,14.27,21.77a.91.91,0,0,1-.37-.71V18.48c0-.27.17-.39.37-.27L31.21,28a.86.86,0,0,1,.37.7v2.58C31.58,31.54,31.42,31.67,31.21,31.55Z"/><path class="cls-3" d="M17.8,22.5,15.27,21a.84.84,0,0,1-.36-.68h0c0-.27.16-.39.36-.27l2.53,1.46a.84.84,0,0,1,.36.68h0C18.16,22.5,18,22.62,17.8,22.5Z"/><path class="cls-7" d="M20,23.27c0,.26-.19.37-.42.24a.9.9,0,0,1-.41-.72c0-.26.18-.37.41-.24A.93.93,0,0,1,20,23.27Z"/><path class="cls-6" d="M21.42,24.11c0,.27-.19.38-.42.24a.9.9,0,0,1-.41-.71c0-.27.18-.38.41-.24A.91.91,0,0,1,21.42,24.11Z"/><path class="cls-3" d="M22.88,25c0,.26-.19.37-.41.24a.93.93,0,0,1-.42-.72c0-.26.19-.37.42-.24A.93.93,0,0,1,22.88,25Z"/><ellipse class="cls-6" cx="23.93" cy="25.56" rx="0.34" ry="0.59" transform="translate(-9.58 15.39) rotate(-30)"/><path class="cls-6" d="M30.5,30.12l-.85-.5a.54.54,0,0,1-.23-.44v-.9c0-.17.1-.24.23-.17l.85.49a.54.54,0,0,1,.23.44v.9C30.73,30.11,30.63,30.19,30.5,30.12Z"/><path class="cls-1" d="M31.73,38.8l-18-10.38A1.75,1.75,0,0,1,13,27V23.6c0-.54.33-.78.73-.55l18,10.38a1.74,1.74,0,0,1,.73,1.39v3.43C32.46,38.78,32.13,39,31.73,38.8Z"/><path class="cls-8" d="M31.21,37.6,14.27,27.81a.89.89,0,0,1-.37-.7V24.53c0-.27.17-.4.37-.28L31.21,34a.88.88,0,0,1,.37.71v2.58C31.58,37.59,31.42,37.71,31.21,37.6Z"/><path class="cls-3" d="M17.8,28.55l-2.53-1.46a.86.86,0,0,1-.36-.69h0c0-.26.16-.38.36-.27l2.53,1.46a.86.86,0,0,1,.36.69h0C18.16,28.54,18,28.66,17.8,28.55Z"/><path class="cls-7" d="M20,29.31c0,.27-.19.38-.42.24a.9.9,0,0,1-.41-.71c0-.27.18-.38.41-.24A.91.91,0,0,1,20,29.31Z"/><path class="cls-6" d="M21.42,30.16c0,.26-.19.37-.42.24a.92.92,0,0,1-.41-.72c0-.26.18-.37.41-.24A.91.91,0,0,1,21.42,30.16Z"/><path class="cls-3" d="M22.88,31c0,.27-.19.37-.41.24a.91.91,0,0,1-.42-.72c0-.26.19-.37.42-.24A1,1,0,0,1,22.88,31Z"/><path class="cls-6" d="M24.34,31.85c0,.26-.18.37-.41.24a.94.94,0,0,1-.42-.72c0-.27.19-.37.42-.24A.9.9,0,0,1,24.34,31.85Z"/><path class="cls-6" d="M30.5,36.16l-.85-.49a.54.54,0,0,1-.23-.44v-.9c0-.17.1-.25.23-.18l.85.5a.54.54,0,0,1,.23.44V36C30.73,36.16,30.63,36.23,30.5,36.16Z"/><path class="cls-1" d="M31.73,44.84l-18-10.38A1.74,1.74,0,0,1,13,33.07V29.64c0-.53.33-.78.73-.55l18,10.38a1.75,1.75,0,0,1,.73,1.39v3.43C32.46,44.83,32.13,45.07,31.73,44.84Z"/><path class="cls-8" d="M31.21,43.64,14.27,33.86a.91.91,0,0,1-.37-.71V30.57c0-.27.17-.39.37-.28l16.94,9.79a.86.86,0,0,1,.37.7v2.58C31.58,43.63,31.42,43.76,31.21,43.64Z"/><path class="cls-3" d="M17.8,34.59l-2.53-1.46a.84.84,0,0,1-.36-.68h0c0-.27.16-.39.36-.27l2.53,1.46a.84.84,0,0,1,.36.68h0C18.16,34.59,18,34.71,17.8,34.59Z"/><path class="cls-6" d="M20,35.36c0,.26-.19.37-.42.24a.92.92,0,0,1-.41-.72c0-.26.18-.37.41-.24A.91.91,0,0,1,20,35.36Z"/><ellipse class="cls-6" cx="21" cy="35.96" rx="0.34" ry="0.59" transform="translate(-15.17 15.32) rotate(-30)"/><path class="cls-3" d="M22.88,37.05c0,.26-.19.37-.41.24a.94.94,0,0,1-.42-.72c0-.27.19-.37.42-.24A.93.93,0,0,1,22.88,37.05Z"/><path class="cls-6" d="M24.34,37.89c0,.27-.18.37-.41.24a.91.91,0,0,1-.42-.72c0-.26.19-.37.42-.24A.93.93,0,0,1,24.34,37.89Z"/><path class="cls-3" d="M30.5,42.21l-.85-.5a.54.54,0,0,1-.23-.44v-.9c0-.17.1-.25.23-.17l.85.49a.54.54,0,0,1,.23.44V42C30.73,42.2,30.63,42.28,30.5,42.21Z"/><path class="cls-1" d="M31.73,50.89l-18-10.38A1.75,1.75,0,0,1,13,39.12V35.69c0-.54.33-.78.73-.55l18,10.38a1.74,1.74,0,0,1,.73,1.39v3.43C32.46,50.87,32.13,51.12,31.73,50.89Z"/><path class="cls-8" d="M31.21,49.68,14.27,39.9a.89.89,0,0,1-.37-.7V36.62c0-.27.17-.4.37-.28l16.94,9.78a.88.88,0,0,1,.37.71v2.58C31.58,49.68,31.42,49.8,31.21,49.68Z"/><path class="cls-3" d="M17.8,40.64l-2.53-1.46a.86.86,0,0,1-.36-.69h0c0-.26.16-.38.36-.27l2.53,1.46a.86.86,0,0,1,.36.69h0C18.16,40.63,18,40.75,17.8,40.64Z"/><path class="cls-6" d="M20,41.4c0,.27-.19.38-.42.24a.9.9,0,0,1-.41-.71c0-.27.18-.38.41-.24A.91.91,0,0,1,20,41.4Z"/><path class="cls-7" d="M21.42,42.25c0,.26-.19.37-.42.24a.93.93,0,0,1-.41-.72c0-.27.18-.37.41-.24A.91.91,0,0,1,21.42,42.25Z"/><path class="cls-3" d="M22.88,43.09c0,.27-.19.37-.41.24a.91.91,0,0,1-.42-.72c0-.26.19-.37.42-.24A1,1,0,0,1,22.88,43.09Z"/><path class="cls-7" d="M24.34,43.94c0,.26-.18.37-.41.24a.94.94,0,0,1-.42-.72c0-.27.19-.37.42-.24A.9.9,0,0,1,24.34,43.94Z"/><path class="cls-3" d="M30.5,48.25l-.85-.49a.55.55,0,0,1-.23-.44v-.9c0-.17.1-.25.23-.18l.85.49a.55.55,0,0,1,.23.44v.91C30.73,48.25,30.63,48.32,30.5,48.25Z"/><path class="cls-1" d="M31.73,56.93l-18-10.38A1.74,1.74,0,0,1,13,45.16V41.73c0-.53.33-.78.73-.55l18,10.38A1.75,1.75,0,0,1,32.46,53v3.43C32.46,56.92,32.13,57.16,31.73,56.93Z"/><path class="cls-8" d="M31.21,55.73,14.27,46a.91.91,0,0,1-.37-.71V42.66c0-.27.17-.39.37-.28l16.94,9.79a.85.85,0,0,1,.37.7v2.58C31.58,55.72,31.42,55.85,31.21,55.73Z"/><path class="cls-3" d="M17.8,46.68l-2.53-1.46a.84.84,0,0,1-.36-.68h0c0-.27.16-.39.36-.27l2.53,1.46a.84.84,0,0,1,.36.68h0C18.16,46.68,18,46.8,17.8,46.68Z"/><ellipse class="cls-6" cx="19.54" cy="47.21" rx="0.34" ry="0.59" transform="translate(-20.99 16.1) rotate(-30)"/><path class="cls-6" d="M21.42,48.29c0,.27-.19.37-.42.24a.9.9,0,0,1-.41-.72c0-.26.18-.37.41-.24A.94.94,0,0,1,21.42,48.29Z"/><path class="cls-3" d="M22.88,49.14c0,.26-.19.37-.41.24a.94.94,0,0,1-.42-.72c0-.27.19-.37.42-.24A.93.93,0,0,1,22.88,49.14Z"/><path class="cls-6" d="M24.34,50c0,.27-.18.37-.41.24a.91.91,0,0,1-.42-.72c0-.26.19-.37.42-.24A.93.93,0,0,1,24.34,50Z"/><path class="cls-6" d="M30.5,54.29l-.85-.49a.54.54,0,0,1-.23-.44v-.9c0-.17.1-.25.23-.17l.85.49a.54.54,0,0,1,.23.44v.9C30.73,54.29,30.63,54.37,30.5,54.29Z"/><path class="cls-1" d="M31.73,63l-18-10.38A1.75,1.75,0,0,1,13,51.21V47.78c0-.54.33-.79.73-.55l18,10.38A1.74,1.74,0,0,1,32.46,59v3.43C32.46,63,32.13,63.21,31.73,63Z"/><path class="cls-8" d="M31.21,61.77,14.27,52a.89.89,0,0,1-.37-.7V48.71c0-.27.17-.4.37-.28l16.94,9.78a.88.88,0,0,1,.37.71v2.57C31.58,61.77,31.42,61.89,31.21,61.77Z"/><path class="cls-3" d="M17.8,52.73l-2.53-1.46a.86.86,0,0,1-.36-.69h0c0-.26.16-.38.36-.27l2.53,1.46a.85.85,0,0,1,.36.69h0C18.16,52.72,18,52.84,17.8,52.73Z"/><path class="cls-7" d="M20.42,53.82c0,.5-.35.7-.79.45a1.72,1.72,0,0,1-.78-1.35c0-.5.35-.71.78-.46A1.72,1.72,0,0,1,20.42,53.82Z"/><path class="cls-6" d="M23.45,55.59c0,.27-.19.37-.42.24a.9.9,0,0,1-.41-.72c0-.26.18-.37.41-.24A.94.94,0,0,1,23.45,55.59Z"/><path class="cls-3" d="M24.91,56.44c0,.26-.19.37-.42.24a1,1,0,0,1-.41-.72c0-.27.19-.37.41-.24A.91.91,0,0,1,24.91,56.44Z"/><path class="cls-6" d="M26.37,57.28c0,.26-.19.37-.41.24a.91.91,0,0,1-.42-.72c0-.26.19-.37.42-.24A.94.94,0,0,1,26.37,57.28Z"/><path class="cls-3" d="M30.5,60.34l-.85-.49a.55.55,0,0,1-.23-.44v-.9c0-.17.1-.25.23-.18l.85.49a.55.55,0,0,1,.23.44v.9C30.73,60.33,30.63,60.41,30.5,60.34Z"/><path class="cls-1" d="M30.54,78.15a.37.37,0,0,1-.18,0L9.92,66.49a.77.77,0,0,1-.4-.68.81.81,0,0,1,.39-.69L18.68,60a1,1,0,0,0,.5-.88v-5.7a.36.36,0,0,1,.72,0v5.7a1.76,1.76,0,0,1-.85,1.5l-8.77,5.18a.05.05,0,0,0,0,0,.06.06,0,0,0,0,.06L30.72,77.48a.36.36,0,0,1,.13.49A.34.34,0,0,1,30.54,78.15Z"/><rect class="cls-1" x="24.34" y="72.76" width="1.94" height="4.19" transform="translate(102.84 90.14) rotate(119.83)"/><path class="cls-1" d="M22.81,74.21A1.52,1.52,0,0,1,23.49,73c.38-.22.69,0,.69.4a1.54,1.54,0,0,1-.68,1.19C23.12,74.83,22.81,74.65,22.81,74.21Z"/><rect class="cls-1" x="27.77" y="73.88" width="3.15" height="6.57" transform="translate(110.88 90.1) rotate(119.83)"/><path class="cls-2" d="M27,74.71,25.78,74a2.46,2.46,0,0,0-1,1.68l1.23.71A2.52,2.52,0,0,0,27,74.71Z"/><path class="cls-1" d="M25.38,76.18a2.48,2.48,0,0,1,1.11-1.93c.61-.36,1.11-.07,1.11.64a2.47,2.47,0,0,1-1.1,1.93C25.88,77.18,25.38,76.89,25.38,76.18Z"/><path class="cls-3" d="M24,73.76c-.17-.1-.17-.26,0-.37a.74.74,0,0,1,.65,0,.19.19,0,0,1,0,.37A.68.68,0,0,1,24,73.76Z"/><rect class="cls-1" x="19.92" y="75.43" width="1.94" height="4.19" transform="translate(98.54 97.97) rotate(119.83)"/><path class="cls-1" d="M18.39,76.88a1.52,1.52,0,0,1,.68-1.19c.38-.22.69,0,.69.4a1.54,1.54,0,0,1-.68,1.19C18.7,77.5,18.39,77.32,18.39,76.88Z"/><rect class="cls-1" x="23.35" y="76.56" width="3.15" height="6.57" transform="translate(106.58 97.94) rotate(119.83)"/><path class="cls-2" d="M22.59,77.39l-1.23-.71a2.46,2.46,0,0,0-1,1.68l1.23.71A2.48,2.48,0,0,0,22.59,77.39Z"/><path class="cls-1" d="M21,78.85a2.48,2.48,0,0,1,1.11-1.93c.61-.35,1.11-.07,1.11.64a2.44,2.44,0,0,1-1.1,1.93C21.46,79.85,21,79.56,21,78.85Z"/><path class="cls-3" d="M19.53,76.44a.21.21,0,0,1,0-.38.74.74,0,0,1,.65,0,.19.19,0,0,1,0,.37A.71.71,0,0,1,19.53,76.44Z"/><path class="cls-1" d="M92.85,45.63h-.09a.37.37,0,0,1-.27-.43L96,29.85a.38.38,0,0,1,.44-.27.37.37,0,0,1,.27.44L93.2,45.35A.36.36,0,0,1,92.85,45.63Z"/><path class="cls-1" d="M88.15,44.55h-.08a.37.37,0,0,1-.27-.44l3.53-15.33a.36.36,0,0,1,.71.16L88.51,44.27A.38.38,0,0,1,88.15,44.55Z"/><path class="cls-1" d="M83.46,43.47h-.08a.36.36,0,0,1-.27-.44l3.53-15.33a.36.36,0,1,1,.7.16L83.81,43.19A.37.37,0,0,1,83.46,43.47Z"/><rect class="cls-1" x="84.7" y="31.53" width="1.94" height="4.19" transform="translate(9.93 -18.66) rotate(13.19)"/><path class="cls-1" d="M85.77,36.2a1.5,1.5,0,0,1-1.33-.31c-.32-.3-.24-.65.18-.77a1.51,1.51,0,0,1,1.34.31A.42.42,0,0,1,85.77,36.2Z"/><rect class="cls-1" x="85.16" y="25.81" width="3.15" height="6.57" transform="translate(8.93 -19.03) rotate(13.19)"/><path class="cls-2" d="M85.05,32l-.32,1.38a2.48,2.48,0,0,0,1.89.44l.32-1.38A2.54,2.54,0,0,0,85.05,32Z"/><path class="cls-1" d="M86.92,33.17a2.41,2.41,0,0,1-2.16-.51c-.52-.48-.39-1,.29-1.25a2.5,2.5,0,0,1,2.17.51C87.73,32.41,87.6,33,86.92,33.17Z"/><path class="cls-3" d="M85,35.23c0,.2-.21.25-.36.11a.74.74,0,0,1-.19-.62c0-.2.21-.24.36-.1A.72.72,0,0,1,85,35.23Z"/><rect class="cls-1" x="89.06" y="34.12" width="1.94" height="4.19" transform="translate(10.64 -19.59) rotate(13.19)"/><path class="cls-1" d="M90.13,38.79a1.51,1.51,0,0,1-1.34-.31c-.32-.3-.24-.64.18-.77a1.51,1.51,0,0,1,1.34.31C90.63,38.32,90.55,38.67,90.13,38.79Z"/><rect class="cls-1" x="89.51" y="28.4" width="3.15" height="6.57" transform="translate(9.63 -19.95) rotate(13.19)"/><path class="cls-2" d="M89.4,34.62,89.08,36a2.5,2.5,0,0,0,1.89.45l.32-1.39A2.53,2.53,0,0,0,89.4,34.62Z"/><path class="cls-1" d="M91.27,35.76a2.45,2.45,0,0,1-2.16-.5c-.52-.49-.39-1,.29-1.25a2.47,2.47,0,0,1,2.17.5C92.08,35,92,35.56,91.27,35.76Z"/><path class="cls-3" d="M89.37,37.82c-.05.2-.21.25-.36.11a.69.69,0,0,1-.18-.61c0-.2.2-.25.35-.11A.72.72,0,0,1,89.37,37.82Z"/><rect class="cls-1" x="93.46" y="36.69" width="1.94" height="4.19" transform="translate(11.34 -20.53) rotate(13.19)"/><path class="cls-1" d="M94.53,41.37a1.55,1.55,0,0,1-1.34-.32c-.32-.3-.24-.64.18-.77a1.51,1.51,0,0,1,1.34.31A.42.42,0,0,1,94.53,41.37Z"/><rect class="cls-1" x="93.92" y="30.97" width="3.15" height="6.57" transform="translate(10.34 -20.89) rotate(13.19)"/><path class="cls-2" d="M93.8,37.19l-.32,1.38a2.51,2.51,0,0,0,1.89.45l.32-1.38A2.49,2.49,0,0,0,93.8,37.19Z"/><path class="cls-1" d="M95.68,38.34a2.5,2.5,0,0,1-2.17-.51c-.52-.49-.39-1,.29-1.25a2.44,2.44,0,0,1,2.17.51C96.49,37.57,96.35,38.13,95.68,38.34Z"/><path class="cls-3" d="M93.77,40.4c0,.2-.21.24-.36.1a.68.68,0,0,1-.18-.61c0-.2.2-.25.35-.11A.71.71,0,0,1,93.77,40.4Z"/><path class="cls-4" d="M64,113.21,22,88.93c-1.19-.69-1-1.89.33-2.68L51,69.72a5.15,5.15,0,0,1,4.64-.19L97.65,93.81c1.19.69,1,1.88-.34,2.68L68.68,113A5.18,5.18,0,0,1,64,113.21Z"/><path class="cls-6" d="M107.5,50.8,65.44,26.52A1.66,1.66,0,0,0,64,26.34h0l-.08,0h0L62.4,27l1.37.67a.24.24,0,0,0,0,.08L56.9,58.88A3.93,3.93,0,0,0,58.43,63l41,23.69-.14,1.74,1.66-.64a2.34,2.34,0,0,0,1.19-1.69L109,54.86A3.92,3.92,0,0,0,107.5,50.8Z"/><path class="cls-2" d="M107.5,50.8,65.44,26.52A1.66,1.66,0,0,0,64,26.34h0l-.08,0h0L62.4,27l1.37.67a.24.24,0,0,0,0,.08L59.23,48.25l20.58,16,29-11.81A3.2,3.2,0,0,0,107.5,50.8Z"/><path class="cls-9" d="M105.91,55.59l3.2-1.36a4,4,0,0,0-1.3-3.21l-5.06,2.13Z"/><path class="cls-3" d="M97.87,88.22,55.81,63.94a3.94,3.94,0,0,1-1.53-4.07l6.85-31.18c.34-1.56,1.58-2.27,2.77-1.59L106,51.38a3.94,3.94,0,0,1,1.53,4.07l-6.85,31.18C100.3,88.2,99.06,88.9,97.87,88.22Z"/><path class="cls-7" d="M97,85.9,57.4,63.07A3.6,3.6,0,0,1,56,59.35l6.27-28.53c.31-1.43,1.45-2.08,2.54-1.45l39.55,22.82a3.6,3.6,0,0,1,1.4,3.73L99.49,84.45C99.18,85.88,98,86.53,97,85.9Z"/><path class="cls-7" d="M97,85.9,57.4,63.07A3.6,3.6,0,0,1,56,59.35l6.27-28.53c.31-1.43,1.45-2.08,2.54-1.45l39.55,22.82a3.6,3.6,0,0,1,1.4,3.73L99.49,84.45C99.18,85.88,98,86.53,97,85.9Z"/><path class="cls-6" d="M98.45,89.27l-5.75-.75L55.59,67.09a5.15,5.15,0,0,0-4.64.19L24.65,82.46,21.18,82v2h0a1.36,1.36,0,0,0,.8,1.22L64,109.47a5.18,5.18,0,0,0,4.65-.19L97.31,92.75a1.86,1.86,0,0,0,1.14-1.56h0Z"/><path class="cls-2" d="M70.57,75.74l-2.64-1.53h-29L24.65,82.46,21.18,82v2h0a1.36,1.36,0,0,0,.8,1.22L64,109.47a4.39,4.39,0,0,0,2.4.45Z"/><path class="cls-1" d="M22.72,82.2,21.18,82v2h0a1.36,1.36,0,0,0,.8,1.22l.74.43Z"/><path class="cls-9" d="M64.46,109.67a5.36,5.36,0,0,0,3.94-.25V105H64.46Z"/><path class="cls-3" d="M64,107.5,22,83.22c-1.19-.69-1-1.89.33-2.68L51,64a5.15,5.15,0,0,1,4.64-.19L97.65,88.1c1.19.69,1,1.89-.34,2.68L68.68,107.31A5.18,5.18,0,0,1,64,107.5Z"/><path class="cls-7" d="M97.31,90.06,68.68,106.59a5.18,5.18,0,0,1-4.65.19L22,82.5a1.58,1.58,0,0,1-.74-.81A1.27,1.27,0,0,0,22,83.22L64,107.5a5.18,5.18,0,0,0,4.65-.19L97.31,90.78c.93-.53,1.29-1.25,1.08-1.87A2.25,2.25,0,0,1,97.31,90.06Z"/><path class="cls-6" d="M39.87,75.18,38,74.08c-.15-.08-.13-.24,0-.34l2.24-1.3a.67.67,0,0,1,.6,0l1.9,1.1c.15.09.13.24,0,.34l-2.25,1.3A.65.65,0,0,1,39.87,75.18Z"/><path class="cls-6" d="M42.8,76.88l-1.9-1.1c-.15-.09-.13-.24,0-.34l2.25-1.3a.71.71,0,0,1,.6,0l1.9,1.1c.15.09.13.25,0,.35L43.4,76.85A.64.64,0,0,1,42.8,76.88Z"/><path class="cls-6" d="M45.74,78.58l-1.9-1.1c-.15-.09-.13-.25,0-.35l2.25-1.29a.62.62,0,0,1,.59,0l1.91,1.1c.15.09.13.24,0,.34l-2.25,1.3A.71.71,0,0,1,45.74,78.58Z"/><path class="cls-6" d="M49.81,77.17,47.9,76.08c-.15-.09-.13-.25.05-.35l1.88-1.09a.67.67,0,0,1,.6,0l1.9,1.1c.15.09.13.24,0,.34L50.4,77.15A.65.65,0,0,1,49.81,77.17Z"/><path class="cls-6" d="M52.75,78.87l-1.91-1.1c-.15-.09-.13-.24,0-.34l1.88-1.09a.67.67,0,0,1,.6,0l1.9,1.09c.15.09.13.25,0,.35l-1.89,1.09A.65.65,0,0,1,52.75,78.87Z"/><path class="cls-6" d="M55.68,80.57l-1.9-1.1c-.15-.09-.13-.24,0-.35L55.71,78a.64.64,0,0,1,.6,0l1.9,1.1c.15.09.13.24,0,.34l-1.89,1.09A.67.67,0,0,1,55.68,80.57Z"/><path class="cls-6" d="M58.62,82.26l-1.9-1.09c-.15-.09-.13-.25,0-.35l1.89-1.09a.65.65,0,0,1,.59,0l1.91,1.1c.15.09.13.24,0,.34l-1.88,1.09A.67.67,0,0,1,58.62,82.26Z"/><path class="cls-6" d="M61.56,84l-1.9-1.1c-.15-.09-.14-.24,0-.34l1.89-1.09a.68.68,0,0,1,.59,0l1.91,1.1c.15.09.13.25,0,.35l-1.88,1.09A.67.67,0,0,1,61.56,84Z"/><path class="cls-6" d="M64.5,85.66l-1.9-1.1c-.16-.09-.14-.24,0-.35l1.89-1.08a.62.62,0,0,1,.59,0L67,84.2c.16.09.14.24,0,.34L65.1,85.63A.67.67,0,0,1,64.5,85.66Z"/><path class="cls-6" d="M67.44,87.35l-1.9-1.09c-.16-.09-.14-.25,0-.35l1.88-1.09a.67.67,0,0,1,.6,0L70,85.9c.16.08.14.24,0,.34L68,87.33A.65.65,0,0,1,67.44,87.35Z"/><path class="cls-6" d="M70.38,89.05,68.47,88c-.15-.09-.13-.24,0-.34l1.88-1.09a.71.71,0,0,1,.6,0l1.9,1.1c.15.09.13.25,0,.35L71,89A.65.65,0,0,1,70.38,89.05Z"/><path class="cls-6" d="M73.32,90.75l-1.91-1.1c-.15-.09-.13-.24,0-.35l1.88-1.08a.64.64,0,0,1,.6,0l1.9,1.1c.15.09.13.24,0,.34l-1.89,1.09A.65.65,0,0,1,73.32,90.75Z"/><path class="cls-6" d="M76.25,92.44l-1.9-1.09c-.15-.09-.13-.25,0-.35l1.89-1.09a.67.67,0,0,1,.6,0l1.9,1.1c.15.08.13.24,0,.34l-1.89,1.09A.67.67,0,0,1,76.25,92.44Z"/><path class="cls-2" d="M54.14,76.37l-1.91-1.1c-.15-.09-.13-.24.05-.34l1.88-1.09a.67.67,0,0,1,.6,0l1.9,1.09c.15.09.13.25,0,.35l-1.89,1.09A.65.65,0,0,1,54.14,76.37Z"/><path class="cls-2" d="M51.15,74.65l-1.9-1.1c-.15-.09-.13-.24,0-.34l1.89-1.09a.71.71,0,0,1,.6,0l1.9,1.1c.15.09.13.24,0,.35l-1.89,1.08A.64.64,0,0,1,51.15,74.65Z"/><path class="cls-6" d="M48.17,72.92l-4.1-2.36c-.15-.09-.13-.24,0-.35L46,69.13a.62.62,0,0,1,.59,0l4.1,2.37c.15.09.14.24,0,.34L48.76,72.9A.65.65,0,0,1,48.17,72.92Z"/><path class="cls-6" d="M50.26,70.83l-3.33-1.92c-.15-.09-.13-.25,0-.35l1.89-1.09a.65.65,0,0,1,.59,0l3.33,1.92c.15.09.13.24,0,.34L50.85,70.8A.65.65,0,0,1,50.26,70.83Z"/><path class="cls-2" d="M57.08,78.07,55.17,77c-.15-.09-.13-.24,0-.34l1.88-1.09a.64.64,0,0,1,.6,0l1.9,1.1c.15.09.13.24,0,.34L57.67,78A.65.65,0,0,1,57.08,78.07Z"/><path class="cls-6" d="M60,79.76l-1.9-1.09c-.15-.09-.13-.25,0-.35L60,77.23a.67.67,0,0,1,.6,0l1.9,1.1c.15.09.13.24,0,.34l-1.89,1.09A.67.67,0,0,1,60,79.76Z"/><path class="cls-6" d="M63,81.46l-1.9-1.1c-.15-.09-.13-.24,0-.34L63,78.93a.65.65,0,0,1,.59,0L65.48,80c.15.09.13.25,0,.35l-1.88,1.09A.67.67,0,0,1,63,81.46Z"/><path class="cls-6" d="M65.89,83.16,64,82.06c-.15-.09-.14-.24,0-.35l1.89-1.08a.62.62,0,0,1,.59,0l1.91,1.1c.15.09.13.24,0,.34l-1.88,1.09A.67.67,0,0,1,65.89,83.16Z"/><path class="cls-6" d="M68.83,84.85l-1.9-1.09c-.16-.09-.14-.25,0-.35l1.88-1.09a.67.67,0,0,1,.6,0l1.9,1.1c.16.08.14.24,0,.34l-1.88,1.09A.67.67,0,0,1,68.83,84.85Z"/><path class="cls-6" d="M71.77,86.55l-1.9-1.1c-.16-.09-.14-.24,0-.34L71.79,84a.71.71,0,0,1,.6,0l1.9,1.1c.16.09.14.25,0,.35l-1.89,1.09A.65.65,0,0,1,71.77,86.55Z"/><path class="cls-6" d="M74.71,88.25l-1.91-1.1c-.15-.09-.13-.24,0-.35l1.88-1.08a.64.64,0,0,1,.6,0l1.9,1.1c.15.09.13.24,0,.34L75.3,88.22A.65.65,0,0,1,74.71,88.25Z"/><path class="cls-6" d="M77.65,89.94l-1.91-1.09c-.15-.09-.13-.25.05-.35l1.88-1.09a.67.67,0,0,1,.6,0l1.9,1.1c.15.08.13.24,0,.34l-1.89,1.09A.65.65,0,0,1,77.65,89.94Z"/><path class="cls-6" d="M80.58,91.64l-1.9-1.1c-.15-.09-.13-.24,0-.34l1.89-1.09a.71.71,0,0,1,.6,0l1.9,1.1c.15.09.13.25,0,.35l-1.89,1.09A.67.67,0,0,1,80.58,91.64Z"/><path class="cls-6" d="M85.81,94.66l-4.15-2.4c-.16-.09-.14-.24,0-.34l1.88-1.09a.64.64,0,0,1,.6,0l4.15,2.4c.15.09.14.24,0,.34L86.4,94.63A.68.68,0,0,1,85.81,94.66Z"/><path class="cls-6" d="M91.53,91.35l-3.51-2c-.15-.09-.13-.24,0-.34L90,87.9a.67.67,0,0,1,.6,0l3.5,2c.16.08.14.24,0,.34l-1.89,1.09A.65.65,0,0,1,91.53,91.35Z"/><path class="cls-6" d="M62.22,77.74l-1.9-1.1c-.15-.09-.14-.24,0-.35l1.89-1.09a.65.65,0,0,1,.59,0l1.91,1.1c.15.09.13.24,0,.34l-1.88,1.09A.71.71,0,0,1,62.22,77.74Z"/><path class="cls-6" d="M59.21,76l-1.9-1.1c-.16-.09-.14-.24,0-.35l1.89-1.08a.62.62,0,0,1,.59,0l1.9,1.1c.16.09.14.24,0,.34L59.81,76A.67.67,0,0,1,59.21,76Z"/><path class="cls-2" d="M56.2,74.26l-1.9-1.1c-.16-.09-.14-.24,0-.34l1.88-1.09a.67.67,0,0,1,.6,0l1.9,1.1c.16.09.14.24,0,.35l-1.89,1.08A.62.62,0,0,1,56.2,74.26Z"/><path class="cls-6" d="M53.19,72.52l-1.91-1.1c-.15-.09-.13-.24,0-.34L53.21,70a.71.71,0,0,1,.6,0l1.9,1.1c.15.09.13.24,0,.35l-1.89,1.08A.62.62,0,0,1,53.19,72.52Z"/><path class="cls-6" d="M65.16,79.43l-1.9-1.1c-.16-.08-.14-.24,0-.34l1.89-1.09a.65.65,0,0,1,.59,0l1.9,1.1c.16.08.14.24,0,.34l-1.88,1.09A.67.67,0,0,1,65.16,79.43Z"/><path class="cls-6" d="M68.1,81.13,66.2,80c-.16-.09-.14-.24,0-.34l1.88-1.09a.67.67,0,0,1,.6,0l1.9,1.1c.16.09.14.24,0,.35L68.69,81.1A.62.62,0,0,1,68.1,81.13Z"/><path class="cls-6" d="M71,82.83l-1.91-1.1c-.15-.09-.13-.25.05-.35l1.88-1.09a.67.67,0,0,1,.6,0l1.9,1.1c.15.09.13.24,0,.34L71.63,82.8A.68.68,0,0,1,71,82.83Z"/><path class="cls-6" d="M74,84.52l-1.91-1.1c-.15-.08-.13-.24.05-.34L74,82a.67.67,0,0,1,.6,0l1.9,1.09c.15.09.13.25,0,.35L74.57,84.5A.65.65,0,0,1,74,84.52Z"/><path class="cls-6" d="M76.91,86.22,75,85.12c-.15-.09-.13-.24,0-.34l1.89-1.09a.67.67,0,0,1,.6,0l1.9,1.1c.15.09.13.24,0,.35l-1.89,1.08A.64.64,0,0,1,76.91,86.22Z"/><path class="cls-6" d="M79.85,87.92,78,86.82c-.15-.09-.13-.25,0-.35l1.89-1.09a.65.65,0,0,1,.59,0l1.91,1.1c.15.09.13.24,0,.34l-1.88,1.09A.71.71,0,0,1,79.85,87.92Z"/><path class="cls-6" d="M82.79,89.61l-1.9-1.1c-.15-.08-.14-.24,0-.34l1.89-1.09a.65.65,0,0,1,.59,0l1.91,1.09c.15.09.13.25,0,.35l-1.88,1.09A.67.67,0,0,1,82.79,89.61Z"/><path class="cls-6" d="M85.73,91.31l-1.9-1.1c-.16-.09-.14-.24,0-.34l1.89-1.09a.65.65,0,0,1,.59,0l1.9,1.1c.16.09.14.24,0,.35l-1.88,1.08A.64.64,0,0,1,85.73,91.31Z"/><path class="cls-6" d="M88.67,93l-1.9-1.1c-.16-.09-.14-.25,0-.35l1.88-1.09a.67.67,0,0,1,.6,0l1.9,1.1c.16.09.14.24,0,.34L89.26,93A.68.68,0,0,1,88.67,93Z"/><path class="cls-6" d="M60.67,73.54l-1.9-1.1c-.15-.09-.13-.24,0-.34L60.7,71a.71.71,0,0,1,.6,0l1.9,1.1c.15.09.13.24,0,.35l-1.89,1.08A.64.64,0,0,1,60.67,73.54Z"/><path class="cls-6" d="M57.75,71.85l-1.9-1.1c-.16-.09-.14-.24,0-.34l1.89-1.09a.65.65,0,0,1,.59,0l1.9,1.09c.16.09.14.25,0,.35l-1.88,1.09A.67.67,0,0,1,57.75,71.85Z"/><path class="cls-6" d="M54.83,70.16l-1.91-1.1c-.15-.08-.13-.24,0-.34l1.88-1.09a.67.67,0,0,1,.6,0l1.9,1.1c.15.08.13.24,0,.34l-1.89,1.09A.65.65,0,0,1,54.83,70.16Z"/><path class="cls-6" d="M51.9,68.48,50,67.38c-.15-.09-.13-.25,0-.35l1.89-1.09a.65.65,0,0,1,.59,0L54.43,67c.15.09.13.24,0,.34L52.5,68.45A.71.71,0,0,1,51.9,68.48Z"/><path class="cls-6" d="M54.91,66.74,53,65.64c-.16-.09-.14-.24,0-.34l.62-.36a.64.64,0,0,1,.6,0l1.9,1.1c.15.09.13.24,0,.34l-.62.36A.64.64,0,0,1,54.91,66.74Z"/><path class="cls-6" d="M58.72,68.94l-1.9-1.1c-.15-.08-.13-.24,0-.34l.63-.36a.68.68,0,0,1,.59,0L60,68.21c.15.09.13.25-.05.35l-.62.36A.67.67,0,0,1,58.72,68.94Z"/><path class="cls-6" d="M61.64,70.62l-1.91-1.1c-.15-.08-.13-.24.05-.34l.62-.36a.67.67,0,0,1,.6,0l1.9,1.09c.15.09.13.25,0,.35l-.63.36A.65.65,0,0,1,61.64,70.62Z"/><path class="cls-6" d="M64.55,72.3l-1.9-1.09c-.16-.09-.14-.25,0-.35l.62-.36a.67.67,0,0,1,.6,0l1.9,1.1c.15.08.13.24,0,.34l-.63.36A.65.65,0,0,1,64.55,72.3Z"/><path class="cls-6" d="M67.46,74l-1.9-1.1c-.16-.09-.14-.25,0-.35l.62-.36a.67.67,0,0,1,.6,0l1.9,1.1c.15.09.14.24,0,.34l-.62.36A.71.71,0,0,1,67.46,74Z"/><path class="cls-6" d="M83.72,83.37l-1.91-1.1c-.15-.09-.13-.24,0-.34l.62-.36a.71.71,0,0,1,.6,0l1.9,1.1c.15.09.13.24,0,.35l-.63.36A.65.65,0,0,1,83.72,83.37Z"/><path class="cls-6" d="M86.63,85.05,84.72,84c-.15-.08-.13-.24,0-.34l.62-.36a.71.71,0,0,1,.6,0l1.9,1.1c.15.09.13.25,0,.35l-.63.36A.65.65,0,0,1,86.63,85.05Z"/><path class="cls-6" d="M89.54,86.73l-1.9-1.1c-.16-.08-.14-.24,0-.34l.62-.36a.67.67,0,0,1,.6,0L90.8,86c.15.09.13.25,0,.35l-.62.36A.67.67,0,0,1,89.54,86.73Z"/><path class="cls-6" d="M92.45,88.41l-1.9-1.09c-.15-.09-.14-.25,0-.35l.62-.36a.67.67,0,0,1,.6,0l1.9,1.1c.16.08.14.24,0,.34l-.62.36A.67.67,0,0,1,92.45,88.41Z"/><path class="cls-6" d="M63.61,75.24l-1.9-1.1c-.15-.09-.13-.24,0-.35l1.89-1.09a.65.65,0,0,1,.59,0l1.91,1.1c.15.09.13.24,0,.34l-1.88,1.09A.71.71,0,0,1,63.61,75.24Z"/><path class="cls-6" d="M66.55,76.93l-1.9-1.1c-.15-.08-.14-.24,0-.34l1.89-1.09a.65.65,0,0,1,.59,0l1.91,1.1c.15.08.13.24,0,.34l-1.88,1.09A.67.67,0,0,1,66.55,76.93Z"/><path class="cls-6" d="M69.49,78.63l-1.9-1.1c-.16-.09-.14-.24,0-.34l1.89-1.09a.68.68,0,0,1,.59,0l1.9,1.1c.16.09.14.24,0,.35L70.09,78.6A.64.64,0,0,1,69.49,78.63Z"/><path class="cls-6" d="M72.43,80.33l-1.9-1.1c-.16-.09-.14-.25,0-.35l1.88-1.09a.67.67,0,0,1,.6,0l1.9,1.1c.16.09.14.24,0,.34L73,80.3A.68.68,0,0,1,72.43,80.33Z"/><path class="cls-6" d="M75.37,82l-1.91-1.1c-.15-.08-.13-.24.05-.34l1.88-1.09a.67.67,0,0,1,.6,0l1.9,1.1c.15.08.13.24,0,.34L76,82A.65.65,0,0,1,75.37,82Z"/><path class="cls-6" d="M78.31,83.72l-1.91-1.1c-.15-.09-.13-.24,0-.34l1.88-1.09a.67.67,0,0,1,.6,0l1.9,1.1c.15.09.13.24,0,.35L78.9,83.69A.62.62,0,0,1,78.31,83.72Z"/><path class="cls-6" d="M81.24,85.42l-1.9-1.1c-.15-.09-.13-.25,0-.35l1.89-1.09a.67.67,0,0,1,.6,0l1.9,1.1c.15.09.13.24,0,.34l-1.89,1.09A.71.71,0,0,1,81.24,85.42Z"/><path class="cls-6" d="M84.18,87.11,82.28,86c-.15-.08-.13-.24,0-.34l1.89-1.09a.65.65,0,0,1,.59,0l1.91,1.09c.15.09.13.25,0,.35l-1.88,1.09A.67.67,0,0,1,84.18,87.11Z"/><path class="cls-6" d="M87.12,88.81l-1.9-1.1c-.15-.09-.14-.24,0-.34l1.89-1.09a.65.65,0,0,1,.59,0l1.91,1.1c.15.09.13.24-.05.35l-1.88,1.08A.64.64,0,0,1,87.12,88.81Z"/><path class="cls-6" d="M46.81,75.45l-5.6-3.24c-.15-.09-.14-.24,0-.34l1.89-1.09a.65.65,0,0,1,.59,0L49.34,74c.15.09.13.24-.05.34l-1.88,1.09A.71.71,0,0,1,46.81,75.45Z"/><path class="cls-6" d="M82.91,96.29l-5.6-3.24c-.15-.09-.13-.24,0-.34l1.89-1.09a.65.65,0,0,1,.59,0l5.61,3.23c.15.09.13.24,0,.35l-1.88,1.08A.64.64,0,0,1,82.91,96.29Z"/><path class="cls-6" d="M71.16,93.25l-1.9-1.1c-.15-.09-.13-.24,0-.34l2.25-1.3a.65.65,0,0,1,.59,0l1.91,1.1c.15.08.13.24,0,.34l-2.24,1.3A.67.67,0,0,1,71.16,93.25Z"/><path class="cls-6" d="M49.82,80.93l-3-1.76c-.15-.08-.13-.24,0-.34l2.25-1.3a.65.65,0,0,1,.59,0l3.05,1.75c.15.09.13.25-.05.35l-2.24,1.3A.67.67,0,0,1,49.82,80.93Z"/><path class="cls-6" d="M68.33,91.62l-3-1.76c-.16-.09-.14-.24,0-.34l2.25-1.3a.68.68,0,0,1,.59,0l3,1.76c.15.09.13.24,0,.34l-2.24,1.3A.71.71,0,0,1,68.33,91.62Z"/><path class="cls-6" d="M54.06,83.38l-3-1.76c-.15-.09-.14-.24,0-.34L53.31,80a.65.65,0,0,1,.59,0L57,81.71c.15.09.13.25-.05.35l-2.24,1.29A.64.64,0,0,1,54.06,83.38Z"/><path class="cls-6" d="M53.92,80l13.23,7.64c.17.09.17.24,0,.34l-2.29,1.32a.62.62,0,0,1-.59,0L51,81.63Z"/><path class="cls-6" d="M79.37,96.33l2.12,1.22c.13.07.11.2,0,.28l-.92.53a.5.5,0,0,1-.49,0l-2.12-1.22c-.12-.07-.11-.2,0-.28l.92-.53A.49.49,0,0,1,79.37,96.33Z"/><path class="cls-6" d="M76.41,94.62l2.12,1.22c.13.07.11.2,0,.28l-.92.53a.51.51,0,0,1-.49,0L75,95.45c-.13-.07-.11-.2,0-.28l.92-.53A.51.51,0,0,1,76.41,94.62Z"/><path class="cls-6" d="M73.47,92.92l2.12,1.22c.13.08.11.2,0,.29l-.92.53a.56.56,0,0,1-.49,0L72,93.75c-.12-.07-.11-.2,0-.28l.91-.53A.57.57,0,0,1,73.47,92.92Z"/><path class="cls-6" d="M78,93.68l2.12,1.22c.13.08.11.2,0,.29l-.92.53a.56.56,0,0,1-.49,0l-2.12-1.23c-.12-.07-.11-.2,0-.28l.92-.53A.54.54,0,0,1,78,93.68Z"/><path class="cls-3" d="M74.14,41.67l-2.81-1.62a.78.78,0,0,1-.34-.83h0a.39.39,0,0,1,.6-.29l2.81,1.62a.82.82,0,0,1,.34.84h0A.38.38,0,0,1,74.14,41.67Z"/><path class="cls-3" d="M80.84,45.54l-4.15-2.39a.81.81,0,0,1-.34-.83h0A.39.39,0,0,1,77,42l4.15,2.39a.81.81,0,0,1,.34.83h0A.39.39,0,0,1,80.84,45.54Z"/><path class="cls-3" d="M69.24,54.8l-2.81-1.62a.82.82,0,0,1-.35-.84h0a.4.4,0,0,1,.61-.28l2.81,1.62a.8.8,0,0,1,.34.83h0A.39.39,0,0,1,69.24,54.8Z"/><path class="cls-3" d="M75.21,58.25l-4.15-2.4a.8.8,0,0,1-.34-.83h0a.39.39,0,0,1,.6-.29l4.15,2.4a.8.8,0,0,1,.34.83h0A.39.39,0,0,1,75.21,58.25Z"/><path class="cls-3" d="M65.85,39.54l-1.76-1a.78.78,0,0,1-.34-.83h0a.39.39,0,0,1,.6-.29l1.75,1a.81.81,0,0,1,.35.84h0A.38.38,0,0,1,65.85,39.54Z"/><path class="cls-3" d="M71.26,45.33l-5.37-3.1a.8.8,0,0,1-.34-.83h0a.39.39,0,0,1,.6-.29l5.37,3.1a.8.8,0,0,1,.34.83h0A.39.39,0,0,1,71.26,45.33Z"/><path class="cls-3" d="M66.57,47.94l-1.76-1a.78.78,0,0,1-.34-.83h0a.39.39,0,0,1,.6-.29l1.75,1a.79.79,0,0,1,.35.83h0A.39.39,0,0,1,66.57,47.94Z"/><path class="cls-3" d="M76.11,64.09l-4.69-2.71a.8.8,0,0,1-.34-.83h0a.39.39,0,0,1,.6-.29L76.37,63a.81.81,0,0,1,.35.83h0A.4.4,0,0,1,76.11,64.09Z"/><path class="cls-3" d="M64.85,52.27l-1.12-.65a.81.81,0,0,1-.35-.84h0a.39.39,0,0,1,.6-.28l1.13.65a.78.78,0,0,1,.34.83h0A.39.39,0,0,1,64.85,52.27Z"/><path class="cls-3" d="M64,57.12l-1.4-.81a.8.8,0,0,1-.34-.83h0a.39.39,0,0,1,.6-.29l1.4.81a.78.78,0,0,1,.34.83h0A.39.39,0,0,1,64,57.12Z"/><path class="cls-3" d="M69.49,60.26,65.8,58.13a.78.78,0,0,1-.34-.83h0a.39.39,0,0,1,.6-.29l3.69,2.13a.82.82,0,0,1,.34.84h0A.39.39,0,0,1,69.49,60.26Z"/><path class="cls-3" d="M64.76,60.19,62.1,58.66a.82.82,0,0,1-.34-.84h0a.39.39,0,0,1,.6-.28L65,59.07a.81.81,0,0,1,.35.83h0A.39.39,0,0,1,64.76,60.19Z"/><path class="cls-3" d="M80.14,66.42l-1.71-1a.8.8,0,0,1-.34-.83h0a.39.39,0,0,1,.6-.29l1.71,1a.82.82,0,0,1,.34.84h0A.39.39,0,0,1,80.14,66.42Z"/><path class="cls-3" d="M73.1,51.71,68.41,49a.78.78,0,0,1-.34-.83h0a.39.39,0,0,1,.6-.29l4.69,2.71a.8.8,0,0,1,.34.83h0A.39.39,0,0,1,73.1,51.71Z"/><path class="cls-3" d="M73.53,49.3l-8.18-4.72a.82.82,0,0,1-.34-.84h0a.39.39,0,0,1,.6-.28l8.18,4.72a.8.8,0,0,1,.34.83h0A.39.39,0,0,1,73.53,49.3Z"/><path class="cls-3" d="M69,52l-4.69-2.71a.81.81,0,0,1-.35-.83h0a.4.4,0,0,1,.61-.29l4.69,2.71a.8.8,0,0,1,.34.83h0A.39.39,0,0,1,69,52Z"/><path class="cls-3" d="M76.66,53.77l-1.71-1a.8.8,0,0,1-.34-.83h0a.39.39,0,0,1,.6-.29l1.71,1a.8.8,0,0,1,.34.83h0A.39.39,0,0,1,76.66,53.77Z"/><path class="cls-3" d="M93.49,52.84,83.39,47a.82.82,0,0,1-.34-.84h0a.38.38,0,0,1,.6-.28l10.09,5.82a.81.81,0,0,1,.35.84h0A.39.39,0,0,1,93.49,52.84Z"/><path class="cls-3" d="M68.82,57.22,63.18,54a.8.8,0,0,1-.34-.83h0a.39.39,0,0,1,.6-.29l5.64,3.26a.81.81,0,0,1,.35.83h0A.4.4,0,0,1,68.82,57.22Z"/><path class="cls-3" d="M68.78,38.58l-4.15-2.4a.8.8,0,0,1-.34-.83h0a.39.39,0,0,1,.6-.29L69,37.46a.8.8,0,0,1,.34.83h0A.39.39,0,0,1,68.78,38.58Z"/><path class="cls-3" d="M64,62.42l-4.81-2.77a.8.8,0,0,1-.34-.83h0a.39.39,0,0,1,.6-.29l4.8,2.77a.8.8,0,0,1,.35.83h0A.39.39,0,0,1,64,62.42Z"/><path class="cls-3" d="M96.52,72.54,93.7,70.92a.8.8,0,0,1-.34-.83h0a.39.39,0,0,1,.6-.29l2.81,1.62a.82.82,0,0,1,.35.84h0A.39.39,0,0,1,96.52,72.54Z"/><path class="cls-3" d="M98.54,63.07,93.17,60a.78.78,0,0,1-.34-.83h0a.39.39,0,0,1,.6-.29L98.79,62a.81.81,0,0,1,.35.84h0A.39.39,0,0,1,98.54,63.07Z"/><path class="cls-3" d="M93.84,65.68l-1.75-1a.81.81,0,0,1-.35-.84h0a.39.39,0,0,1,.6-.28l1.76,1a.81.81,0,0,1,.34.83h0A.39.39,0,0,1,93.84,65.68Z"/><path class="cls-3" d="M92.13,70,91,69.36a.8.8,0,0,1-.34-.83h0a.39.39,0,0,1,.6-.29l1.13.65a.8.8,0,0,1,.34.83h0A.39.39,0,0,1,92.13,70Z"/><path class="cls-3" d="M100.38,69.45l-4.7-2.7a.82.82,0,0,1-.34-.84h0a.38.38,0,0,1,.6-.28l4.69,2.7a.81.81,0,0,1,.35.84h0A.39.39,0,0,1,100.38,69.45Z"/><path class="cls-3" d="M100.8,67l-8.17-4.72a.81.81,0,0,1-.35-.83h0a.4.4,0,0,1,.61-.29l8.17,4.72a.81.81,0,0,1,.35.83h0A.4.4,0,0,1,100.8,67Z"/><path class="cls-3" d="M96.24,69.72,91.54,67a.8.8,0,0,1-.34-.83h0a.39.39,0,0,1,.6-.29l4.69,2.71a.82.82,0,0,1,.35.84h0A.39.39,0,0,1,96.24,69.72Z"/><path class="cls-3" d="M96.1,75l-5.64-3.25a.82.82,0,0,1-.34-.84h0a.39.39,0,0,1,.6-.28l5.64,3.25a.82.82,0,0,1,.34.84h0A.39.39,0,0,1,96.1,75Z"/><polygon class="cls-1" points="108.72 41.18 113.16 39.42 112.16 32.9 110.01 34.8 108.72 41.18"/><path class="cls-1" d="M79.07,10.78,89.77,6.5l-2,4.28-5.72,1.33Z"/><path class="cls-1" d="M112.64,28.52a4.67,4.67,0,0,0-1.74-.59c.6-3.94-1.11-8.1-4.37-10a7.09,7.09,0,0,0-3.06-1c1.28-4.78-.7-10.21-4.73-12.53a7.43,7.43,0,0,0-6.39-.62h0l-.09,0-.16.06L88.75,5.25,90.08,6.4a6.81,6.81,0,0,0-4.21,4.2c-1.52,4,0,8.87,3.5,10.86l20.57,17.35c2.6,1.5,4.18.87,5.33-2.13A6.84,6.84,0,0,0,112.64,28.52Z"/><path class="cls-1" d="M86.81,8.84,98.35,4.23a7.41,7.41,0,0,0-6-.4h0l-.09,0-.16.06L88.75,5.25,90.08,6.4A6.46,6.46,0,0,0,86.81,8.84Z"/><path class="cls-1" d="M102.87,26.14l7.62-3a9.19,9.19,0,0,0-4-5.19,7.85,7.85,0,0,0-.77-.38L95.22,21.72Z"/><path class="cls-3" d="M91.09,5.73l3.27,1.89L100,5.36a8.33,8.33,0,0,0-1.29-.91,8,8,0,0,0-2.22-.88Z"/><path class="cls-3" d="M110,21.84,104.51,24l1.61,2.27,4.71-1.87A10.4,10.4,0,0,0,110,21.84Z"/><path class="cls-3" d="M109,30a4.81,4.81,0,0,0-1.73-.59c.59-3.94-1.16-8.13-4.43-10a6.77,6.77,0,0,0-3-.94c1.28-4.78-.7-10.2-4.73-12.53-4.33-2.51-9.4-.48-11.31,4.53-.07.17-.12.34-.18.51-3.31-1.47-7,.19-8.4,4-1.53,4,0,8.86,3.5,10.86l26.14,15.1c2.6,1.5,5.63.28,6.78-2.72A6.84,6.84,0,0,0,109,30Z"/><path class="cls-7" d="M109.51,29.66a4.62,4.62,0,0,0-1.73-.59c.59-3.94-1.16-8.13-4.43-10a6.89,6.89,0,0,0-3-.93c1.28-4.78-.7-10.21-4.73-12.53a7.37,7.37,0,0,0-7.72,0,7.4,7.4,0,0,1,7.18.27c4,2.33,6,7.75,4.73,12.53a6.77,6.77,0,0,1,3,.94c3.27,1.88,5,6.07,4.43,10A4.81,4.81,0,0,1,109,30a6.84,6.84,0,0,1,2.63,8.16,5.36,5.36,0,0,1-2,2.62,5.22,5.22,0,0,0,2.58-2.92A6.83,6.83,0,0,0,109.51,29.66Z"/><path class="cls-7" d="M83.58,10.93c0-.15.1-.3.16-.44a5.81,5.81,0,0,0-5.19.52A5.86,5.86,0,0,1,83.58,10.93Z"/><path class="cls-2" d="M80.62,11.72a3.49,3.49,0,0,0-1.37.27,5,5,0,0,0-2.46,2.89c-1.35,3.51.09,8,3.13,9.72l26.13,15.1a2.78,2.78,0,0,0,2.34.33A3.25,3.25,0,0,0,110,38.12a6,6,0,0,0-2.27-7,3.28,3.28,0,0,0-1.24-.43l-1.06-.15.14-.91c.54-3.63-1.14-7.47-4-9.12a5.56,5.56,0,0,0-2.41-.76l-1.31-.09.29-1.1C99.33,14.16,97.43,9.1,93.83,7a5.59,5.59,0,0,0-5-.55,6.6,6.6,0,0,0-3.51,3.94l-.16.45L84.5,13l-2-.91A4.41,4.41,0,0,0,80.62,11.72Z"/><polygon class="cls-1" points="93.43 28.51 94.33 28.15 93.63 27.61 93.43 28.51"/><polygon class="cls-1" points="92.98 18.76 93.86 18.4 93.8 18.77 92.98 18.76"/><polygon class="cls-1" points="96.26 26.23 97.17 25.86 95.84 24.52 96.26 26.23"/><path class="cls-1" d="M94.1,28.13l-3.49-2a.55.55,0,0,1-.24-.57l.84-4L95.34,24l-.84,4C94.45,28.14,94.27,28.23,94.1,28.13Z"/><path class="cls-1" d="M93.85,18.41l-4.72,2.37c-.2.1-.13.48.11.62l3.85,2.22,3.85,2.22c.24.14.43-.08.32-.37l-2.8-6.71C94.34,18.47,94.05,18.3,93.85,18.41Z"/><path class="cls-3" d="M93.18,28.5l-3.49-2a.56.56,0,0,1-.23-.57l.83-4,4.13,2.38-.84,4A.26.26,0,0,1,93.18,28.5Z"/><path class="cls-3" d="M92.93,18.78l-4.71,2.37c-.2.1-.13.48.11.62L92.18,24,96,26.21c.25.14.44-.08.32-.37l-2.79-6.71C93.43,18.84,93.14,18.67,92.93,18.78Z"/><path class="cls-4" d="M4.71,107.41l13.94-8a4.79,4.79,0,0,1,4.29.18l28.59,16.6c1.27.73,1.41,1.84.31,2.47l-14,8a4.77,4.77,0,0,1-4.28-.18L5,109.88C3.74,109.15,3.61,108,4.71,107.41Z"/><path class="cls-2" d="M38.45,124l14.28-8.2a1.65,1.65,0,0,0,1-1.34h0V112l-.45.79a3.39,3.39,0,0,0-.9-.72L23.58,95.4a6.08,6.08,0,0,0-5.51-.24l-14.28,8.2a3.13,3.13,0,0,0-.4.28l-.54-.7v2.31h0a2.23,2.23,0,0,0,1.34,1.84l28.76,16.68A6.09,6.09,0,0,0,38.45,124Z"/><path class="cls-3" d="M3.8,101.53l14.28-8.2a6.12,6.12,0,0,1,5.51.24l28.76,16.68c1.63,1,1.8,2.37.39,3.18l-14.28,8.21A6.15,6.15,0,0,1,33,121.4L4.19,104.72C2.56,103.77,2.39,102.35,3.8,101.53Z"/><path class="cls-7" d="M52.74,113.43l-14.28,8.21A6.15,6.15,0,0,1,33,121.4L4.19,104.72a2.44,2.44,0,0,1-1.32-1.59c-.12.68.33,1.43,1.32,2L33,121.82a6.12,6.12,0,0,0,5.51.24l14.28-8.2a1.56,1.56,0,0,0,.93-1.6A1.7,1.7,0,0,1,52.74,113.43Z"/><path class="cls-7" d="M4.71,101.86l13.94-8a4.76,4.76,0,0,1,4.29.19l28.59,16.59c1.27.73,1.41,1.84.31,2.47l-14,8a4.77,4.77,0,0,1-4.28-.19L5,104.34C3.74,103.6,3.61,102.5,4.71,101.86Z"/><path class="cls-4" d="M27.17,104.78l-5.16-3c-.19-.11-.17-.31,0-.43h0a.83.83,0,0,1,.75,0l5.16,3c.19.11.17.3,0,.43h0A.83.83,0,0,1,27.17,104.78Z"/><path class="cls-4" d="M22.28,103.77l-1.84-1.06c-.19-.11-.17-.31,0-.43h0a.83.83,0,0,1,.75,0l1.84,1.07c.19.11.17.3,0,.43h0A.83.83,0,0,1,22.28,103.77Z"/><path class="cls-2" d="M25.37,105.55l-1.84-1.06c-.19-.11-.17-.3,0-.43h0a.83.83,0,0,1,.75,0l1.84,1.06c.19.11.17.3-.05.43h0A.83.83,0,0,1,25.37,105.55Z"/><path class="cls-4" d="M31.62,109.16l-5-2.89c-.19-.11-.17-.3.05-.43h0a.86.86,0,0,1,.75,0l5,2.89c.19.11.17.3-.05.43h0A.83.83,0,0,1,31.62,109.16Z"/><path class="cls-4" d="M25.32,107.34l-6.45-3.73c-.2-.11-.17-.3.05-.43h0a.86.86,0,0,1,.75,0l6.45,3.73c.19.11.16.3-.06.43h0A.84.84,0,0,1,25.32,107.34Z"/><path class="cls-2" d="M33.07,113.63l-15.78-9.11c-.19-.11-.16-.3.06-.43h0a.81.81,0,0,1,.74,0l15.78,9.11c.19.11.17.3,0,.43h0A.83.83,0,0,1,33.07,113.63Z"/><path class="cls-4" d="M37.68,110.84,28.6,105.6c-.19-.11-.17-.3,0-.43h0a.83.83,0,0,1,.75,0l9.08,5.24c.19.11.16.3-.06.43h0A.81.81,0,0,1,37.68,110.84Z"/><path class="cls-3" d="M26.55,119.4l-1.32-.76a.59.59,0,0,1-.24-.46h0c0-.18.11-.26.24-.18l1.32.76a.57.57,0,0,1,.24.46h0C26.79,119.4,26.69,119.48,26.55,119.4Z"/><path class="cls-3" d="M28.64,120.61l-1.32-.76a.56.56,0,0,1-.24-.46h0c0-.18.1-.26.24-.18l1.32.76a.57.57,0,0,1,.24.46h0C28.88,120.61,28.78,120.69,28.64,120.61Z"/></g></g></svg>