<svg xmlns="http://www.w3.org/2000/svg" viewBox="0 0 193.48 139.26"><defs><style>.cls-1{fill:none;}.cls-2{opacity:0.8;}.cls-3{fill:#d3e4ff;}.cls-4{fill:#a9c2ff;}.cls-5{fill:#9bd399;}.cls-6{fill:#ffae73;}.cls-7{fill:#6b98f6;}.cls-8{fill:#173157;}.cls-9{fill:#214d9a;}.cls-10{fill:#1e3865;}.cls-11{fill:#5d83e1;}.cls-12{fill:#f99352;}.cls-13{fill:#2a3967;}.cls-14{fill:#ff912b;}.cls-15{fill:#fc7600;}.cls-16{fill:#6e97f0;}.cls-17{fill:#89aef9;}.cls-18,.cls-19{fill:#4c86e3;}.cls-19{opacity:0.4;}.cls-20{fill:#5d7afb;}.cls-21{fill:#e6f2ff;}.cls-22{fill:#ff7536;}.cls-23{fill:#e3eeff;}.cls-24{fill:#003c6b;}.cls-25{fill:#004480;}.cls-26{fill:#ffa05e;}.cls-27{fill:#0b3563;}.cls-28{fill:#0b4d87;}.cls-29{opacity:0.5;}.cls-30{fill:#accefc;}.cls-31{fill:#f9924f;}.cls-32{fill:#fff;}.cls-33{fill:#134482;}.cls-34{fill:#c23b35;}.cls-35{fill:#f48f4e;}</style></defs><title>website maintianance</title><g id="Layer_2" data-name="Layer 2"><g id="Layer_1-2" data-name="Layer 1"><path class="cls-1" d="M185.13,139c-12.2,0-177.2-.36-177.2-.38S-13,112.82,13.27,86.07c13-13.26-12-30.43,0-45.18C33.76,15.63,54,29.86,70.93,22.76a27.28,27.28,0,0,0,9-6.37,32.84,32.84,0,0,1,5.52-4.58c.3-.21.61-.4.92-.6a36.22,36.22,0,0,1,3.68-2c.85-.41,1.72-.78,2.6-1.12h0a44.26,44.26,0,0,1,4.31-1.4,48.58,48.58,0,0,1,6.42-1.26c1-.12,1.92-.22,2.89-.29,18.88-1.42,40.12,6.56,51.08,18.22a27.7,27.7,0,0,1,4.33,31.21c-5,10.54,15.92,20.62,23.36,32.66C203.91,117.86,185.3,138.55,185.13,139Z"/><g class="cls-2"><path class="cls-3" d="M142.43,67.76a24.32,24.32,0,0,1-1.84,3.93,24,24,0,0,1-44.65-10.5,24.87,24.87,0,0,1,0-3.66,24,24,0,0,1,3.62-10.78l0,0a23.93,23.93,0,0,1,10.1-8.87,23.68,23.68,0,0,1,3.58-1.34c.58-.17,1.18-.31,1.78-.44a23.92,23.92,0,0,1,13,1q.85.32,1.68.69A22.5,22.5,0,0,1,132,38.85a23.63,23.63,0,0,1,7.48,6.88h0a24.41,24.41,0,0,1,2.91,5.54,22.88,22.88,0,0,1,.92,3.16c.15.67.27,1.35.36,2a23.94,23.94,0,0,1,.12,5A24.3,24.3,0,0,1,142.43,67.76Z"/><path class="cls-4" d="M115.89,46.68c-1.42,1.1-1,4-3.49,2.38s-4-2.55-4.69-1.11,1.48,2.24.9,3.81-1.73,1.74-3,.45-1.26-2.54-3.25-2.5-2.84-.77-2.74-2.27a2.13,2.13,0,0,0-.07-.69l0,0a23.93,23.93,0,0,1,10.1-8.87,23.68,23.68,0,0,1,3.58-1.34c.58-.17,1.18-.31,1.78-.44a3.22,3.22,0,0,1,1.83,2c.86,2.53,2.27,1.93,1.07,4.05s-.7,2.63.6,3,2.81.93,2.6,2S117.31,45.59,115.89,46.68Z"/><path class="cls-4" d="M142.43,67.76a24.32,24.32,0,0,1-1.84,3.93,24,24,0,0,1-6.7,7.35,2.72,2.72,0,0,1-1.79-.7c-2.4-2.15.78-4.43,2.46-5.54s-1.44-1.48-3-3.64,2.11-5.09-.25-5.25-5.24-.31-5.72-2.84,2-2,1.57-4.14S128.77,54.4,131,55s2.47-1,5.19-.28,1.44,4.09,4.45,4.93,2.63,1.46,2.63,1.46a1.43,1.43,0,0,1,.56.35A24.3,24.3,0,0,1,142.43,67.76Z"/><path class="cls-4" d="M143.68,56.46c-2.86.3-2.67-3.27-5.1-3.06s-1.4-1.53-2.61-3.32-5.31-.83-4.48-2.65,3.12-.39,4.19-1.7,3.33-.06,3.33-.06a1.27,1.27,0,0,1,.47.06h0a24.41,24.41,0,0,1,2.91,5.54,22.88,22.88,0,0,1,.92,3.16C143.47,55.1,143.59,55.78,143.68,56.46Z"/><path class="cls-4" d="M125.54,42.55s1.95-1.37.12-2.65-2-.56-3.56-1.3-2.58.26-1.88,2,.72,4.66,2.29,3.69S124.24,42.23,125.54,42.55Z"/></g><path class="cls-5" d="M13.38,138.64h8.36c.45-.38-.31-1.24-1.1-1.3a4.57,4.57,0,0,0-1.28.15c-.11-1.53-.77-8.4-3.25-8.13-2.78.31,0,3,.79,4.64a38.31,38.31,0,0,1,1.48,3.71l-.7.14c-.37-1.14-1.74-4.95-3.49-4.73-2,.26-1.23,1.79.23,2.7,1.06.67,2.37,1.62,3,2.07a8.86,8.86,0,0,1-1.64.14A3.48,3.48,0,0,0,13.38,138.64Z"/><path class="cls-5" d="M146.54,138.64h-7.77c-.42-.35.29-1.15,1-1.21a4.63,4.63,0,0,1,1.19.14c.11-1.42.72-7.8,3-7.55,2.59.29,0,2.81-.73,4.31a33.65,33.65,0,0,0-1.38,3.44l.65.13c.34-1.05,1.62-4.59,3.24-4.39,1.91.25,1.14,1.67-.21,2.51-1,.62-2.2,1.5-2.78,1.93a8.43,8.43,0,0,0,1.52.12A3.28,3.28,0,0,1,146.54,138.64Z"/><path class="cls-6" d="M152.09,87.7s.19-1.84-.78-1.78-1.21.5-1.11.86a10.3,10.3,0,0,0,1.05,1.52Z"/><path class="cls-7" d="M167.08,91.38a15.71,15.71,0,0,1-3.35,2.7l-.69.41A26.09,26.09,0,0,1,159.91,96l-.47.17A22.29,22.29,0,0,1,154,97.47h-.39c-2.38-.1-2.67-9.35-2.67-9.35a1.18,1.18,0,0,1,1.49-.69s1.86,5.22,2.52,5.65,4-4.78,6.92-5.14C163.82,87.71,167.08,91.38,167.08,91.38Z"/><path class="cls-8" d="M160.68,136.47s.18,2-.25,2.24h-5.51s0-.63.89-.77,2.43-.66,2.7-1.82S160.68,136.47,160.68,136.47Z"/><path class="cls-9" d="M156.64,111.83c0,1.34.09,2.71.22,3.94.59,5.86.8,12.93.89,14.29.14,2.37.61,6.15.61,6.15a3,3,0,0,0,2.74.46,62.29,62.29,0,0,0,1.83-11.18c0-.09,0-.19,0-.28,0-.76.08-1.63.13-2.56.27-6.27.57-15.57.57-15.57l-6.91-1.62S156.57,108.52,156.64,111.83Z"/><path class="cls-10" d="M156.64,111.83c1.75,3,5.09,8.59,6.43,10.82.27-6.27.57-15.57.57-15.57l-6.91-1.62S156.57,108.52,156.64,111.83Z"/><path class="cls-11" d="M159.44,96.21A22.29,22.29,0,0,1,154,97.47a5.41,5.41,0,0,0,2.63-1.16c.69-.84,1.85-3.11,2.78-2.18C159.83,94.56,159.7,95.42,159.44,96.21Z"/><path class="cls-6" d="M171.05,110.85a10.69,10.69,0,0,1,.36,2.06,7.35,7.35,0,0,1-.75,2c-.26.31-.27-1.37-.45-1.63s-.08.63-.21.7-.38-.67-.48-.94.37-1.19.42-1.85S171.05,110.85,171.05,110.85Z"/><path class="cls-8" d="M174.4,134.15s1,.9.79,1.53-1.08,1.06-1.2,1.84-.6,1.2-1,1.2h-2.05s-.31-.55.45-.71,1-1.08,1-1.93a14.6,14.6,0,0,1,.07-2l1.62-.38Z"/><path class="cls-9" d="M157.82,107.22s6.47,13.84,9.91,19.91,4.52,7.77,4.52,7.77,2-.78,2.15-1.31c0,0-1.32-11.72-3.62-14.58-1.31-1.61-2.84-6.46-2.91-8.15a29.75,29.75,0,0,0-1.58-5.74Z"/><path class="cls-7" d="M156.62,106.5a11.14,11.14,0,0,0,5.68,3c1.57.31,4.76.6,5.55-.52a2,2,0,0,0,.14-1.26c-.1-1.58-.5-4.63,1.29-10.76a10.62,10.62,0,0,0,.35-1.63c.39-3.14.35-5.51-2.37-6.77-4.08-1.89-5.75-.34-5.75-.34a6.85,6.85,0,0,0-3.16,4C156.37,98,156.62,106.5,156.62,106.5Z"/><path class="cls-6" d="M164.81,88a3,3,0,0,1-3.05.2,3.82,3.82,0,0,1,0-1.25c0-.59.08-1.16.08-1.16l1.45-1,1.38-.9C164.45,87,165.12,87.77,164.81,88Z"/><path class="cls-12" d="M164.38,85.2a4.44,4.44,0,0,1-2.67,1.74c0-.59.08-1.23.08-1.23l1.45-.89Z"/><path class="cls-6" d="M160.49,85.41s3.51,1.31,4.29-.85,1.76-3.45-.45-4.38-2.94-.26-3.38.4S159.6,85,160.49,85.41Z"/><path class="cls-13" d="M167,80.42s.12,0,.3,0a.72.72,0,0,0-.3-.15.86.86,0,0,0-.42-.86.51.51,0,0,1,.18.41c-.38-.57-1.31-1.12-4.13-1.45-3.72-.44-3,2.15-2.56,2.52s1.76-.16,2.63.09.79,1.55,1.05,1.79.21-.1.65-.21.35.58.15,1,.24,1.1.24,1.1l.68-.49A6.45,6.45,0,0,0,167,80.58,1.24,1.24,0,0,0,167,80.42Z"/><path class="cls-11" d="M168,107.67c-.1-1.58-.5-4.63,1.29-10.76a10.62,10.62,0,0,0,.35-1.63h0c-1.33-.44-3.76.53-3.76.53S165.3,103.91,168,107.67Z"/><path class="cls-7" d="M168,88.92s1.64.6,2.68,4.93c.69,2.87,2,7.08,2.11,8.4s-1.46,9.07-1.46,9.07a1,1,0,0,1-.77.05,1.28,1.28,0,0,1-.78-.46s-.38-5.16-.28-7.6c0-1-4.69-7.42-7.24-8.24C161.25,94.74,168,88.92,168,88.92Z"/><path class="cls-4" d="M145.08,83.31a54,54,0,0,1,10.2.87l.57-1.44.63-1.57S151,78.8,147.7,75.52Z"/><path class="cls-14" d="M147.77,75.44l-2.72,8h0a.72.72,0,0,1-.47-.93L147,75.79a.59.59,0,0,1,.8-.35Z"/><path class="cls-14" d="M150.36,89.28h0a1,1,0,0,0,1.16-.77l.93-4.68a1,1,0,0,0-.77-1.15h0a1,1,0,0,0-1.15.76l-.93,4.69A1,1,0,0,0,150.36,89.28Z"/><path class="cls-7" d="M145.08,83.31a54,54,0,0,1,10.2.87l.57-1.44A26,26,0,0,0,145.08,83.31Z"/><path class="cls-14" d="M153.77,83.89l1.48.26a1.63,1.63,0,0,0,1.83-1,1,1,0,0,0,.09-.26c.35-1.55-.49-1.83-.49-1.83l-1.91-.74-.6,2.14h0Z"/><path class="cls-15" d="M153.77,83.89l1.48.26a1.63,1.63,0,0,0,1.83-1,7.11,7.11,0,0,0-2.91-.69h0Z"/><path class="cls-6" d="M150.49,84.74s.72.29.59.61-1.05.76-1.2.51S150,84.48,150.49,84.74Z"/><path class="cls-6" d="M152.1,87.41a10.18,10.18,0,0,0,.15-1.08c0-.34.05-.62,0-.63s-.14,0-.17.16-.16.79-.16.79l.06.65Z"/><path class="cls-16" d="M80.54,86.92l-4.1,48.74s-.43,3,1.77,3h18s-2.72-.61-2.69-2c0-1.63,4.79-50.16,4.79-50.16Z"/><path class="cls-17" d="M97.55,137.76c-.71,0-14.63,0-18.14,0-1.54,0-1.81-1.37-1.82-2.24a3.72,3.72,0,0,1,0-.72l.1-1.27.28-3.23.24-2.85.3-3.67.26-3.09L81.74,86l17.75-.46s-2,20.31-3.41,35.09c-.16,1.65-.31,3.23-.45,4.7,0,.47-.09.93-.13,1.38-.13,1.4-.25,2.68-.36,3.82,0,.6-.1,1.15-.15,1.66-.18,2-.28,3.27-.29,3.51a2.34,2.34,0,0,0,0,.39C95,137.69,97.28,137.76,97.55,137.76Z"/><polygon class="cls-4" points="37.41 60.4 47.4 100.51 48.77 106 53.42 124.68 139.81 124.68 122.67 60.4 37.41 60.4"/><polygon class="cls-17" points="37.41 60.4 36.03 60.86 51.58 126.08 53.42 124.68 37.41 60.4"/><polygon class="cls-16" points="51.58 126.08 137.44 126.08 139.81 124.68 53.42 124.68 51.58 126.08"/><rect class="cls-4" x="81.73" y="137.76" width="18.59" height="0.88" transform="translate(182.05 276.4) rotate(180)"/><polygon class="cls-18" points="95.59 126.08 95.5 126.75 78.02 130.28 78.25 127.43 78.37 126.08 95.59 126.08"/><path class="cls-19" d="M97.55,137.76c-.71,0-14.63,0-18.14,0-1.54,0-1.81-1.37-1.82-2.24L95,132.23c-.18,2-.28,3.27-.29,3.51a2.34,2.34,0,0,0,0,.39C95,137.69,97.28,137.76,97.55,137.76Z"/><polygon class="cls-4" points="37.41 60.4 122.67 60.4 136.51 112.06 50.27 112.06 37.41 60.4"/><polygon class="cls-7" points="132.49 109.82 52.66 109.82 49.8 98.46 48.7 94.06 48.25 92.27 45.32 80.59 45.17 79.98 43.62 73.81 42.92 71.05 42.33 68.69 40.95 63.17 119.62 63.17 121.15 68.69 121.8 71.05 122.56 73.81 127.57 92.01 127.57 92.01 128 93.55 128.2 94.26 131.66 106.83 132.49 109.82"/><polygon class="cls-20" points="121.15 68.69 42.33 68.69 40.95 63.17 119.62 63.17 121.15 68.69"/><path class="cls-21" d="M44.2,65.66a.53.53,0,0,1,.52-.69.94.94,0,0,1,.86.69.52.52,0,0,1-.52.69A.93.93,0,0,1,44.2,65.66Z"/><path class="cls-21" d="M46.49,65.66A.53.53,0,0,1,47,65a1,1,0,0,1,.87.69.52.52,0,0,1-.52.69A1,1,0,0,1,46.49,65.66Z"/><path class="cls-21" d="M49,65.66a.52.52,0,0,1,.51-.69,1,1,0,0,1,.87.69.52.52,0,0,1-.52.69A.93.93,0,0,1,49,65.66Z"/><path class="cls-22" d="M104,31.06c3.23-3.79,8.2-11.4,11.55-15.3a1.23,1.23,0,0,0-.94-2h-6.09l5.75-13a.51.51,0,0,0-.88-.51L99.46,18.82a.77.77,0,0,0,.71,1.22l6.9-.85L103,30.47A.59.59,0,0,0,104,31.06Z"/><path class="cls-4" d="M75.27,54.13c.73-3.72,1.19-10.64,2-14.48a.94.94,0,0,0-1.39-1l-4,2.28L70.74,30.14a.39.39,0,0,0-.77,0L67.7,47.69a.58.58,0,0,0,.93.54l4.26-3.14,1.5,9A.45.45,0,0,0,75.27,54.13Z"/><path class="cls-23" d="M136,110.92l-69.36,5.85A7,7,0,0,1,59.69,107L89.07,41.25a7,7,0,0,1,12.12-1l40,59.92A6.94,6.94,0,0,1,136,110.92Z"/><path class="cls-22" d="M136.19,113.55l-69.36,5.84a9.58,9.58,0,0,1-9.55-13.45L86.67,40.17a9.58,9.58,0,0,1,16.71-1.41l40,59.93a9.58,9.58,0,0,1-7.17,14.86ZM95.05,39.78a4.27,4.27,0,0,0-3.57,2.54L62.09,108.09a4.31,4.31,0,0,0,4.3,6l69.36-5.84a4.31,4.31,0,0,0,3.22-6.69L99,41.69A4.27,4.27,0,0,0,95.05,39.78Z"/><path class="cls-22" d="M93.42,100.86a6.57,6.57,0,0,1,.27-2.52,6,6,0,0,1,1.19-2.08,6.2,6.2,0,0,1,2-1.48,7.72,7.72,0,0,1,2.73-.7,7.9,7.9,0,0,1,2.83.23,6.29,6.29,0,0,1,2.24,1.12,6,6,0,0,1,1.51,1.86,6.63,6.63,0,0,1,.42,4.94,5.82,5.82,0,0,1-1.19,2.06,6.22,6.22,0,0,1-2,1.48,7.89,7.89,0,0,1-2.75.7,7.74,7.74,0,0,1-2.81-.23,6.09,6.09,0,0,1-2.21-1.13,5.73,5.73,0,0,1-1.52-1.83A6.36,6.36,0,0,1,93.42,100.86Zm10.73-12.55-10,.84-4.29-34,12.82-1.08Z"/><path class="cls-6" d="M50.35,90.4s.22-.49.36-.72.74-.91.85-.76.51,1.19.29,1.48,0,.79-1.07,1.1Z"/><path class="cls-15" d="M38.32,87.31s5.54,4.62,7.7,4.2c1.69-.34,4.37-1.19,4.37-1.19a1.71,1.71,0,0,1,.5,1.48S47.49,95,45.06,95a7.7,7.7,0,0,1-5.57-1.88Z"/><path class="cls-24" d="M28.6,136.1s.16,2.6.67,2.63h2.54l3.17,0a1,1,0,0,0-.95-.92,4.31,4.31,0,0,1-3-2C30.41,134.48,28.6,136.1,28.6,136.1Z"/><path class="cls-9" d="M28.42,136.28a6.61,6.61,0,0,0,1.71.32,6.49,6.49,0,0,0,1.6-.22,45.71,45.71,0,0,1,1.18-5.62c.52-2,1.27-4.62,2.33-7.85a105.79,105.79,0,0,0,3.91-14.66v0h0l-9-4s1.12,12.32-.3,17a20.29,20.29,0,0,0-.52,2.27A90.63,90.63,0,0,0,28.42,136.28Z"/><path class="cls-10" d="M32.91,130.76c.52-2,1.27-4.62,2.33-7.85a105.79,105.79,0,0,0,3.91-14.66v0l-9-4s1.12,12.32-.3,17C29.62,121.94,32.91,130.76,32.91,130.76Z"/><path class="cls-25" d="M35.65,136.1s.16,2.6.67,2.63h2.54l3.17,0a1,1,0,0,0-1-.92,4.31,4.31,0,0,1-3-2C37.46,134.48,35.65,136.1,35.65,136.1Z"/><path class="cls-9" d="M40.77,104.53a128.33,128.33,0,0,1-1.26,17.78c-1.38,9.8-.91,13.95-.91,13.95a9.13,9.13,0,0,1-1.34.34,6,6,0,0,1-2-.23s-2-9.8-1.41-14.7-2.71-16.83-2.71-16.83Z"/><path class="cls-6" d="M34.37,85.86,36.13,87l1.61-.46a3.81,3.81,0,0,0,.37-1.92,10.67,10.67,0,0,0-.06-1.28l-2.38-1-.88-.39s.06.73.07.83A6,6,0,0,1,34.37,85.86Z"/><path class="cls-14" d="M40.81,106.75c-2.19,2.12-10.49,1.76-11-.57s.55-19.86,4.3-21C34.89,85,39,86.33,39,86.33a25.41,25.41,0,0,1,1.08,3.88c.09.42.33,4.9.51,9.09.09,2,.16,3.86.19,5.25A13.77,13.77,0,0,1,40.81,106.75Z"/><path class="cls-26" d="M35,82.78c.48.82,2.18,1.53,3.07,1.86a10.67,10.67,0,0,0-.06-1.28l-2.38-1C35.15,82.3,34.83,82.42,35,82.78Z"/><path class="cls-6" d="M39,83.21s-3.83,1.2-4.54-1.2-1.68-3.86.74-4.72,3.16-.09,3.59.65S39.93,82.84,39,83.21Z"/><path class="cls-27" d="M38.59,77.71s-.24,2.79-.82,2.67-1.21-.38-1.13.46-.56,2.28-1.39,2.28c-1.79,0-3.72-4.59-3.23-5.45C33.42,75.16,40.63,74.66,38.59,77.71Z"/><path class="cls-15" d="M38,85.28a17.78,17.78,0,0,0-3.18-1.17c-.33.11-.74,1.11-.74,1.11L39,86.33A2.38,2.38,0,0,0,38,85.28Z"/><path class="cls-28" d="M55.47,98.85,39.76,113.64c-.3.29-.69.38-.86.21l-.53-.57c-.17-.17,0-.56.26-.85l15.7-14.78c.31-.29.7-.39.87-.21l.53.56C55.89,98.18,55.78,98.56,55.47,98.85Z"/><path class="cls-7" d="M46.66,107.15l-6.9,6.49c-.3.29-.69.38-.86.21l-.53-.57c-.17-.17,0-.56.26-.85L45.52,106Z"/><path class="cls-28" d="M51.86,93.27a12.17,12.17,0,0,0,3.34,5.37A12.31,12.31,0,0,0,72.27,80.9l-.2-.19A12.31,12.31,0,0,0,51.86,93.27Zm3.52-11.36a11.34,11.34,0,1,1,.49,16A11.33,11.33,0,0,1,55.38,81.91Z"/><g class="cls-29"><path class="cls-30" d="M71.9,97.45a11.35,11.35,0,1,1-.49-16A11.24,11.24,0,0,1,71.9,97.45Z"/></g><path class="cls-15" d="M40.82,104.55c-8.65-6.17-7.93-14.4-7.93-14.4a20.68,20.68,0,0,1,7.74,9.15C40.72,101.26,40.79,103.16,40.82,104.55Z"/><path class="cls-6" d="M49.37,101.74a2.31,2.31,0,0,0,1.1-.68s.26,0,0,.57c0,.05-.08.17-.13.25s0,.08.05.08a6,6,0,0,1,1.38,0c.1,0,.13.24.12.34a.82.82,0,0,1-.18.59,3,3,0,0,1-1.09.57,3.36,3.36,0,0,1-1.7-.21l-.55-.26.17-1,.14,0C48.86,102.07,49.14,101.8,49.37,101.74Z"/><path class="cls-14" d="M35.57,86.33s-7.77,1.48,2.29,12.75c1.61,1.8,10.31,4.14,10.31,4.14s.88-.75.44-1.36c0,0-6-4.34-7.31-5-.59-.31-2.3-6.94-3.27-8.53A4.34,4.34,0,0,0,35.57,86.33Z"/><path class="cls-6" d="M50.56,90.53a3.73,3.73,0,0,0,.31-.74,4.2,4.2,0,0,1,.5-1.13c.05-.06.23,0,.25.24a1.22,1.22,0,0,1-.13.49,5.53,5.53,0,0,0-.16,1C51.21,90.76,50.56,90.53,50.56,90.53Z"/><path class="cls-6" d="M53.66,71.24a.48.48,0,0,0-.09.5h0a3.05,3.05,0,0,0,1,1.08l.16.14,0,0,0,0c.43.4.27.49,1,1.3s1.5.94,1.67.86-.15-.56-.48-1.11L57,74l-.13-.22c-.39-.66-.29-1-.2-2,.08-.8,1.25-4.47,1.25-4.47l-1.7-.3s-.51,2.93-1.08,3.38c-.3.24-.64.24-.93.42l-.06,0A2,2,0,0,0,53.66,71.24Z"/><path class="cls-10" d="M53.66,71.24a.48.48,0,0,0-.09.5h0a3.38,3.38,0,0,0,1,1.08l.16.14,0,0,0,0c.43.4.27.49,1,1.3s1.5.94,1.67.86-.15-.56-.48-1.11a3.72,3.72,0,0,1-1.58-1.17c-.52-.65-.87-1.49-1.22-2h-.1A2,2,0,0,0,53.66,71.24Z"/><path class="cls-6" d="M67.37,70.18c.1.53.85.44,1.69.24s.63,0,1.82-.1,1.55-.57,1.59-.75-.56-.21-1.19-.28l-.24,0a5.17,5.17,0,0,1-1.88-.93,7.6,7.6,0,0,1-1.52-1.81L66,66.65s.85,1.3,1.18,1.86a1.88,1.88,0,0,1,.16,1.11A2.09,2.09,0,0,0,67.37,70.18Z"/><path class="cls-10" d="M69.06,70.42c.83-.21.63,0,1.82-.1s1.55-.57,1.59-.75-.56-.21-1.19-.28h0a3.46,3.46,0,0,1-1.71.53c-.8,0-1.66-.21-2.22-.21a2.09,2.09,0,0,0,0,.56C67.47,70.71,68.22,70.62,69.06,70.42Z"/><path class="cls-10" d="M61.12,59.75l-1.53,4.1-2,5.36a3.26,3.26,0,0,1-1.06-.1,4.78,4.78,0,0,1-1-.5,57.32,57.32,0,0,1,1.59-9A5.75,5.75,0,0,1,58,57.64C59.59,55.75,61.12,59.75,61.12,59.75Z"/><path class="cls-9" d="M59.57,53.23c-.87-.28-3.13,0-5.59.44a1.67,1.67,0,0,1-1.72-.78h0l-6.18-.48s-2,4.52-.93,7.41a1.1,1.1,0,0,0,1.08.69h4.93c3.08,0,6.51-2.11,7-2.2.72-.15,1,1.31,1.74,2.83s6.83,6.77,6.83,6.77A5.14,5.14,0,0,0,68,67.78a1.32,1.32,0,0,0,.57-.36S61.82,54,59.57,53.23Z"/><path class="cls-10" d="M51.61,34.74a2.22,2.22,0,0,0-1.18-.31,2.73,2.73,0,0,1-.57,0c-2.36-.35-3.78,3.08-3.86,4.11-.16,1.9-1.16,2.19-2.58,3.38-2.84,2.39-2,5.16-.46,6.2.93.61,2.58,0,2.58,0s4.49-2.5,6.69-3.71C55.53,43.91,52.94,35.53,51.61,34.74Z"/><path class="cls-6" d="M50.38,43.35a2.91,2.91,0,0,1-1.81,0A3.21,3.21,0,0,1,47.37,42c.31,0,.66-.29.92-2.08l.14,0,2.24.81s-.17.72-.27,1.4S50.26,43.27,50.38,43.35Z"/><path class="cls-31" d="M50.67,40.74s-.09.39-.23,1.11a2.52,2.52,0,0,1-2-1.92Z"/><path class="cls-6" d="M51,41.45s-3.06-.41-2.78-2.31.08-3.24,2.05-3.06,2.24,1,2.3,1.63S51.8,41.51,51,41.45Z"/><path class="cls-10" d="M52.46,36.66s-2,1.69-3.3,1.83a2.58,2.58,0,0,1-1.84-.3,5.14,5.14,0,0,0,1.26-1.7,1,1,0,0,1,.78-.55C50.31,35.85,52.12,35.82,52.46,36.66Z"/><path class="cls-10" d="M51.23,36.51a4.74,4.74,0,0,1,.86,1.11,3.68,3.68,0,0,1,.1,2s1-2,.45-3A.82.82,0,0,0,51.23,36.51Z"/><path class="cls-14" d="M53,47.86c-.09,6.2,0,4.91-.7,5.49a2.54,2.54,0,0,1-1.23.27c-1.9.13-5.25-.19-5.37-.54-.44-1.22-.13-1.59-.5-3.46,0-.19-.08-.41-.14-.64-.3-1.28-.6-1.71.48-3.77a16,16,0,0,1,2.1-3.31c2.59,1.53,2.8.24,2.8.24S53,44.84,53,47.86Z"/><path class="cls-9" d="M59.59,63.85l-2,5.36a3.26,3.26,0,0,1-1.06-.1,4.78,4.78,0,0,1-1-.5,57.32,57.32,0,0,1,1.59-9Z"/><path class="cls-14" d="M50.4,42.14s2.66.46,3,1.6,1.34,8.11,1.34,8.11-.75.74-1.37.11-2-6.51-2-6.51Z"/><path class="cls-15" d="M51,53.62c-1.9.13-5.25-.19-5.37-.54-.44-1.22-.13-1.59-.5-3.46L46.08,47s-.15,2.88.7,3.64,3.47,1.46,3.88,2.09A2.34,2.34,0,0,1,51,53.62Z"/><path class="cls-6" d="M48.85,52.41A7.87,7.87,0,0,1,51,52.16a4.46,4.46,0,0,1,1.13,1c.1.21-.67-.16-.92-.22a2.09,2.09,0,0,0-.8.17,2.54,2.54,0,0,1-1.42.14Z"/><path class="cls-14" d="M47.6,41.9s-2.52.15-3.39,1.37c-1.23,1.71-3.67,9-2.27,10,1.57,1.09,7.15.28,7.15.28A2.31,2.31,0,0,0,49,52.25c-.26-.42-4.46-1.1-4.66-1.3s2.43-3.78,2.43-4.36S47.6,41.9,47.6,41.9Z"/><path class="cls-6" d="M51.12,52.68a3.52,3.52,0,0,0,.52.57.43.43,0,0,0,.21,0l-.26-.48Z"/><path class="cls-6" d="M51,52.16l1.14.56a.23.23,0,0,1-.19.07,2.88,2.88,0,0,1-.49-.14Z"/><polygon class="cls-10" points="60.79 53.47 48.85 53.46 48.85 53.73 60.68 53.73 60.79 53.47"/><polygon class="cls-10" points="51.64 53.73 60.68 53.73 63.4 46.97 54.38 46.97 51.64 53.73"/><path class="cls-32" d="M58.4,50.35a.31.31,0,0,0-.31-.43.61.61,0,0,0-.55.43.31.31,0,0,0,.31.43A.62.62,0,0,0,58.4,50.35Z"/><path class="cls-27" d="M119.58,79.23a2.58,2.58,0,0,0-2.06.1c-3.51.15-3.64,3.74-3.23,5.08.58,1.88-1.47,3.36.8,4.12,2.63.88,4.84-.17,4.69.29C128.11,89.47,122.35,80.15,119.58,79.23Z"/><path class="cls-14" d="M115.94,96.71a8.59,8.59,0,0,1-.94,1.41c-.73.92-4.55-1.25-4.22-1.41s2.25-5.7,2.71-6.4,2-1,2-1Z"/><path class="cls-33" d="M128.84,134s1,1,.85,1.65-1.16,1.14-1.29,2-.64,1.29-1.1,1.29h-2.21s-.34-.59.48-.77,1.13-1.16,1.08-2.07a16.19,16.19,0,0,1,.08-2.13l1.75-.4Z"/><path class="cls-8" d="M119.91,134.44s.38,4.08-.08,4.31H113.9s0-.69.95-.84,2.62-.71,2.91-2S119.91,134.44,119.91,134.44Z"/><path class="cls-14" d="M124.47,94a23.14,23.14,0,0,1,0,2.74,8,8,0,0,1-1.2,2.64c-.36.82-.76,1-.76,1l-3.11.76-1.1.27-3.45-1s-1.57-4.39-.94-6.86a19,19,0,0,1,1.59-4.18A24.67,24.67,0,0,1,122,89Z"/><path class="cls-15" d="M124.77,96.73c-.06,1-1.36,2.28-1.5,2.61-.36.82-.76,1-.76,1l-3.11.76-.57-1.61s4.55-1.19,3.82-5.4Z"/><path class="cls-10" d="M115.07,101a51.08,51.08,0,0,0-1.82,7.14c-.11,1.81,3.27,25.73,3.4,26.56s1.11,1.29,1.11,1.29a1.5,1.5,0,0,0,1.09.08,2.68,2.68,0,0,0,1.17-.55s1.33-17.06.51-23.15a95.92,95.92,0,0,1-.84-11.37Z"/><path class="cls-9" d="M122.31,100.81s2.61,3.49,2.85,5.86.38,10.67.9,13,2.42,6.75,2.42,13.94a1.45,1.45,0,0,1-.81.63,5.16,5.16,0,0,1-.71.19,1.12,1.12,0,0,1-1.25-.59c-1.29-2.59-5.38-10.94-5.59-12.67-.15-1.23-1.45-9.35-4.27-14.12-.67-1.14.42-5.69.42-5.69Z"/><path class="cls-10" d="M114.8,100.14a3.49,3.49,0,0,0,2,.57c1.62,0,5.66-.41,5.66-.41a3.27,3.27,0,0,1,.17,1s-4.93,1.24-7.78.18A1.79,1.79,0,0,1,114.8,100.14Z"/><path class="cls-32" d="M116.45,102.12a.85.85,0,1,1,.75-.84A.8.8,0,0,1,116.45,102.12Zm0-1.44a.6.6,0,1,0,.5.6A.55.55,0,0,0,116.45,100.68Z"/><polygon class="cls-34" points="120.01 103.65 112.61 103.72 108.96 95.15 116.37 95.08 120.01 103.65"/><path class="cls-6" d="M119.05,99.78l-.55-.67a1.76,1.76,0,0,0-.63-.38c-.27-.06-.83-.38-.89-.29s.44.74.44.74h0c-.56.43-2,0-2.14.23s.29.65.56.91a2,2,0,0,0,1.64.48c.44-.14,1.13-.27,1.13-.27Z"/><path class="cls-6" d="M109.52,96.66s.47-.53.76-.28-.07,1.51-.36,1.38S109.36,96.81,109.52,96.66Z"/><path class="cls-14" d="M122,89s2.12.24,3.64,3c1.2,2.18,3.25,6.2,2.48,7.33-.34.5-3.6,2.28-9.88,1.26a1.92,1.92,0,0,1,.6-1.16s5.29-1.7,5.28-2c0-.64-.71-1.19-3.67-4.15C119.64,92.47,122,89,122,89Z"/><path class="cls-6" d="M120.36,89.13c.07-.09,0-.4-.14-1a10.23,10.23,0,0,1-.28-2.26l-.16,0-2.63.44s.06.7.07,1.37h0c0,.58-.16,1.45,0,1.56A3.35,3.35,0,0,0,120.36,89.13Z"/><path class="cls-35" d="M117.15,86.36s.06,1,.06,1.65c1.47,0,2.25-1.46,2.57-2.09Z"/><path class="cls-6" d="M117,87.54s3.44-.49,3.1-2.63-.12-3.64-2.33-3.42-2.51,1.11-2.58,1.85S116.09,87.62,117,87.54Z"/><path class="cls-27" d="M116.19,81.69s1.34,2.36,2.85,2.5a2.84,2.84,0,0,0,2.06-.35,4.15,4.15,0,0,1-1.72-2.2S116.71,80.38,116.19,81.69Z"/><path class="cls-27" d="M116.46,81.85a2.11,2.11,0,0,0-.86.93,3.47,3.47,0,0,0-.15,2s-1-1.6-.34-2.69S116.46,81.85,116.46,81.85Z"/><rect class="cls-10" x="1.17" y="138.64" width="191.41" height="0.62" rx="0.21" ry="0.21"/></g></g></svg>