<svg xmlns="http://www.w3.org/2000/svg" xmlns:xlink="http://www.w3.org/1999/xlink" viewBox="0 0 215.19 146.69"><defs><style>.cls-1{fill:none;}.cls-2{isolation:isolate;}.cls-3{clip-path:url(#clip-path);}.cls-4{fill:#f1f1f4;}.cls-5{fill:url(#Áåçûìÿííûé_ãðàäèåíò_29);}.cls-6{fill:url(#Áåçûìÿííûé_ãðàäèåíò_28);}.cls-7{fill:#e5e2ff;}.cls-8{fill:url(#Áåçûìÿííûé_ãðàäèåíò_28-2);}.cls-10,.cls-9{opacity:0.62;}.cls-10,.cls-100,.cls-119,.cls-18,.cls-19,.cls-20,.cls-23,.cls-25,.cls-31,.cls-34,.cls-36,.cls-39,.cls-40,.cls-41,.cls-42,.cls-43,.cls-44,.cls-45,.cls-46,.cls-47,.cls-48,.cls-49,.cls-50,.cls-51,.cls-52,.cls-53,.cls-54,.cls-55,.cls-58,.cls-59,.cls-60,.cls-61,.cls-62,.cls-63,.cls-67,.cls-78,.cls-81,.cls-82,.cls-83,.cls-87,.cls-88,.cls-9,.cls-95,.cls-96,.cls-97,.cls-98,.cls-99{mix-blend-mode:multiply;}.cls-9{fill:url(#Áåçûìÿííûé_ãðàäèåíò_27);}.cls-10{fill:url(#Áåçûìÿííûé_ãðàäèåíò_94);}.cls-11,.cls-119,.cls-14,.cls-15,.cls-23,.cls-25,.cls-40,.cls-41,.cls-42,.cls-43,.cls-44,.cls-45,.cls-46,.cls-47,.cls-48,.cls-50,.cls-52,.cls-53,.cls-54,.cls-55,.cls-58,.cls-60,.cls-61,.cls-62,.cls-63,.cls-83{opacity:0.5;}.cls-11,.cls-14,.cls-15{mix-blend-mode:screen;}.cls-11{fill:url(#Áåçûìÿííûé_ãðàäèåíò_95);}.cls-12{fill:#fff;}.cls-13{fill:url(#Áåçûìÿííûé_ãðàäèåíò_74);}.cls-14{fill:url(#Áåçûìÿííûé_ãðàäèåíò_83);}.cls-15{fill:url(#Áåçûìÿííûé_ãðàäèåíò_83-2);}.cls-16{fill:url(#Áåçûìÿííûé_ãðàäèåíò_26);}.cls-17{fill:url(#Áåçûìÿííûé_ãðàäèåíò_26-2);}.cls-18,.cls-19,.cls-20,.cls-49{opacity:0.76;}.cls-18{fill:url(#Áåçûìÿííûé_ãðàäèåíò_70);}.cls-19{fill:url(#Áåçûìÿííûé_ãðàäèåíò_70-2);}.cls-20{fill:url(#Áåçûìÿííûé_ãðàäèåíò_70-3);}.cls-21{fill:#fe9083;}.cls-22{fill:url(#Áåçûìÿííûé_ãðàäèåíò_354);}.cls-23{fill:url(#Áåçûìÿííûé_ãðàäèåíò_70-4);}.cls-24{fill:url(#Áåçûìÿííûé_ãðàäèåíò_26-3);}.cls-25{fill:url(#Áåçûìÿííûé_ãðàäèåíò_70-5);}.cls-26{fill:url(#Áåçûìÿííûé_ãðàäèåíò_178);}.cls-27{fill:url(#Áåçûìÿííûé_ãðàäèåíò_55);}.cls-28{fill:#cb4d7a;}.cls-29{fill:#ee8183;}.cls-30{fill:url(#Áåçûìÿííûé_ãðàäèåíò_71);}.cls-31,.cls-36,.cls-67,.cls-78,.cls-81,.cls-82,.cls-93,.cls-95{opacity:0.6;}.cls-31{fill:url(#Áåçûìÿííûé_ãðàäèåíò_48);}.cls-32{fill:url(#Áåçûìÿííûé_ãðàäèåíò_71-2);}.cls-33{fill:#e28183;}.cls-34,.cls-39{opacity:0.91;}.cls-34{fill:url(#Áåçûìÿííûé_ãðàäèåíò_73);}.cls-35{fill:url(#Áåçûìÿííûé_ãðàäèåíò_71-3);}.cls-36{fill:url(#Áåçûìÿííûé_ãðàäèåíò_48-2);}.cls-37{fill:url(#Áåçûìÿííûé_ãðàäèåíò_64);}.cls-38{fill:url(#Áåçûìÿííûé_ãðàäèåíò_64-2);}.cls-39{fill:url(#Áåçûìÿííûé_ãðàäèåíò_73-2);}.cls-40{fill:url(#Áåçûìÿííûé_ãðàäèåíò_70-6);}.cls-41{fill:url(#Áåçûìÿííûé_ãðàäèåíò_70-7);}.cls-42{fill:url(#Áåçûìÿííûé_ãðàäèåíò_4);}.cls-43{fill:url(#Áåçûìÿííûé_ãðàäèåíò_4-2);}.cls-44{fill:url(#Áåçûìÿííûé_ãðàäèåíò_4-3);}.cls-45{fill:url(#Áåçûìÿííûé_ãðàäèåíò_4-4);}.cls-46{fill:url(#Áåçûìÿííûé_ãðàäèåíò_4-5);}.cls-47{fill:url(#Áåçûìÿííûé_ãðàäèåíò_4-6);}.cls-48{fill:url(#Áåçûìÿííûé_ãðàäèåíò_4-7);}.cls-49{fill:url(#Áåçûìÿííûé_ãðàäèåíò_70-8);}.cls-50{fill:url(#Áåçûìÿííûé_ãðàäèåíò_70-9);}.cls-51,.cls-59,.cls-96,.cls-97,.cls-98,.cls-99{opacity:0.3;}.cls-51{fill:url(#Áåçûìÿííûé_ãðàäèåíò_70-10);}.cls-52{fill:url(#Áåçûìÿííûé_ãðàäèåíò_4-8);}.cls-53{fill:url(#Áåçûìÿííûé_ãðàäèåíò_70-11);}.cls-54{fill:url(#Áåçûìÿííûé_ãðàäèåíò_4-9);}.cls-55{fill:url(#Áåçûìÿííûé_ãðàäèåíò_4-10);}.cls-56{fill:url(#Áåçûìÿííûé_ãðàäèåíò_25);}.cls-57{fill:#ebefff;}.cls-58{fill:url(#Áåçûìÿííûé_ãðàäèåíò_70-12);}.cls-59{fill:url(#Áåçûìÿííûé_ãðàäèåíò_70-13);}.cls-60{fill:url(#Áåçûìÿííûé_ãðàäèåíò_70-14);}.cls-61{fill:url(#Áåçûìÿííûé_ãðàäèåíò_70-15);}.cls-62{fill:url(#Áåçûìÿííûé_ãðàäèåíò_70-16);}.cls-63{fill:#7a4ac0;}.cls-64{fill:url(#Áåçûìÿííûé_ãðàäèåíò_71-4);}.cls-65{fill:url(#Áåçûìÿííûé_ãðàäèåíò_71-5);}.cls-66{fill:url(#Áåçûìÿííûé_ãðàäèåíò_387);}.cls-67{fill:url(#Áåçûìÿííûé_ãðàäèåíò_48-3);}.cls-68{fill:#38368e;}.cls-69{fill:url(#Áåçûìÿííûé_ãðàäèåíò_59);}.cls-70{fill:url(#Áåçûìÿííûé_ãðàäèåíò_184);}.cls-71{fill:#ffebed;}.cls-72{fill:#7f9ec9;}.cls-73{fill:#131163;}.cls-74{fill:#c6659c;}.cls-75{fill:#cb5f7d;}.cls-76{fill:#9f4a8b;}.cls-77{fill:#ffbcaf;}.cls-78{fill:url(#Áåçûìÿííûé_ãðàäèåíò_48-4);}.cls-79{fill:url(#Áåçûìÿííûé_ãðàäèåíò_292);}.cls-80{fill:#d2726c;}.cls-81{fill:url(#Áåçûìÿííûé_ãðàäèåíò_35);}.cls-82{fill:url(#Áåçûìÿííûé_ãðàäèåíò_52);}.cls-83{fill:url(#Áåçûìÿííûé_ãðàäèåíò_397);}.cls-84{fill:url(#Áåçûìÿííûé_ãðàäèåíò_141);}.cls-85{fill:url(#Áåçûìÿííûé_ãðàäèåíò_141-2);}.cls-86{fill:url(#Áåçûìÿííûé_ãðàäèåíò_141-3);}.cls-87,.cls-88{opacity:0.8;}.cls-87{fill:url(#Áåçûìÿííûé_ãðàäèåíò_285);}.cls-88{fill:url(#Áåçûìÿííûé_ãðàäèåíò_285-2);}.cls-89{fill:#34c7ff;}.cls-90{fill:url(#Áåçûìÿííûé_ãðàäèåíò_141-4);}.cls-91{fill:url(#Áåçûìÿííûé_ãðàäèåíò_141-5);}.cls-92{fill:url(#Áåçûìÿííûé_ãðàäèåíò_141-6);}.cls-93{fill:#36d1f7;}.cls-94{fill:#744ca2;}.cls-95{fill:url(#Áåçûìÿííûé_ãðàäèåíò_89);}.cls-96{fill:url(#Áåçûìÿííûé_ãðàäèåíò_85);}.cls-97{fill:url(#Áåçûìÿííûé_ãðàäèåíò_85-2);}.cls-98{fill:url(#Áåçûìÿííûé_ãðàäèåíò_85-3);}.cls-99{fill:url(#Áåçûìÿííûé_ãðàäèåíò_85-4);}.cls-100{fill:#d1d4fb;}.cls-101,.cls-120{mix-blend-mode:soft-light;}.cls-102{fill:#e0ffff;}.cls-103{fill:url(#Áåçûìÿííûé_ãðàäèåíò_65);}.cls-104{fill:url(#Áåçûìÿííûé_ãðàäèåíò_14);}.cls-105{opacity:0.81;fill:url(#Áåçûìÿííûé_ãðàäèåíò_115);}.cls-106{fill:#473da2;}.cls-107{fill:url(#Áåçûìÿííûé_ãðàäèåíò_302);}.cls-108{fill:url(#Áåçûìÿííûé_ãðàäèåíò_302-2);}.cls-109{fill:url(#Áåçûìÿííûé_ãðàäèåíò_322);}.cls-110{fill:url(#Áåçûìÿííûé_ãðàäèåíò_322-2);}.cls-111{fill:url(#Áåçûìÿííûé_ãðàäèåíò_25-2);}.cls-112{fill:url(#Áåçûìÿííûé_ãðàäèåíò_25-3);}.cls-113,.cls-115{opacity:0.73;}.cls-113{fill:url(#Áåçûìÿííûé_ãðàäèåíò_97);}.cls-114{fill:#953da2;}.cls-115{fill:url(#Áåçûìÿííûé_ãðàäèåíò_97-2);}.cls-116,.cls-117,.cls-118,.cls-119,.cls-120,.cls-124,.cls-125,.cls-126,.cls-127{fill-rule:evenodd;}.cls-116{fill:url(#Áåçûìÿííûé_ãðàäèåíò_206);}.cls-117{fill:url(#Áåçûìÿííûé_ãðàäèåíò_206-2);}.cls-118{fill:url(#Áåçûìÿííûé_ãðàäèåíò_107);}.cls-119{fill:#601734;}.cls-120{fill:#b3d9ff;}.cls-121{fill:#ff1d9c;}.cls-122{fill:#6877ff;}.cls-123{fill:#4f31e0;}.cls-124{fill:url(#Áåçûìÿííûé_ãðàäèåíò_107-2);}.cls-125{fill:url(#Áåçûìÿííûé_ãðàäèåíò_206-3);}.cls-126{fill:url(#Áåçûìÿííûé_ãðàäèåíò_107-3);}.cls-127{fill:url(#Áåçûìÿííûé_ãðàäèåíò_206-4);}</style><clipPath id="clip-path"><rect class="cls-1" x="3.6" width="215.19" height="142"/></clipPath><linearGradient id="Áåçûìÿííûé_ãðàäèåíò_29" x1="64.28" y1="-56.95" x2="64.28" y2="-82.28" gradientTransform="matrix(0.91, -0.42, 0.42, 0.91, 29.7, 165.42)" gradientUnits="userSpaceOnUse"><stop offset="0" stop-color="#dbccff"/><stop offset="1" stop-color="#d1bbff"/></linearGradient><linearGradient id="Áåçûìÿííûé_ãðàäèåíò_28" x1="64.28" y1="-55.96" x2="64.28" y2="-81.29" gradientTransform="matrix(0.91, -0.42, 0.42, 0.91, 29.7, 165.42)" gradientUnits="userSpaceOnUse"><stop offset="0" stop-color="#b5a6e7"/><stop offset="1" stop-color="#7760bf"/></linearGradient><linearGradient id="Áåçûìÿííûé_ãðàäèåíò_28-2" x1="64.3" y1="-62.26" x2="64.3" y2="-72.93" xlink:href="#Áåçûìÿííûé_ãðàäèåíò_28"/><linearGradient id="Áåçûìÿííûé_ãðàäèåíò_27" x1="62.77" y1="-72.72" x2="65.82" y2="-72.72" gradientTransform="matrix(0.91, -0.42, 0.42, 0.91, 29.7, 165.42)" gradientUnits="userSpaceOnUse"><stop offset="0" stop-color="#8b8be0"/><stop offset="1" stop-color="#a177b7"/></linearGradient><linearGradient id="Áåçûìÿííûé_ãðàäèåíò_94" x1="64.29" y1="-72.02" x2="64.29" y2="-73.85" gradientTransform="matrix(0.91, -0.42, 0.42, 0.91, 29.7, 165.42)" gradientUnits="userSpaceOnUse"><stop offset="0" stop-color="#fff"/><stop offset="1" stop-color="#a177b7"/></linearGradient><linearGradient id="Áåçûìÿííûé_ãðàäèåíò_95" x1="65.94" y1="-61.16" x2="65.94" y2="-72.93" gradientTransform="matrix(0.91, -0.42, 0.42, 0.91, 29.7, 165.42)" gradientUnits="userSpaceOnUse"><stop offset="0"/><stop offset="1" stop-color="#fff"/></linearGradient><linearGradient id="Áåçûìÿííûé_ãðàäèåíò_74" x1="104.13" y1="142" x2="104.13" y2="110.33" gradientUnits="userSpaceOnUse"><stop offset="0" stop-color="#6456c0"/><stop offset="1" stop-color="#5f2c95"/></linearGradient><radialGradient id="Áåçûìÿííûé_ãðàäèåíò_83" cx="-136.94" cy="223.53" r="10.59" gradientTransform="matrix(0, 0.61, -1.55, 0, 436.05, 213.38)" gradientUnits="userSpaceOnUse"><stop offset="0" stop-color="#4b474b"/><stop offset="1"/></radialGradient><radialGradient id="Áåçûìÿííûé_ãðàäèåíò_83-2" cx="-52.44" cy="70.67" r="10.59" gradientTransform="matrix(0.61, 0, 0, 1.55, 150.3, 20.9)" xlink:href="#Áåçûìÿííûé_ãðàäèåíò_83"/><linearGradient id="Áåçûìÿííûé_ãðàäèåíò_26" x1="93.78" y1="130.88" x2="102.17" y2="130.88" gradientUnits="userSpaceOnUse"><stop offset="0" stop-color="#9e8cef"/><stop offset="1" stop-color="#caafee"/></linearGradient><linearGradient id="Áåçûìÿííûé_ãðàäèåíò_26-2" x1="1141.83" y1="130.88" x2="1150.22" y2="130.88" gradientTransform="matrix(-1, 0, 0, 1, 1255.22, 0)" xlink:href="#Áåçûìÿííûé_ãðàäèåíò_26"/><linearGradient id="Áåçûìÿííûé_ãðàäèåíò_70" x1="103.01" y1="142" x2="103.01" y2="110.33" gradientUnits="userSpaceOnUse"><stop offset="0" stop-color="#ccf"/><stop offset="1" stop-color="#755cbb"/></linearGradient><linearGradient id="Áåçûìÿííûé_ãðàäèåíò_70-2" x1="106.73" y1="126.17" x2="106.73" y2="117.53" xlink:href="#Áåçûìÿííûé_ãðàäèåíò_70"/><linearGradient id="Áåçûìÿííûé_ãðàäèåíò_70-3" x1="96.62" y1="122.99" x2="96.62" y2="114.53" xlink:href="#Áåçûìÿííûé_ãðàäèåíò_70"/><linearGradient id="Áåçûìÿííûé_ãðàäèåíò_354" x1="105.3" y1="62.64" x2="105.3" y2="50" gradientUnits="userSpaceOnUse"><stop offset="0" stop-color="#d5cdf8"/><stop offset="1" stop-color="#f3edfb"/></linearGradient><linearGradient id="Áåçûìÿííûé_ãðàäèåíò_70-4" x1="98.72" y1="56.31" x2="111.87" y2="56.31" xlink:href="#Áåçûìÿííûé_ãðàäèåíò_70"/><linearGradient id="Áåçûìÿííûé_ãðàäèåíò_26-3" x1="101.54" y1="113.15" x2="101.54" y2="49.45" xlink:href="#Áåçûìÿííûé_ãðàäèåíò_26"/><linearGradient id="Áåçûìÿííûé_ãðàäèåíò_70-5" x1="74.83" y1="73.45" x2="90.5" y2="73.45" xlink:href="#Áåçûìÿííûé_ãðàäèåíò_70"/><linearGradient id="Áåçûìÿííûé_ãðàäèåíò_178" x1="74.34" y1="91.3" x2="74.34" y2="61.51" gradientUnits="userSpaceOnUse"><stop offset="0" stop-color="#9e8cef"/><stop offset="1" stop-color="#dac7f3"/></linearGradient><linearGradient id="Áåçûìÿííûé_ãðàäèåíò_55" x1="126.09" y1="82.71" x2="146.29" y2="82.71" gradientUnits="userSpaceOnUse"><stop offset="0" stop-color="#a999f1"/><stop offset="1" stop-color="#dac7f3"/></linearGradient><linearGradient id="Áåçûìÿííûé_ãðàäèåíò_71" x1="67.77" y1="57.45" x2="67.77" y2="49.59" gradientUnits="userSpaceOnUse"><stop offset="0.02" stop-color="#ffc2a9"/><stop offset="1" stop-color="#ff9595"/></linearGradient><linearGradient id="Áåçûìÿííûé_ãðàäèåíò_48" x1="72.77" y1="57.26" x2="72.77" y2="44.26" gradientUnits="userSpaceOnUse"><stop offset="0" stop-color="#ffeadb"/><stop offset="0.99" stop-color="#c27cb6"/></linearGradient><linearGradient id="Áåçûìÿííûé_ãðàäèåíò_71-2" x1="72.35" y1="66.1" x2="72.35" y2="46.06" xlink:href="#Áåçûìÿííûé_ãðàäèåíò_71"/><linearGradient id="Áåçûìÿííûé_ãðàäèåíò_73" x1="68.72" y1="62.98" x2="75.09" y2="62.98" gradientUnits="userSpaceOnUse"><stop offset="0.02" stop-color="#d1a1d6"/><stop offset="0.99" stop-color="#bd89c4"/></linearGradient><linearGradient id="Áåçûìÿííûé_ãðàäèåíò_71-3" x1="146.7" y1="78.31" x2="146.7" y2="51.51" xlink:href="#Áåçûìÿííûé_ãðàäèåíò_71"/><linearGradient id="Áåçûìÿííûé_ãðàäèåíò_48-2" x1="149.9" y1="69.73" x2="149.9" y2="56.41" xlink:href="#Áåçûìÿííûé_ãðàäèåíò_48"/><linearGradient id="Áåçûìÿííûé_ãðàäèåíò_64" x1="152.56" y1="65.13" x2="152.56" y2="59.16" gradientUnits="userSpaceOnUse"><stop offset="0" stop-color="#ffb0b0"/><stop offset="0.98" stop-color="#ffc2a9"/></linearGradient><linearGradient id="Áåçûìÿííûé_ãðàäèåíò_64-2" x1="156.05" y1="66.05" x2="156.05" y2="62.78" xlink:href="#Áåçûìÿííûé_ãðàäèåíò_64"/><linearGradient id="Áåçûìÿííûé_ãðàäèåíò_73-2" x1="141.91" y1="72.57" x2="148.06" y2="72.57" xlink:href="#Áåçûìÿííûé_ãðàäèåíò_73"/><linearGradient id="Áåçûìÿííûé_ãðàäèåíò_70-6" x1="133.35" y1="93.59" x2="133.35" y2="63.58" xlink:href="#Áåçûìÿííûé_ãðàäèåíò_70"/><linearGradient id="Áåçûìÿííûé_ãðàäèåíò_70-7" x1="66.62" y1="87.54" x2="117.31" y2="87.54" xlink:href="#Áåçûìÿííûé_ãðàäèåíò_70"/><linearGradient id="Áåçûìÿííûé_ãðàäèåíò_4" x1="111.31" y1="79.14" x2="121" y2="79.14" gradientUnits="userSpaceOnUse"><stop offset="0" stop-color="#ccedff"/><stop offset="1" stop-color="#755cbb"/></linearGradient><linearGradient id="Áåçûìÿííûé_ãðàäèåíò_4-2" x1="102.52" y1="95.98" x2="116.76" y2="95.98" xlink:href="#Áåçûìÿííûé_ãðàäèåíò_4"/><linearGradient id="Áåçûìÿííûé_ãðàäèåíò_4-3" x1="103.18" y1="102.35" x2="118.39" y2="102.35" xlink:href="#Áåçûìÿííûé_ãðàäèåíò_4"/><linearGradient id="Áåçûìÿííûé_ãðàäèåíò_4-4" x1="90.09" y1="86.57" x2="90.09" y2="69.67" xlink:href="#Áåçûìÿííûé_ãðàäèåíò_4"/><linearGradient id="Áåçûìÿííûé_ãðàäèåíò_4-5" x1="91.46" y1="87.99" x2="91.46" y2="75.18" xlink:href="#Áåçûìÿííûé_ãðàäèåíò_4"/><linearGradient id="Áåçûìÿííûé_ãðàäèåíò_4-6" x1="71" y1="71.61" x2="71" y2="61.93" xlink:href="#Áåçûìÿííûé_ãðàäèåíò_4"/><linearGradient id="Áåçûìÿííûé_ãðàäèåíò_4-7" x1="78.92" y1="63.09" x2="82.86" y2="63.09" xlink:href="#Áåçûìÿííûé_ãðàäèåíò_4"/><linearGradient id="Áåçûìÿííûé_ãðàäèåíò_70-8" x1="121.76" y1="86.57" x2="121.76" y2="68.63" xlink:href="#Áåçûìÿííûé_ãðàäèåíò_70"/><linearGradient id="Áåçûìÿííûé_ãðàäèåíò_70-9" x1="142.14" y1="82.71" x2="142.14" y2="73.34" xlink:href="#Áåçûìÿííûé_ãðàäèåíò_70"/><linearGradient id="Áåçûìÿííûé_ãðàäèåíò_70-10" x1="131.4" y1="82.29" x2="131.4" y2="75.13" xlink:href="#Áåçûìÿííûé_ãðàäèåíò_70"/><linearGradient id="Áåçûìÿííûé_ãðàäèåíò_4-8" x1="68.96" y1="72.23" x2="68.96" y2="69.57" xlink:href="#Áåçûìÿííûé_ãðàäèåíò_4"/><linearGradient id="Áåçûìÿííûé_ãðàäèåíò_70-11" x1="76.14" y1="80.35" x2="76.14" y2="65.8" xlink:href="#Áåçûìÿííûé_ãðàäèåíò_70"/><linearGradient id="Áåçûìÿííûé_ãðàäèåíò_4-9" x1="113.95" y1="70.11" x2="113.95" y2="59.16" xlink:href="#Áåçûìÿííûé_ãðàäèåíò_4"/><linearGradient id="Áåçûìÿííûé_ãðàäèåíò_4-10" x1="99.46" y1="68.63" x2="99.46" y2="53.52" xlink:href="#Áåçûìÿííûé_ãðàäèåíò_4"/><linearGradient id="Áåçûìÿííûé_ãðàäèåíò_25" x1="94.31" y1="71.39" x2="119.8" y2="71.39" gradientUnits="userSpaceOnUse"><stop offset="0" stop-color="#8642a0"/><stop offset="1" stop-color="#6456c0"/></linearGradient><linearGradient id="Áåçûìÿííûé_ãðàäèåíò_70-12" x1="96.51" y1="56.83" x2="113.1" y2="56.83" xlink:href="#Áåçûìÿííûé_ãðàäèåíò_70"/><linearGradient id="Áåçûìÿííûé_ãðàäèåíò_70-13" x1="139.16" y1="81.64" x2="139.16" y2="72.14" xlink:href="#Áåçûìÿííûé_ãðàäèåíò_70"/><linearGradient id="Áåçûìÿííûé_ãðàäèåíò_70-14" x1="125.58" y1="92.36" x2="125.58" y2="63.58" xlink:href="#Áåçûìÿííûé_ãðàäèåíò_70"/><linearGradient id="Áåçûìÿííûé_ãðàäèåíò_70-15" x1="94.32" y1="105.88" x2="94.32" y2="97.63" xlink:href="#Áåçûìÿííûé_ãðàäèåíò_70"/><linearGradient id="Áåçûìÿííûé_ãðàäèåíò_70-16" x1="110.52" y1="103.62" x2="110.52" y2="99.61" xlink:href="#Áåçûìÿííûé_ãðàäèåíò_70"/><linearGradient id="Áåçûìÿííûé_ãðàäèåíò_71-4" x1="110.34" y1="52.12" x2="110.34" y2="24.71" xlink:href="#Áåçûìÿííûé_ãðàäèåíò_71"/><linearGradient id="Áåçûìÿííûé_ãðàäèåíò_71-5" x1="100.01" y1="41.06" x2="100.01" y2="32.98" xlink:href="#Áåçûìÿííûé_ãðàäèåíò_71"/><linearGradient id="Áåçûìÿííûé_ãðàäèåíò_387" x1="114.19" y1="44.11" x2="114.53" y2="42.34" gradientUnits="userSpaceOnUse"><stop offset="0" stop-color="#e1616a"/><stop offset="1" stop-color="#ff8883"/></linearGradient><linearGradient id="Áåçûìÿííûé_ãðàäèåíò_48-3" x1="111.1" y1="42.76" x2="111.1" y2="25.11" xlink:href="#Áåçûìÿííûé_ãðàäèåíò_48"/><linearGradient id="Áåçûìÿííûé_ãðàäèåíò_59" x1="110.23" y1="35.53" x2="110.23" y2="32.04" gradientUnits="userSpaceOnUse"><stop offset="0" stop-color="#cf6074"/><stop offset="1" stop-color="#f37270"/></linearGradient><linearGradient id="Áåçûìÿííûé_ãðàäèåíò_184" x1="117.28" y1="36.64" x2="117.28" y2="33.6" gradientUnits="userSpaceOnUse"><stop offset="0" stop-color="#cf6074"/><stop offset="1" stop-color="#ff817f"/></linearGradient><linearGradient id="Áåçûìÿííûé_ãðàäèåíò_48-4" x1="117.56" y1="38.41" x2="117.56" y2="31.57" xlink:href="#Áåçûìÿííûé_ãðàäèåíò_48"/><linearGradient id="Áåçûìÿííûé_ãðàäèåíò_292" x1="110.71" y1="52.46" x2="110.71" y2="19.22" gradientUnits="userSpaceOnUse"><stop offset="0" stop-color="#2e33a0"/><stop offset="1" stop-color="#0665a5"/></linearGradient><linearGradient id="Áåçûìÿííûé_ãðàäèåíò_35" x1="119.53" y1="31.53" x2="119.53" y2="23.86" gradientUnits="userSpaceOnUse"><stop offset="0" stop-color="#ffeadb"/><stop offset="0.99" stop-color="#8860c7"/></linearGradient><linearGradient id="Áåçûìÿííûé_ãðàäèåíò_52" x1="108.97" y1="52.46" x2="108.97" y2="19.22" gradientUnits="userSpaceOnUse"><stop offset="0" stop-color="#ccc2db"/><stop offset="0.99" stop-color="#8860c7"/></linearGradient><linearGradient id="Áåçûìÿííûé_ãðàäèåíò_397" x1="111.22" y1="52.46" x2="111.22" y2="51.03" gradientUnits="userSpaceOnUse"><stop offset="0" stop-color="#776d7e"/><stop offset="1" stop-color="#9d68c2"/></linearGradient><linearGradient id="Áåçûìÿííûé_ãðàäèåíò_141" x1="115.46" y1="21.61" x2="115.46" y2="20.55" gradientUnits="userSpaceOnUse"><stop offset="0" stop-color="#1f77d1"/><stop offset="1" stop-color="#0686c9"/></linearGradient><linearGradient id="Áåçûìÿííûé_ãðàäèåíò_141-2" x1="108.63" y1="25.1" x2="108.63" y2="21.97" xlink:href="#Áåçûìÿííûé_ãðàäèåíò_141"/><linearGradient id="Áåçûìÿííûé_ãðàäèåíò_141-3" x1="120.11" y1="26.69" x2="120.11" y2="23.86" xlink:href="#Áåçûìÿííûé_ãðàäèåíò_141"/><linearGradient id="Áåçûìÿííûé_ãðàäèåíò_285" x1="101.19" y1="39.14" x2="97.56" y2="34.7" gradientUnits="userSpaceOnUse"><stop offset="0" stop-color="#ffeadb"/><stop offset="0.99" stop-color="#b060f4"/></linearGradient><linearGradient id="Áåçûìÿííûé_ãðàäèåíò_285-2" x1="101.58" y1="38.57" x2="99.8" y2="36.39" xlink:href="#Áåçûìÿííûé_ãðàäèåíò_285"/><linearGradient id="Áåçûìÿííûé_ãðàäèåíò_141-4" x1="108.42" y1="25.38" x2="114.61" y2="25.38" xlink:href="#Áåçûìÿííûé_ãðàäèåíò_141"/><linearGradient id="Áåçûìÿííûé_ãðàäèåíò_141-5" x1="117.15" y1="43.71" x2="119.03" y2="43.71" xlink:href="#Áåçûìÿííûé_ãðàäèåíò_141"/><linearGradient id="Áåçûìÿííûé_ãðàäèåíò_141-6" x1="114.83" y1="42.33" x2="116.86" y2="42.33" xlink:href="#Áåçûìÿííûé_ãðàäèåíò_141"/><linearGradient id="Áåçûìÿííûé_ãðàäèåíò_89" x1="129.78" y1="47.2" x2="193.28" y2="47.2" gradientUnits="userSpaceOnUse"><stop offset="0" stop-color="#9d68c2"/><stop offset="1" stop-color="#aec2ff"/></linearGradient><linearGradient id="Áåçûìÿííûé_ãðàäèåíò_85" x1="142.69" y1="70.94" x2="142.69" y2="51.98" gradientUnits="userSpaceOnUse"><stop offset="0" stop-color="#ccedff"/><stop offset="1" stop-color="#9d68c2"/></linearGradient><linearGradient id="Áåçûìÿííûé_ãðàäèåíò_85-2" x1="175.35" y1="61.69" x2="175.35" y2="53.34" xlink:href="#Áåçûìÿííûé_ãðàäèåíò_85"/><linearGradient id="Áåçûìÿííûé_ãðàäèåíò_85-3" x1="185.31" y1="61.69" x2="185.31" y2="53.34" xlink:href="#Áåçûìÿííûé_ãðàäèåíò_85"/><linearGradient id="Áåçûìÿííûé_ãðàäèåíò_85-4" x1="165.23" y1="61.69" x2="165.23" y2="53.34" xlink:href="#Áåçûìÿííûé_ãðàäèåíò_85"/><linearGradient id="Áåçûìÿííûé_ãðàäèåíò_65" x1="74.5" y1="41.18" x2="74.5" y2="32.43" gradientUnits="userSpaceOnUse"><stop offset="0" stop-color="#d93de3"/><stop offset="1" stop-color="#ff6dba"/></linearGradient><linearGradient id="Áåçûìÿííûé_ãðàäèåíò_14" x1="79.9" y1="41.18" x2="79.9" y2="32.43" gradientUnits="userSpaceOnUse"><stop offset="0" stop-color="#a242ea"/><stop offset="1" stop-color="#fe117e"/></linearGradient><linearGradient id="Áåçûìÿííûé_ãðàäèåíò_115" x1="72.99" y1="133.28" x2="77.72" y2="95.6" gradientUnits="userSpaceOnUse"><stop offset="0" stop-color="#067eff"/><stop offset="1" stop-color="#3e37a0"/></linearGradient><linearGradient id="Áåçûìÿííûé_ãðàäèåíò_302" x1="184.45" y1="40.22" x2="184.45" y2="37.05" gradientUnits="userSpaceOnUse"><stop offset="0" stop-color="#459fff"/><stop offset="1" stop-color="#a96dff"/></linearGradient><linearGradient id="Áåçûìÿííûé_ãðàäèåíò_302-2" x1="33.82" y1="77.4" x2="33.82" y2="73.45" xlink:href="#Áåçûìÿííûé_ãðàäèåíò_302"/><linearGradient id="Áåçûìÿííûé_ãðàäèåíò_322" x1="189.16" y1="40.22" x2="189.16" y2="37.05" gradientUnits="userSpaceOnUse"><stop offset="0" stop-color="#b31a8f"/><stop offset="1" stop-color="#fe117e"/></linearGradient><linearGradient id="Áåçûìÿííûé_ãðàäèåíò_322-2" x1="85.81" y1="50.67" x2="85.81" y2="48.42" xlink:href="#Áåçûìÿííûé_ãðàäèåíò_322"/><linearGradient id="Áåçûìÿííûé_ãðàäèåíò_25-2" x1="161.72" y1="100.17" x2="161.72" y2="97.92" xlink:href="#Áåçûìÿííûé_ãðàäèåíò_25"/><linearGradient id="Áåçûìÿííûé_ãðàäèåíò_25-3" x1="43.89" y1="111.23" x2="43.89" y2="109.23" xlink:href="#Áåçûìÿííûé_ãðàäèåíò_25"/><linearGradient id="Áåçûìÿííûé_ãðàäèåíò_97" x1="52.4" y1="100.38" x2="52.4" y2="83.82" gradientUnits="userSpaceOnUse"><stop offset="0" stop-color="#d906e3"/><stop offset="1" stop-color="#ff6df9"/></linearGradient><linearGradient id="Áåçûìÿííûé_ãðàäèåíò_97-2" x1="167.95" y1="123.83" x2="167.95" y2="103.11" xlink:href="#Áåçûìÿííûé_ãðàäèåíò_97"/><linearGradient id="Áåçûìÿííûé_ãðàäèåíò_206" x1="175.16" y1="213.92" x2="173.39" y2="198.76" gradientTransform="matrix(0.97, 0.26, -0.26, 0.97, 27.28, -139.86)" gradientUnits="userSpaceOnUse"><stop offset="0" stop-color="#1852a0"/><stop offset="1" stop-color="#067ed3"/></linearGradient><linearGradient id="Áåçûìÿííûé_ãðàäèåíò_206-2" x1="173.45" y1="213.98" x2="173.45" y2="198.45" xlink:href="#Áåçûìÿííûé_ãðàäèåíò_206"/><linearGradient id="Áåçûìÿííûé_ãðàäèåíò_107" x1="149.7" y1="209.26" x2="148.56" y2="199.46" gradientTransform="matrix(0.94, 0.33, -0.52, 1.49, 104.77, -249.03)" gradientUnits="userSpaceOnUse"><stop offset="0" stop-color="#188dc1"/><stop offset="1" stop-color="#06bfe7"/></linearGradient><linearGradient id="Áåçûìÿííûé_ãðàäèåíò_107-2" x1="151.51" y1="31.29" x2="155.54" y2="16.31" gradientTransform="matrix(1, 0, 0, 1, 0, 0)" xlink:href="#Áåçûìÿííûé_ãðàäèåíò_107"/><linearGradient id="Áåçûìÿííûé_ãðàäèåíò_206-3" x1="144.52" y1="29.55" x2="147.52" y2="18.41" gradientTransform="matrix(1, 0, 0, 1, 0, 0)" xlink:href="#Áåçûìÿííûé_ãðàäèåíò_206"/><linearGradient id="Áåçûìÿííûé_ãðàäèåíò_107-3" x1="780.26" y1="57.01" x2="783.01" y2="46.8" gradientTransform="matrix(-1, 0, 0, 1, 814.24, 0)" xlink:href="#Áåçûìÿííûé_ãðàäèåíò_107"/><linearGradient id="Áåçûìÿííûé_ãðàäèåíò_206-4" x1="775.5" y1="55.83" x2="777.54" y2="48.23" gradientTransform="matrix(-1, 0, 0, 1, 814.24, 0)" xlink:href="#Áåçûìÿííûé_ãðàäèåíò_206"/></defs><title>website Development</title><g class="cls-2"><g id="Layer_2" data-name="Layer 2"><g id="Layer_1-2" data-name="Layer 1"><g class="cls-3"><rect class="cls-1" width="215.19" height="142"/><path class="cls-4" d="M56.76,69.61c0-.08,0-.13.13-.12l2.4.07a1.8,1.8,0,0,1,.61.11,1,1,0,0,1,.4.26.94.94,0,0,1,.21.41,1.7,1.7,0,0,1,.05.52l0,.65a1.62,1.62,0,0,1-.08.52,1,1,0,0,1-.24.39.93.93,0,0,1-.41.24,1.65,1.65,0,0,1-.61.07l-1.3,0L57.63,72h0l0,.75-.9,0Zm.84,2.25,1.54,0a.53.53,0,0,0,.37-.1.55.55,0,0,0,.12-.4l0-.53a.41.41,0,0,0-.46-.53l-1.48,0h-.05a.09.09,0,0,0,0,.05Z"/><path class="cls-4" d="M61.87,71h0l0,1s0,.06,0,.06l2.71.08,0,.82L61,72.79c-.09,0-.13-.05-.13-.14L61,69.74c0-.09,0-.13.14-.13l3.44.11c.09,0,.13,0,.13.13l0,.83-.85.28h0v-.42s0-.05,0-.05l-1.82-.06a.06.06,0,0,0,0,0,.06.06,0,0,0,0,0v.4l1.5,0,0,.65-1.26,0Z"/><path class="cls-4" d="M67.88,70.92h0v-.35s0-.06,0-.06l-1.69-.05a.17.17,0,0,0-.13,0,.16.16,0,0,0,0,.11v.08a.17.17,0,0,0,0,.12.24.24,0,0,0,.12,0l2,.33a2,2,0,0,1,.32.1.52.52,0,0,1,.32.37,1.42,1.42,0,0,1,0,.31v.25a1,1,0,0,1-.06.35.62.62,0,0,1-.17.25.71.71,0,0,1-.29.14,1.5,1.5,0,0,1-.45,0l-2.85-.08,0-.83,2.56.08c.08,0,.13,0,.15,0a.23.23,0,0,0,0-.14v-.09a.19.19,0,0,0,0-.12s0,0-.11,0l-1.91-.3a1.31,1.31,0,0,1-.33-.09.6.6,0,0,1-.22-.14A.48.48,0,0,1,65,71a.73.73,0,0,1,0-.3v-.23a.8.8,0,0,1,.2-.53.91.91,0,0,1,.63-.17l2.85.09c.09,0,.13,0,.13.14l0,.66Z"/><path class="cls-4" d="M69.08,73l.1-3.17.91,0L70,73.06Z"/><path class="cls-4" d="M73.36,71.8v-.15a.62.62,0,0,1,0-.13v0l.9,0,0,1.55a.11.11,0,0,1-.12.12l-2.41-.07a1.8,1.8,0,0,1-.61-.11,1,1,0,0,1-.39-.26,1.16,1.16,0,0,1-.22-.41,1.7,1.7,0,0,1,0-.52l0-.65a1.61,1.61,0,0,1,.09-.52.94.94,0,0,1,.23-.39,1,1,0,0,1,.42-.24,1.84,1.84,0,0,1,.61-.08l2.4.08c.08,0,.12,0,.12.13l0,.69-.85.28h0v-.3a0,0,0,0,0,0,0l-1.54,0a.72.72,0,0,0-.22,0,.35.35,0,0,0-.15.07.35.35,0,0,0-.09.16.78.78,0,0,0,0,.24l0,.56a.55.55,0,0,0,.1.4.5.5,0,0,0,.36.13l1.52,0s0,0,0,0Z"/><path class="cls-4" d="M76.16,70.07a.28.28,0,0,1,.15,0,.29.29,0,0,1,.07.1l1.15,2.32a.09.09,0,0,0,.08,0h0s.07,0,.07-.06l.07-2.39.83,0-.1,3a.11.11,0,0,1-.12.12l-1.31,0a.26.26,0,0,1-.14,0,.29.29,0,0,1-.08-.1l-1.19-2.32a.09.09,0,0,0-.08,0h0a.06.06,0,0,0-.07.07l-.07,2.38-.82,0,.09-3c0-.08,0-.13.13-.12Z"/><ellipse class="cls-1" cx="100.1" cy="69.41" rx="55.6" ry="55.03"/><path class="cls-5" d="M59.23,65.89a8.53,8.53,0,0,0-3.79-3.29L54.6,63l1.9,3.41a3.63,3.63,0,0,1-1.16,2h0A3.8,3.8,0,0,1,53,68l-1.43-3.63-.84.39a8.33,8.33,0,0,0,.12,5s.36.82.42.89c.34.39,1.21.83,2.89.73l5.81,11a3,3,0,0,0-.13,2.78,3.06,3.06,0,0,0,4,1.45,3,3,0,0,0-.77-5.69L58.36,69.45c1.14-1.19,1.38-2.13,1.29-2.67C59.63,66.67,59.23,65.89,59.23,65.89ZM64,84.82l-1.54.71-1.39-1,.14-1.67,1.54-.71,1.4,1Z"/><path class="cls-6" d="M59.65,66.78a8.55,8.55,0,0,0-3.78-3.28l-.85.39,1.9,3.41a3.63,3.63,0,0,1-1.16,2h0a3.71,3.71,0,0,1-2.32-.42L52,65.27l-.84.39a8.33,8.33,0,0,0,.12,5,4.26,4.26,0,0,0,3.31,1.63l5.81,11A3,3,0,0,0,60.29,86a3,3,0,0,0,4,1.45,3,3,0,0,0-.77-5.68L58.78,70.34A4.16,4.16,0,0,0,59.65,66.78Zm4.78,18.93-1.54.71-1.39-1,.15-1.68,1.54-.71,1.39,1Z"/><polygon class="cls-7" points="50.75 64.77 51.17 65.66 52.02 65.27 51.59 64.38 50.75 64.77"/><polygon class="cls-7" points="54.6 62.99 55.02 63.89 55.87 63.5 55.45 62.6 54.6 62.99"/><polygon class="cls-7" points="62.47 85.53 62.89 86.42 64.43 85.71 64.01 84.82 62.47 85.53"/><path class="cls-8" d="M55.85,73.08,60.54,82a2.31,2.31,0,0,0,1.89-.88L58.61,71.8A3.61,3.61,0,0,0,55.85,73.08Zm6.22,8.13a2.71,2.71,0,0,1-.6.39,2.2,2.2,0,0,1-.65.19l-4.7-8.74a4.67,4.67,0,0,1,1.13-.74A4.05,4.05,0,0,1,58.41,72Z"/><path class="cls-7" d="M62.07,81.21l.36-.08a2,2,0,0,1-1.89.88l.28-.22A2.59,2.59,0,0,0,62.07,81.21Z"/><path class="cls-9" d="M55.85,73.08l.27,0A4.36,4.36,0,0,1,58.41,72l.2-.17a2.88,2.88,0,0,0-1.53.33A2.78,2.78,0,0,0,55.85,73.08Z"/><path class="cls-10" d="M54.6,72.27a10.42,10.42,0,0,0,4.18-1.93l.61,1.46s-.69-.68-2.21-.06a2.31,2.31,0,0,0-1.68,2.13Z"/><path class="cls-11" d="M59.39,71.8a1.81,1.81,0,0,0-.92-.32L63,82.35l.55-.56Z"/><path class="cls-12" d="M59.39,71.8a1.79,1.79,0,0,0,.9,2.14Z"/><path class="cls-13" d="M127.78,142H110.92a209.66,209.66,0,0,0-5.86-22.32c-1-.58-3,.14-3,.14L96,142H80.55c-.82-13.69,6.75-29.23,6.75-29.23h0a1.64,1.64,0,0,1-.21-.85,2.13,2.13,0,0,1,.58-.66c.41-.38.91-.75.91-.75l28.73-.18s.29.15.66.37h0c.63.37,1.48,1,1.48,1.38a1.87,1.87,0,0,1-.29,1v0C125.31,124.66,127.78,142,127.78,142Z"/><ellipse class="cls-14" cx="88.55" cy="130.61" rx="16.45" ry="6.43" transform="translate(-58.79 187.08) rotate(-76.83)"/><ellipse class="cls-15" cx="118.39" cy="130.45" rx="6.42" ry="16.45" transform="matrix(0.96, -0.27, 0.27, 0.96, -31.15, 37.33)"/><path class="cls-16" d="M94,142l-.18,0a81.07,81.07,0,0,1,7-21.12l0,0,1.27-1.1.12.13L100.92,121A80.06,80.06,0,0,0,94,142Z"/><path class="cls-17" d="M113.21,142a79.6,79.6,0,0,0-7.09-21.13l-1.12-1,.12-.13,1.15,1A79.79,79.79,0,0,1,113.39,142Z"/><path class="cls-18" d="M119.45,112.08a1.87,1.87,0,0,1-.29,1v0c-6,1.34-10.54,6.86-10.54,6.86,3.26,6.2,8.7,22,8.7,22h-6.39a209.66,209.66,0,0,0-5.86-22.32c-1-.58-3,.14-3,.14L96,142H92c1.43-9.29,5.64-20.64,5.64-20.64a52.31,52.31,0,0,0-10.3-8.59h0l-.74-.46.53-.39c2.67,2.53,11.26,5.84,11.53,5.94l-11-6.6c.41-.38.91-.75.91-.75l28.73-.18s.29.15.66.37L110.12,115Z"/><polygon class="cls-19" points="105.06 119.68 108.41 117.53 107.61 119.68 107.03 126.17 105.06 119.68"/><polygon class="cls-20" points="102.11 119.82 98.62 117.86 91.14 114.53 100.66 120.76 101.23 122.99 102.11 119.82"/><path class="cls-21" d="M111.72,53.13a2.32,2.32,0,0,0,0,.23,18.52,18.52,0,0,1-.59,2,16.25,16.25,0,0,1-2.24,4.3,8.25,8.25,0,0,1-1,1.13c-5.24-1.63-7.81-6.69-8.8-9.21a.08.08,0,0,1,0,0c-.19-.48-.31-.86-.39-1.11h0l-.09-.31.06-.13v0c.09-.18.17-.36.25-.53a25.29,25.29,0,0,0,1.44-4c.25-.93.39-1.64.45-2,0-.2,0-.31,0-.31l2.44,1.28,8.4,4.4a15.15,15.15,0,0,0-.18,2.11c0,.44,0,.84,0,1.18a7.28,7.28,0,0,0,.1,1h0Z"/><path class="cls-22" d="M109.39,61.36a7.12,7.12,0,0,1-1.73,1.25l0,0,0,0h0c-.18-.11-.81-.49-1.65-1.12-2.19-1.63-5.86-4.94-6.91-9.4v0a10.85,10.85,0,0,1-.25-1.63h0l0-.44a23.15,23.15,0,0,0,2,3.52c1.49,2.15,3.71,4.5,6.38,4.51a4.29,4.29,0,0,0,4.08-3,8.52,8.52,0,0,0,.48-1.63h0c0-.13,0-.24.07-.34h0s0-.09,0-.13l0-.25S112.64,58.14,109.39,61.36Z"/><path class="cls-23" d="M109.39,61.36a7.12,7.12,0,0,1-1.73,1.25h-.1c-.18-.11-.81-.49-1.65-1.12-2.19-1.63-5.86-4.94-6.91-9.4v0a10.85,10.85,0,0,1-.25-1.63h0l0-.44a23.15,23.15,0,0,0,2,3.52,13.08,13.08,0,0,0,4.59,5.89c1.57,1,2.76.84,3.63.26a5.39,5.39,0,0,0,1.78-2.32,5.54,5.54,0,0,0,.46-2v-.32a8.52,8.52,0,0,0,.48-1.63h0c0-.13,0-.24.07-.34h0s0-.09,0-.13l0-.25S112.64,58.14,109.39,61.36Z"/><path class="cls-24" d="M129.53,93.55l-.05,0a3.88,3.88,0,0,1-2.41-1.19h0v0a15.19,15.19,0,0,1-3.41-4.7,35.14,35.14,0,0,1-3.2-8.48l0-.08L119,81.3c-1,2.83-2.75,14.54-2.72,15s1.6,3,1.57,3.26h0c0,.3-.74,1-.94,1.71-.14.48.81,2,1.48,3.16h0a4.46,4.46,0,0,1,.62,1.27,17,17,0,0,1-1.7,3.16v1.41l0,0-.08.07-.07,0c-.64.5-3.38,2.15-11.93,2.61a37.86,37.86,0,0,1-16.88-2.69l.51-1.38s-.48-.4-.51-.61.37-.67.37-.67-1-.54-1-1.21,2-2.76,2-4.54S88,98.63,87.82,97.62s2.65-3.5,2.65-3.5c-2.45-7.67-2.92-18-2.92-18l-.48-.54s-2.92,6.59-5.57,9.82c-.32.38-.65.76-1,1.13a28.94,28.94,0,0,1-2.29,2.18c-1.83,1.59-3.5,2.63-3.92,2.55-.68-.14-3.4-5.45-3.28-10.9.06-2.59,1.64-5.49,3.28-7.82.17-.25.35-.49.53-.73a37.29,37.29,0,0,1,2.81-3.36c.21-.22.33-.33.33-.33s-.38-1.19-.63-2.23a.19.19,0,0,0,0-.07.06.06,0,0,0,0,0v0a3.07,3.07,0,0,1-.16-1.32c.22-.36,1.54-.76,1.77-1s1.17-4.8,1.9-5.29,1.92-.82,6-2.41l.62-.24c4.58-1.79,9.06-4,9.06-4l1.73-2.09H99l-.25.53v0c.12.54.26,1.06.42,1.55a.08.08,0,0,0,0,0,15.91,15.91,0,0,0,8.45,9.77,10.43,10.43,0,0,0,4.15-8v-.67l.79.23.55,1.28s.91,1.41,4.55,3a22.35,22.35,0,0,1,2,1c3.33,1.87,7,4.76,7.31,5.37a2.88,2.88,0,0,1,.1.31h0c.39,1.52,1.19,7.21,1.94,9.24a4.61,4.61,0,0,0,1.74,2.33h0a2.63,2.63,0,0,0,.69.35c.06.32.12.63.17.93C133.17,86.49,130.2,93.09,129.53,93.55Z"/><path class="cls-25" d="M90.5,75.18l-3,1-.48-.54s-2.92,6.59-5.57,9.82c-.32.38-.65.76-1,1.13a28.94,28.94,0,0,1-2.29,2.18L76,79.14l-1.14-7.29a37.29,37.29,0,0,1,2.81-3.36c.21-.22.33-.33.33-.33s-.38-1.19-.63-2.23a.19.19,0,0,0,0-.07.06.06,0,0,0,0,0v0a3.07,3.07,0,0,1-.16-1.32c.22-.36,1.54-.76,1.77-1s1.17-4.8,1.9-5.29a20.55,20.55,0,0,0,2,9.86l1.22,1.71,3.58,2.84A11.29,11.29,0,0,0,90.5,75.18Z"/><path class="cls-26" d="M82,83.05c-.63,4.66-7.65,8.25-7.65,8.25-1.57,0-3.31-2.7-4.9-6s-1.68-12.86-1.76-13.45-1-1.77-1-2.27S68,68,68,68v0a12,12,0,0,1-1-2.5c.07-.37,1.73-1.18,1.73-1.18l.1,1.81s3.87-.72,5.18-3.68l.23-.91.64.42v3.9s.14.61.34.61,1.71-.74,2-.64.63,2.19,1,2.46a7,7,0,0,1,1.71,1.41,6.59,6.59,0,0,1,.09,1.47,14.78,14.78,0,0,0,.15,2.47C80.55,74.65,82.59,78.38,82,83.05Z"/><path class="cls-27" d="M146.15,79.05A25.12,25.12,0,0,1,143.84,81c-.41.4,0,1.73,0,1.73a54.8,54.8,0,0,1-14.31,10.84l-.05,0c-4.19-2.78-3.83-7.36-2.44-11.23a29.34,29.34,0,0,1,3.7-6.88h0a8.86,8.86,0,0,1,2.12-.59,1.28,1.28,0,0,1,.79.25c.51.31.94.8,1.35.6.62-.31,2-3.52,2.92-3.6.64-.06,1.54.59,2.14,1,.27.16.47.27.57.25.34-.09,1.5-1.46,1.59-1.5s.62.35.62.35l-.37.45A12.29,12.29,0,0,0,144.9,78l1.25-1.8S146.46,78.56,146.15,79.05Z"/><path class="cls-28" d="M111.74,53s0,.09,0,.14,0,.18-.07.28h0a3.36,3.36,0,0,1-4.33,2.39c-2.38-.84-6.9-10.33-6.9-10.33l.45-2,10.75,8.66.11.82Z"/><path class="cls-29" d="M76,51.25A26.57,26.57,0,0,1,75.61,45a28.57,28.57,0,0,0-.08-5.65,1.46,1.46,0,0,0-1.12,0c-.48.27-1.59,3-1.09,5.2s.12,7.47.12,7.47h-.75l-1.63-2.22-.8-.23s-4.56,4.26-4.49,6.8l.59,2.25L72,58.45l3.66-4.15Z"/><path class="cls-30" d="M70.26,49.59A28.74,28.74,0,0,0,71,54.84a1.26,1.26,0,0,1-1.28,1.06l-.29-.32a1.48,1.48,0,0,1-1.24,1.21l-1-1,.25.81a1.37,1.37,0,0,1-1.29.82,4.52,4.52,0,0,1-1.66-2.79l1.54-1.29v-1l1.84-1.28,0-.72A4.3,4.3,0,0,1,70.26,49.59Z"/><path class="cls-31" d="M75.68,44.26a2.58,2.58,0,0,1-.67,1,5.67,5.67,0,0,1-1.52.47l0,6.35h-.75l-1.63-2.22A5.79,5.79,0,0,1,71.93,52l-.64.31-.56-1.9-.27,1.37.27,1.7a4.47,4.47,0,0,1,2.71-.86l.27.47s-3.17,2.6-3.9,4.13a20.53,20.53,0,0,1,5.13-4.14l.34-1,.45-2.49A22.55,22.55,0,0,1,75.68,44.26Z"/><path class="cls-32" d="M78.33,55.31c-.3.87-3.38,4.5-3.72,5.29a10.54,10.54,0,0,0-.54,1.82,7,7,0,0,1-5.18,3.68l-.17-2.92a9.37,9.37,0,0,1-2.3-1.74h0l0-.1a24.57,24.57,0,0,1,0-2.69l3.45-1.38a24.44,24.44,0,0,1,5.13-4.14l.17-1c-2.61-1.27-2.17-5.12-1.73-5.59a1.93,1.93,0,0,1,1.25-.47s1,3.09,1.57,4.54S78.62,54.44,78.33,55.31Z"/><path class="cls-33" d="M67.94,50.37s.39,3.53,1.51,5.21a8.17,8.17,0,0,1-1.54-4.49Z"/><path class="cls-33" d="M66.07,52.37a8.18,8.18,0,0,0,2.14,4.42,4.87,4.87,0,0,1-2.14-3.43Z"/><path class="cls-34" d="M75.09,59.85s-3.88,3.73-6.37,3.33l.17,2.92a6.55,6.55,0,0,0,5.41-4.59A10.76,10.76,0,0,1,75.09,59.85Z"/><path class="cls-35" d="M157.24,64.93s-3.57,6.45-7.75,8.44h-1.43l-3.3,4.94s-2.13-1.32-2.28-5.67a4,4,0,0,0,.93-1.64,6.65,6.65,0,0,1-1.5-1.59c-.32-.67-.43-2.69-.66-3.52s-2.15-2.55-2.58-2.78a12.05,12.05,0,0,0-2.38-.34s-.27-.69,0-1,3.31-1.51,5-.39a7.43,7.43,0,0,0,.3,1.3,7.48,7.48,0,0,0,1.86,2A4.56,4.56,0,0,0,145,63.27a64.08,64.08,0,0,0,3.13-6.86l0,0a.19.19,0,0,1,0-.07.08.08,0,0,0,0,0s0,0,0,0a12.18,12.18,0,0,1,4.06-4.71.75.75,0,0,1,.83.54A29.47,29.47,0,0,1,151,56.63c-.18.29-.38.63-.58,1h0c-.91,1.65-1.93,3.81-2.08,4.13v0l.56.29,1.53-1.44L152,59.16l3.61,3.77-.36.45-1.12,1.43.57.1,1.33-1.45Z"/><path class="cls-36" d="M156.4,66.3,155.26,68s-6.26-4.78-7.62-5.19-1.86-.13-1.86-.13l-1.4,1.77a9,9,0,0,1,2.81,5.32s-.86-3.86-3.78-5A4.56,4.56,0,0,0,145,63.27a64.08,64.08,0,0,0,3.13-6.86,1.77,1.77,0,0,0,.06,1.21c.31.56,2.12,0,2.23,0h0l-2.08,4.13v0l.56.29,1.53-1.44-.76,1.76,5.58,1-1.12,1.43.57.1Z"/><path class="cls-37" d="M152,59.17a1.85,1.85,0,0,1,1.79,1.23l-.16.45s1.06.2,2.08,1.9a5.81,5.81,0,0,1-3.15,2.38s-1-.29-1.22-1.17l.2-.56-.81.61s-1,.29-1.41-1.15Z"/><path class="cls-38" d="M157.56,64.48a1.64,1.64,0,0,0-.88-1.7l-2.15,2.35a1.1,1.1,0,0,0,1,.92A4,4,0,0,0,157.56,64.48Z"/><path class="cls-39" d="M141.91,69.41a15.9,15.9,0,0,0,6.15,4l-1.58,2.36-3.29-4.13.22-.6S142.09,70,141.91,69.41Z"/><path class="cls-33" d="M153.67,60.85a12.48,12.48,0,0,1-2.09,2.55l-.2.56a9.27,9.27,0,0,0,2.77-2.91A1.34,1.34,0,0,0,153.67,60.85Z"/><path class="cls-40" d="M146.15,79.05A25.12,25.12,0,0,1,143.84,81c-.41.4,0,1.73,0,1.73a54.8,54.8,0,0,1-14.31,10.84l-.05,0c-.55.07-3.2-.67-5.85-5.92a35.14,35.14,0,0,1-3.2-8.48l0-.08.59-.79.87-9.68.6,2a45.59,45.59,0,0,0,4.49-7l.1.31h0c.39,1.52,1.19,7.21,1.94,9.24a4.61,4.61,0,0,0,1.74,2.33h0a13.42,13.42,0,0,0-3.7,6.88,18.65,18.65,0,0,0-.51,3.56,23.85,23.85,0,0,1,2.45-6,12.89,12.89,0,0,1,2.63-3.14,20.71,20.71,0,0,1,2-1.62c.51.31.94.8,1.35.6-2.79,4.15-2.73,12.38-.1,10.81a7.87,7.87,0,0,0,3.23-4.9c-.62-4.06-.44-8.63.06-9.5a12.84,12.84,0,0,1,2.44,1.2,13.94,13.94,0,0,0,2.11,8L144.24,79a14.13,14.13,0,0,1-2-7.17c.09,0,.62.35.62.35l-.37.45A12.29,12.29,0,0,0,144.9,78l1.25-1.8S146.46,78.56,146.15,79.05Z"/><path class="cls-41" d="M117.31,108.92v1.41l0,0-.08.07-.07,0c-.64.5-3.38,2.15-11.93,2.61a37.86,37.86,0,0,1-16.88-2.69l.51-1.38s-.48-.4-.51-.61.37-.67.37-.67-1-.54-1-1.21,1.67-2.37,1.94-4a2.27,2.27,0,0,0,0-.52c-.06-1.78-1.61-3.35-1.83-4.36h0c-.21-1,2.65-3.5,2.65-3.5-2.45-7.67-2.92-18-2.92-18l-.48-.54s-2.92,6.59-5.57,9.82-6.52,6-7.2,5.86c-1.57,0-3.31-2.7-4.9-6s-1.68-12.86-1.76-13.45-1-1.77-1-2.27a3.86,3.86,0,0,0,4.4,2c-2,0-3-3.59-3-3.59v0l-1-2.5c.11.12,2.35,2.6,4.52,1.07a11.25,11.25,0,0,0,3.36-4.61v3.9s.14.61.34.61a47.82,47.82,0,0,1-1,6.14c-1,4.66-2.39,9.16-2.39,9.16A11.58,11.58,0,0,0,77,74.61a21.27,21.27,0,0,0,.67-6.12,15.09,15.09,0,0,0-.3-2.56.19.19,0,0,0,0-.07.06.06,0,0,0,0,0h0l.36.76.69,1.69c.8,6.56-.85,16.44-.85,16.44,2.4-3,2.9-9.5,2.8-11.09,0-.76-.11-1.7-.15-2.47s-.09-1.47-.09-1.47L85,72.57l-.91-2.84,3.58,2.84s3.22,3.84,6.52,4.28,15.45.18,15.45.18S99.08,77.71,96,78.6s-3.67,1.93-3.67,1.93c2.22,11.22,14.55,15,14.93,15.11C96.08,94,90.88,84.57,90.88,84.57s-.18,5.29.68,7.31,5.93,7,12.46,8a15.05,15.05,0,0,0,1.62.16,19.68,19.68,0,0,0,10.52-2.82l0,0v0c-.17.26-2.43,3.4-11.54,3.75-.55,0-1.09,0-1.61,0h0A17.65,17.65,0,0,1,90.29,95s-3.13,1.66-1.13,4.12l.06.08a14.18,14.18,0,0,0,3.42,2.33l.12.08c1.85,1,4,2.05,5.7,2.91h0a21.11,21.11,0,0,1,2.34,1.33h0c.47.34.57.56.1.62-2.35.27-11.28-1.66-11.64-1.13s.44,1.93.44,1.93c8.2,4,25.72,2,26.27,2a47.52,47.52,0,0,1-26.66-1l.39,1.39A53,53,0,0,0,104,112.1a34,34,0,0,0,12.5-1.77Z"/><path class="cls-42" d="M111.31,77A60.43,60.43,0,0,1,121,78.31l-2,3A26.38,26.38,0,0,0,111.31,77Z"/><path class="cls-43" d="M116.76,92.91a31.57,31.57,0,0,1-7.22,4.39,24.51,24.51,0,0,1-7,1.53s2.06.6,7.12-.2,6.79-3.52,6.79-3.52Z"/><path class="cls-44" d="M118.39,104.48h0c-6.73,1.72-15.28-.75-15.21-1s2.34.13,7.61-.91c5.1-1,6.95-2.81,7.06-2.92,0,.3-.74,1-.94,1.71C116.77,101.8,117.72,103.34,118.39,104.48Z"/><path class="cls-45" d="M100.1,77.89c-5.75.58-7.3,2.17-7.3,2.17-1.62.2-5.25-3.9-5.25-3.9l-.48-.54s-2.92,6.59-5.57,9.82c-.32.38-.65.76-1,1.13l.37-.84s.62-.29.8-3.49-1.36-8-1.37-8.63-.24-3.94-.24-3.94L85,72.57l-.91-2.84,3.58,2.84A13.11,13.11,0,0,0,92.6,76.4,16.86,16.86,0,0,0,100.1,77.89Z"/><path class="cls-46" d="M87.07,75.62l3.43-.44a25.83,25.83,0,0,0,4.12,2l-2.29,3.34s.91,4.77,3.52,7.46c0,0-6.93-3.81-7.91-7Z"/><path class="cls-47" d="M67.06,65.47,68,68s1,3.45,3,3.59,3.92-5.78,3.92-5.78v-3.9s-2.11,4.48-4.38,5A3.38,3.38,0,0,1,67.06,65.47Z"/><path class="cls-48" d="M78.92,63.45S80.68,67,82.86,68c0,0-2.59-6.21-2-9.86C80.82,58.16,79.87,58.74,78.92,63.45Z"/><path class="cls-49" d="M121.87,68.63l.6,2,.62,16a38.51,38.51,0,0,1-2.66-7.39l.57-.87A69.79,69.79,0,0,0,121.87,68.63Z"/><path class="cls-50" d="M140.64,73.34s-.34,7.85,3,8.53l.17.84S139.47,82.55,140.64,73.34Z"/><path class="cls-51" d="M135,75.73s-.13.28-1.35-.6c0,0-4.25,3-5.88,7.16,0,0,2.62-3.85,4-4.27s1.72,1.12,1.72,1.12A11.52,11.52,0,0,1,135,75.73Z"/><path class="cls-52" d="M66.62,69.57s1.63,3,4.69,2a3.79,3.79,0,0,1-3.67.23S66.5,69.91,66.62,69.57Z"/><path class="cls-53" d="M77.31,65.8s2.24,8.31-3.61,14.55a9.67,9.67,0,0,0,4.66-6.41A13.66,13.66,0,0,0,77.31,65.8Z"/><path class="cls-54" d="M117.53,59.16a15.14,15.14,0,0,1-2.07,6.44A16.53,16.53,0,0,1,110,70.11s4.52-1.65,6.59-4S117.53,59.16,117.53,59.16Z"/><path class="cls-55" d="M94.41,53.52a23.49,23.49,0,0,0,1,6.33c1,3.19,9.87,8.78,9.87,8.78s-9.12-3.75-10.89-7.12S94.41,53.52,94.41,53.52Z"/><path class="cls-56" d="M94.31,68.45v5.11s11.87-.1,25.19.77l.3-4.59A234.1,234.1,0,0,0,94.31,68.45Z"/><path class="cls-57" d="M96.51,69.61c0-.08,0-.13.13-.12l2.4.07a1.8,1.8,0,0,1,.61.11.92.92,0,0,1,.39.26,1.08,1.08,0,0,1,.22.41,1.7,1.7,0,0,1,0,.52l0,.65a1.62,1.62,0,0,1-.08.52,1.08,1.08,0,0,1-.24.39,1,1,0,0,1-.41.24,1.68,1.68,0,0,1-.62.07l-1.29,0L97.38,72h0l0,.75-.9,0Zm.84,2.25,1.54,0a.41.41,0,0,0,.49-.5l0-.53a.6.6,0,0,0-.1-.41.56.56,0,0,0-.37-.12l-1.47,0h0s0,0,0,.05Z"/><path class="cls-57" d="M101.61,71h0l0,1a.05.05,0,0,0,.06.06l2.71.08,0,.82-3.54-.1c-.09,0-.13-.05-.13-.14l.09-2.91a.12.12,0,0,1,.13-.13l3.45.11c.09,0,.13,0,.13.13l0,.83-.85.28h0v-.42s0-.05,0-.05l-1.82-.06a.06.06,0,0,0,0,0,.06.06,0,0,0,0,0v.4l1.49,0,0,.65-1.25,0Z"/><path class="cls-57" d="M107.63,70.92h0v-.35s0-.06,0-.06l-1.69-.05c-.06,0-.11,0-.13,0a.16.16,0,0,0,0,.11v.08a.17.17,0,0,0,0,.12.23.23,0,0,0,.11,0l2,.33a2,2,0,0,1,.32.1.52.52,0,0,1,.32.37,1.42,1.42,0,0,1,0,.31v.25a1.7,1.7,0,0,1-.06.35.62.62,0,0,1-.17.25A.71.71,0,0,1,108,73a1.5,1.5,0,0,1-.45,0l-2.85-.08,0-.83,2.56.08c.08,0,.13,0,.15,0a.23.23,0,0,0,0-.14v-.09a.13.13,0,0,0-.14-.16l-1.91-.3a1.31,1.31,0,0,1-.33-.09.6.6,0,0,1-.22-.14.61.61,0,0,1-.13-.22,1.39,1.39,0,0,1,0-.3v-.23a.75.75,0,0,1,.2-.53.9.9,0,0,1,.62-.17l2.86.09c.09,0,.13,0,.13.14l0,.66Z"/><path class="cls-57" d="M108.83,73l.1-3.17.91,0-.1,3.18Z"/><path class="cls-57" d="M113.11,71.8v-.15c0-.05,0-.09,0-.13v0l.89,0,0,1.55c0,.08,0,.12-.12.12l-2.41-.07a1.8,1.8,0,0,1-.61-.11.92.92,0,0,1-.39-.26,1,1,0,0,1-.22-.41,1.7,1.7,0,0,1,0-.52l0-.65a1.62,1.62,0,0,1,.08-.52,1.08,1.08,0,0,1,.24-.39,1,1,0,0,1,.41-.24,1.91,1.91,0,0,1,.62-.08l2.4.08c.08,0,.12,0,.12.13l0,.69-.85.28h0v-.3s0,0,0,0l-1.53,0a.72.72,0,0,0-.22,0,.35.35,0,0,0-.15.07.35.35,0,0,0-.09.16.78.78,0,0,0,0,.24l0,.56a.51.51,0,0,0,.1.4.5.5,0,0,0,.36.13l1.52,0s0,0,0,0Z"/><path class="cls-57" d="M115.91,70.07a.28.28,0,0,1,.15,0,.29.29,0,0,1,.07.1l1.15,2.32a.08.08,0,0,0,.08,0h0s.07,0,.07-.06l.07-2.39.83,0-.1,3a.11.11,0,0,1-.12.12l-1.31,0a.26.26,0,0,1-.14,0,.29.29,0,0,1-.08-.1l-1.19-2.32a.09.09,0,0,0-.08,0h0a.06.06,0,0,0-.07.07l-.07,2.38-.83,0,.1-3c0-.08,0-.13.12-.12Z"/><path class="cls-58" d="M113.1,54.2a14.4,14.4,0,0,1-2.38,7.15,8.64,8.64,0,0,1-3.11,2.86,18.86,18.86,0,0,1-4.22-2.52,21.17,21.17,0,0,1-6.88-10.12,23.37,23.37,0,0,0,7.73,10,15.12,15.12,0,0,0,3.37,2V61.93a10.93,10.93,0,0,1-1.11-.48c-4.23-2.11-6.45-6.51-7.5-9.36v0a18.62,18.62,0,0,1-.78-2.62H99l-.25.53v0c.12.54.26,1.06.42,1.55a.08.08,0,0,0,0,0,15.91,15.91,0,0,0,8.45,9.77,10.43,10.43,0,0,0,4.15-8v-.67l.79.23Z"/><path class="cls-59" d="M138.2,72.14a21.48,21.48,0,0,0-.06,9.5s.54-7.33,1-8,1.55-.33,1.55-.33A25.35,25.35,0,0,0,138.2,72.14Z"/><path class="cls-60" d="M127,92.36a15.19,15.19,0,0,1-3.41-4.7,35.14,35.14,0,0,1-3.2-8.48l.57-.87.76-7.31.71-.42a30,30,0,0,0,4.49-7,2.88,2.88,0,0,1,.1.31h0c.39,1.52,1.19,7.21,1.94,9.24a4.61,4.61,0,0,0,1.74,2.33s-4.41,6.48-4.63,11.11C125.92,90.78,126.87,92.15,127,92.36Z"/><path class="cls-61" d="M100.83,105.88s-8-1.29-11.21-3.36h0a2.27,2.27,0,0,0,0-.52c-.06-1.78-1.61-3.35-1.83-4.36a4.66,4.66,0,0,0,1.4,1.59,22.64,22.64,0,0,0,3.42,2.33l.12.08a64,64,0,0,0,5.7,2.91h0a7.56,7.56,0,0,1,2.34,1.33Z"/><path class="cls-62" d="M117.85,99.61c0,.3-.74,1-.94,1.71,0,0-2.92,3.06-13.73,2.12.07-.31,2.34.13,7.61-.91C115.89,101.52,117.74,99.72,117.85,99.61Z"/><path class="cls-63" d="M119.65,58.21l-6.91,2.21-2,.93h-3.11l-1.11.09-.59,0-1.67.13-.85.07-8.28-3-1.48-.52-6.82-2.45.62-.24c4.58-1.79,9.06-4,9.06-4l1.73-2.09H99a25.29,25.29,0,0,0,1.44-4l.45-2c0-.2,0-.31,0-.31l2.44,1.28,8.22,6.51c0,.44,0,.84,0,1.18l.11.82,0-.25.79.23.55,1.28s.91,1.41,4.55,3A22.35,22.35,0,0,1,119.65,58.21Z"/><path class="cls-64" d="M114.39,52a11.34,11.34,0,0,1-6.78-1c-3.55-1.7-6.54-6.73-6.72-8s1.36-4.53,1.36-7.08-1.27-7,.86-9.33,11.91-2.74,15.09.31a14.21,14.21,0,0,1,1,3.83,9.79,9.79,0,0,1-.15,1.38c0,.21-.07.44-.11.67a18.79,18.79,0,0,0-.49,4.61,4.68,4.68,0,0,0,.29.87h0a10.74,10.74,0,0,1,1.07,2.38C119.93,41.66,118.56,48.83,114.39,52Z"/><path class="cls-65" d="M102.22,35.19A3.63,3.63,0,0,0,99.13,33s-1.29.5-1.49,1.48a39.59,39.59,0,0,0,1,5.18c.54,1.64,2.53,1.41,2.53,1.41A8.3,8.3,0,0,0,102.22,35.19Z"/><path class="cls-66" d="M110.71,42.38a2.09,2.09,0,0,1,1.05.18,7.15,7.15,0,0,0,2.93,1.65c1.47.3,2.45-.93,2.76-1s.65.37.65.37a1.21,1.21,0,0,0-.89-.73s-.31,1.16-2.43.76a5.78,5.78,0,0,1-3-1.33l-.11-.19A6.71,6.71,0,0,0,110.71,42.38Z"/><path class="cls-67" d="M107.58,31.52l0-.22a8,8,0,0,1,6.29-3.77C118.08,27.43,119,30,119,30l.77-1.16L118,25.31l-12.28-.2-3,2.39-.38,5.84,1.33,7.72,3.23,1.7.92-.8A11.46,11.46,0,0,0,105.59,37l1.41-1s3.64,1.74,5.74,1.22a28,28,0,0,0,1.49-8S108.85,30.11,107.58,31.52Z"/><path class="cls-68" d="M107.4,31.8s.2-1.33,2.45-1.86c2.52-.58,4.55-1.08,4.55-1.08a4.22,4.22,0,0,1-1.28,2,21,21,0,0,0-4,.21A3.34,3.34,0,0,0,107.4,31.8Z"/><path class="cls-68" d="M119,30a7.59,7.59,0,0,0-2.14,3.29s.83-1.07,1.59-1.06a.44.44,0,0,1,.44.53A4.85,4.85,0,0,0,119,30Z"/><path class="cls-69" d="M108.24,35.53A3.91,3.91,0,0,1,111.13,32a5.68,5.68,0,0,1,1.08,2.69A7.63,7.63,0,0,0,108.24,35.53Z"/><path class="cls-70" d="M116.12,36.64s.22-2.22,1.51-3a2.89,2.89,0,0,1,.79,2.51A3.2,3.2,0,0,0,116.12,36.64Z"/><path class="cls-71" d="M108.24,35.53s.89,1.09,3.4,1.3a3.87,3.87,0,0,0,.43-2.12A6.71,6.71,0,0,0,108.24,35.53Z"/><path class="cls-71" d="M116.12,36.64V37a2.13,2.13,0,0,0,1.77.93,3.86,3.86,0,0,0,.48-1.8A3.36,3.36,0,0,0,116.12,36.64Z"/><path class="cls-72" d="M110.91,34.65a3.07,3.07,0,0,0-.57,2,9.74,9.74,0,0,0,1.3.21,3.35,3.35,0,0,0,.43-2.12A3.43,3.43,0,0,0,110.91,34.65Z"/><path class="cls-72" d="M117.43,36.14a2.56,2.56,0,0,0-.42,1.55,2.74,2.74,0,0,0,.88.21,3.25,3.25,0,0,0,.48-1.8A1.62,1.62,0,0,0,117.43,36.14Z"/><path class="cls-68" d="M110.71,36.7s-.23-1.5.64-2.08l.72.09a3,3,0,0,1-.43,2.12S110.93,36.75,110.71,36.7Z"/><path class="cls-68" d="M117.75,36.07a6.48,6.48,0,0,0-.47,1.71,1.7,1.7,0,0,0,.61.12,2.9,2.9,0,0,0,.48-1.8A1.45,1.45,0,0,0,117.75,36.07Z"/><path class="cls-73" d="M108.24,35.53a7,7,0,0,1,4.5-.41l-.53-.39A4.75,4.75,0,0,0,108.24,35.53Z"/><path class="cls-73" d="M116.12,36.64a4.55,4.55,0,0,1,2.89-.33l-.64-.47A3.15,3.15,0,0,0,116.12,36.64Z"/><path class="cls-12" d="M110,35.53a1,1,0,0,1,.86.31A.77.77,0,0,1,110,35.53Z"/><path class="cls-12" d="M116.73,36.83s.71-.13,1,.19C117.69,37,117.31,37.28,116.73,36.83Z"/><path class="cls-74" d="M108.41,35.7a6.59,6.59,0,0,0,3.36,1.57l.06-.75-.19.31A6.39,6.39,0,0,1,108.41,35.7Z"/><path class="cls-74" d="M116.12,37s.23.82,1.92,1.19l-.06-.4-.09.14A2.9,2.9,0,0,1,116.12,37Z"/><path class="cls-75" d="M112.74,40.24a6.26,6.26,0,0,1,1.78,0c1.16.14,2.46.45,3.17,0a4.3,4.3,0,0,1-1.76,1.08,4.08,4.08,0,0,1-2.06-.57h-.55A1.48,1.48,0,0,1,112.74,40.24Z"/><path class="cls-76" d="M113.4,40.76a.92.92,0,0,1,.52-.14c.24.05.48.39.48.39A2.4,2.4,0,0,0,113.4,40.76Z"/><path class="cls-77" d="M117.69,40.24c.3-.29-1.26-3-2-3.15s-1.45,3.09-1.45,3.09l2,.28A1.85,1.85,0,0,0,117.69,40.24Z"/><path class="cls-78" d="M118.81,31.57c-.43-.06-1.92,1.74-1.92,1.74s-1,2.92-.77,3.78,2.5,1.32,2.5,1.32l.1-.15h0a4.68,4.68,0,0,1-.29-.87,18.79,18.79,0,0,1,.49-4.61,3.22,3.22,0,0,0,.11-.67C119,31.84,119,31.59,118.81,31.57Z"/><path class="cls-79" d="M118.74,43.4c-.48-1-.19-1.5-4.33-2-5.86-.76-6.36,1-7.36.74l-.12,0a7.56,7.56,0,0,1-3.69-6.22,9.13,9.13,0,0,1,2.28-5.92c-.85-.71-1.19-2.76-.27-3.64s2.48-.67,6.32-.27,3.84.17,3.84.17A3.69,3.69,0,0,1,117.53,28a.49.49,0,0,1,0,.11l.48-.43a6.1,6.1,0,0,1,1,3.86s2.11-4.24,1.87-4.84a15.6,15.6,0,0,0-1.73-2.82h0s-.34-3.22-1.36-3.22a53.74,53.74,0,0,0-5.37,1,6,6,0,0,0,.41-2.39l0,0c-1.42,1.26-2.81,1.4-4.77,2.3a5,5,0,0,0-1.84,1.32l-.14.16-.14.17a6.42,6.42,0,0,1-.44.52s0,0,0,0h0a7.69,7.69,0,0,1-.57.53c-1.29,1-4.14,1.73-4.48,2.83s.43,2.6.84,4.15a8.26,8.26,0,0,1,.22,2.92,5.69,5.69,0,0,1,.91,4.24c-.4,2.27-1.27,2.64-1.27,2.64a3.81,3.81,0,0,0-.33,2.41c1.26,4.94,6.45,7.88,6.45,7.88,4.62,1.7,7.66,1,7.66,1h0c3.36-2.17,4.51-9.35,4.56-9.68C119.49,42.71,118.86,43.66,118.74,43.4ZM116.66,48c-.81-.14-1-2.18-1.25-2.45s-1.75-.15-1.75-.15-1.36,1.52-1.9,1.57-3.44-1.13-2.81-2.87a3.52,3.52,0,0,1,2.81-2,5.37,5.37,0,0,0,2.83,1,5,5,0,0,0,2.52-.28c.2-.1,1.29.4,1.27,1.92C118.36,45.86,117.48,48.11,116.66,48Z"/><path class="cls-80" d="M116.45,37.71s1.47,1.8,1.33,2.47-1.85,1.14-1.85,1.14,1.36-.47,1.64-1.14A8.79,8.79,0,0,0,116.45,37.71Z"/><path class="cls-81" d="M119.11,31.53a6.1,6.1,0,0,0-1-3.86,10.27,10.27,0,0,0,1.19-3.81h0a12.88,12.88,0,0,1,.55,2.52l1.18.3C121.22,27.29,119.11,31.53,119.11,31.53Z"/><path class="cls-82" d="M117.53,28a3.69,3.69,0,0,0-2.12-1.81s0,.24-3.84-.17-5.4-.6-6.32.27-.58,2.93.27,3.64a9.13,9.13,0,0,0-2.28,5.92,7.56,7.56,0,0,0,3.69,6.22l-.05.37s.19,7.63,2.07,8.24,5.76.29,6.12.65,0,.93-.09,1h0s-3,.74-7.66-1c0,0-5.19-2.94-6.45-7.88a3.81,3.81,0,0,1,.33-2.41s.87-.37,1.27-2.64a5.69,5.69,0,0,0-.91-4.24,8.26,8.26,0,0,0-.22-2.92c-.41-1.55-1.18-3.05-.84-4.15a4.91,4.91,0,0,0,3.6-.78s.39-.52,2.07-.79,8.44.4,8.44.4A6,6,0,0,0,112.5,25c-1.34-.36-6,0-6.44.09.52-.09,5.75-1,6.34-.8s2.89,1.21,2.89,1.21c-.2-1-2.23-3.5-2.23-3.5a31.78,31.78,0,0,0-4.72.44,6,6,0,0,0-2.76,1.26l.44-.52.14-.17.14-.16.65-.11,3.28-1.31a13.69,13.69,0,0,0,2.68-2.2l0,0a6,6,0,0,1-.41,2.39,14.76,14.76,0,0,1,3.7-.17C117.48,23.21,117.53,28,117.53,28Z"/><path class="cls-83" d="M107.32,51.34a17.47,17.47,0,0,1,4.26-.3c2.56.11,4,.12,3.4,1.26A14.55,14.55,0,0,1,107.32,51.34Z"/><path class="cls-84" d="M116.22,21.44a6.84,6.84,0,0,1,2.18-.5,1.27,1.27,0,0,0-.5-.39c-.26-.07-5.38,1.06-5.38,1.06A20.32,20.32,0,0,1,116.22,21.44Z"/><path class="cls-85" d="M113.06,22a5.19,5.19,0,0,1-.66,2.29l-6.34.8-1.87-.32a4.84,4.84,0,0,0,1.52-1.22C106.5,22.64,110.63,21.74,113.06,22Z"/><path class="cls-86" d="M119.25,23.86a14.19,14.19,0,0,1,.55,2.53l1.18.3A8.42,8.42,0,0,0,119.25,23.86Z"/><path class="cls-87" d="M102,38.16A7.33,7.33,0,0,0,100.42,35a2.58,2.58,0,0,0-2.34-.71,36.11,36.11,0,0,0,.7,4.89,2.12,2.12,0,0,0,.9,1.21,3,3,0,0,1-.87-2c-.1-1.3-.14-3.13.15-3.35s1.46.64,1.46.64a3.73,3.73,0,0,0-.59,1.6c-.22,1.16.59,2,.9,2s0-1.34,0-1.72S101.49,37.27,102,38.16Z"/><path class="cls-88" d="M100.87,35.52a2.64,2.64,0,0,0-1.07,2.37c.13,1.6,1,1.53,1,1.19a10.74,10.74,0,0,1-.08-1.68c.1-.49.89-.27.89-.27A11.77,11.77,0,0,0,100.87,35.52Z"/><path class="cls-89" d="M119.54,42.62s-1.48,6.7-4.56,9.68C115,52.3,118.49,50.94,119.54,42.62Z"/><path class="cls-89" d="M117.9,20.55s.78.6.93,2.7a11.84,11.84,0,0,1-.77,4.42A8.32,8.32,0,0,0,119.35,24,3.63,3.63,0,0,0,117.9,20.55Z"/><path class="cls-90" d="M108.42,24.94a18.37,18.37,0,0,0,3.79.78l2.4.21a4.71,4.71,0,0,0-2.5-1A16.71,16.71,0,0,0,108.42,24.94Z"/><path class="cls-91" d="M117.17,42.76a1.37,1.37,0,0,1,1.21,1.08,8.7,8.7,0,0,1,.34,1.6l.31-1.18a5.28,5.28,0,0,0-.82-1.83,1.71,1.71,0,0,0-1.06-.43Z"/><path class="cls-92" d="M114.83,41.69,115,43a4.61,4.61,0,0,0,1.75-.21l.13-.77A9.53,9.53,0,0,0,114.83,41.69Z"/><path class="cls-89" d="M119.65,58.21s6.18,4.46,7,6,1.13,6.35,2.21,8.44c0,0-.74-3.41-1.26-6.09s-.4-2.71-.69-3.36S122,59.37,119.65,58.21Z"/><path class="cls-89" d="M118.54,83.07s-3,12.62-2.84,13.47,2.06,2.59,2.15,3.07c0,0-1.47,2-1.4,2.38s2.58,3.17,2.51,4c0,.24-1.65,2.91-1.65,2.91a28.81,28.81,0,0,0,1.93-3c.09-.42-2.25-3.91-2.32-4.27-.18-.92,1.17-1.59,1.21-2.2s-1.82-2.08-1.84-3.07S118.54,83.07,118.54,83.07Z"/><path class="cls-89" d="M119.15,113.15s6.43,14.42,8.63,28.85A69.19,69.19,0,0,0,119.15,113.15Z"/><path class="cls-77" d="M78.33,55.31A3.66,3.66,0,0,1,76,53.52,6.46,6.46,0,0,1,75.73,50a37.19,37.19,0,0,0,2,3.32C78.34,54.17,78.51,55.13,78.33,55.31Z"/><path class="cls-93" d="M129.73,47.79l1.15,32.59a2.42,2.42,0,0,0,2.43,2.31H190a2.41,2.41,0,0,0,2.42-2.34l.8-33a2.42,2.42,0,0,0-2.44-2.46l-58.67.38A2.41,2.41,0,0,0,129.73,47.79Z"/><path class="cls-94" d="M190,82.78H133.31a2.49,2.49,0,0,1-2.52-2.4l-1.15-32.59a2.44,2.44,0,0,1,.69-1.81,2.55,2.55,0,0,1,1.8-.77l58.67-.38a2.56,2.56,0,0,1,1.81.75,2.47,2.47,0,0,1,.72,1.8l-.8,33A2.48,2.48,0,0,1,190,82.78ZM190.81,45h0l-58.66.38a2.4,2.4,0,0,0-1.68.71,2.27,2.27,0,0,0-.64,1.69L131,80.37a2.32,2.32,0,0,0,2.34,2.23H190a2.33,2.33,0,0,0,2.33-2.25l.8-33a2.3,2.3,0,0,0-.67-1.68A2.36,2.36,0,0,0,190.81,45Z"/><path class="cls-95" d="M129.81,49.45h63.36l.1-1.72a2.64,2.64,0,0,0-2.67-2.79L132,45.4a2.18,2.18,0,0,0-2.18,2.22Z"/><polygon class="cls-96" points="133 52.08 133 70.94 152.39 70.94 152.39 51.98 133 52.08"/><rect class="cls-97" x="171.13" y="53.34" width="8.44" height="8.35"/><rect class="cls-98" x="181.09" y="53.34" width="8.44" height="8.35"/><rect class="cls-99" x="161.01" y="53.34" width="8.44" height="8.35"/><rect class="cls-100" x="167.95" y="66.56" width="21.57" height="2"/><rect class="cls-100" x="162.55" y="69.61" width="26.97" height="0.62"/><rect class="cls-100" x="162.81" y="62.76" width="5.16" height="0.62"/><rect class="cls-100" x="172.77" y="62.76" width="5.16" height="0.62"/><rect class="cls-100" x="182.73" y="62.76" width="5.16" height="0.62"/><rect class="cls-100" x="161.01" y="70.61" width="8.68" height="0.62"/><rect class="cls-100" x="162.55" y="71.61" width="26.97" height="0.62"/><rect class="cls-100" x="161.01" y="72.6" width="28.51" height="0.62"/><rect class="cls-100" x="161.01" y="73.59" width="28.51" height="0.62"/><rect class="cls-100" x="162.55" y="77.61" width="26.97" height="0.62"/><rect class="cls-100" x="161.01" y="78.61" width="28.51" height="0.62"/><rect class="cls-100" x="161.01" y="79.6" width="28.51" height="0.62"/><rect class="cls-100" x="161.01" y="74.59" width="27.36" height="0.62"/><rect class="cls-100" x="162.55" y="75.58" width="26.97" height="0.62"/><rect class="cls-100" x="161.01" y="76.58" width="23.1" height="0.62"/><g class="cls-101"><path class="cls-102" d="M138.43,67.15A5.46,5.46,0,1,1,144,61.69,5.5,5.5,0,0,1,138.43,67.15Zm0-10.56a5.11,5.11,0,1,0,5.16,5.1A5.14,5.14,0,0,0,138.43,56.59Z"/></g><ellipse class="cls-12" cx="138.43" cy="61.69" rx="3" ry="2.97"/><g class="cls-101"><path class="cls-102" d="M152.39,57.44A5.46,5.46,0,1,1,157.91,52,5.5,5.5,0,0,1,152.39,57.44Zm0-10.57A5.11,5.11,0,1,0,157.55,52,5.14,5.14,0,0,0,152.39,46.87Z"/></g><ellipse class="cls-12" cx="152.39" cy="51.98" rx="2.82" ry="2.79"/><g class="cls-101"><polygon class="cls-12" points="132.03 46.89 132.43 46.28 134.61 48.17 134.28 48.64 132.03 46.89"/><polygon class="cls-12" points="134.67 46.89 134.27 46.28 132.09 48.17 132.42 48.64 134.67 46.89"/></g><rect class="cls-12" x="172.11" y="46.69" width="19.53" height="0.97"/><polygon class="cls-103" points="69.36 32.7 69.36 41.09 79.5 41.18 79.63 32.44 69.36 32.7"/><polygon class="cls-104" points="79.63 32.44 80.29 33.54 79.96 41.17 79.5 41.18 79.63 32.44"/><polygon class="cls-12" points="71.17 35.53 72.11 34.19 77.17 38.39 76.39 39.42 71.17 35.53"/><polygon class="cls-12" points="77.3 35.53 76.36 34.19 71.3 38.39 72.08 39.42 77.3 35.53"/><path class="cls-105" d="M93,131.41H58.33a2.82,2.82,0,0,1-2.84-2.74l-.65-28.16a2.83,2.83,0,0,1,2.84-2.87h36.1a2.82,2.82,0,0,1,2.84,2.89l-.78,28.15A2.82,2.82,0,0,1,93,131.41Z"/><path class="cls-106" d="M93,131.5H58.33a2.93,2.93,0,0,1-2.93-2.83l-.65-28.15a2.9,2.9,0,0,1,.83-2.1,2.94,2.94,0,0,1,2.1-.87h36.1a2.89,2.89,0,0,1,2.1.88,2.8,2.8,0,0,1,.83,2.1l-.78,28.15A2.9,2.9,0,0,1,93,131.5ZM57.68,97.73a2.74,2.74,0,0,0-2,.82,2.65,2.65,0,0,0-.78,2l.65,28.15a2.75,2.75,0,0,0,2.75,2.67H93a2.73,2.73,0,0,0,2.75-2.65l.78-28.16a2.68,2.68,0,0,0-.77-2,2.78,2.78,0,0,0-2-.82Z"/><rect class="cls-12" x="64.19" y="103.4" width="18.24" height="0.77"/><rect class="cls-12" x="64.19" y="105.28" width="9.12" height="0.77"/><rect class="cls-12" x="64.19" y="106.85" width="9.12" height="0.77"/><rect class="cls-12" x="74.33" y="106.85" width="7.25" height="0.77"/><rect class="cls-12" x="64.19" y="108.42" width="14.7" height="0.77"/><rect class="cls-12" x="64.19" y="109.99" width="5.23" height="0.77"/><rect class="cls-12" x="70.5" y="114.69" width="9.05" height="0.77"/><rect class="cls-12" x="64.19" y="111.55" width="16.4" height="0.77"/><rect class="cls-12" x="64.19" y="113.12" width="12.62" height="0.77"/><rect class="cls-12" x="64.19" y="114.69" width="5.93" height="0.77"/><rect class="cls-12" x="64.19" y="116.26" width="9.12" height="0.77"/><rect class="cls-12" x="64.19" y="117.83" width="2.62" height="0.77"/><rect class="cls-12" x="67.88" y="117.83" width="9.49" height="0.77"/><rect class="cls-12" x="70.5" y="119.36" width="9.05" height="0.77"/><rect class="cls-12" x="64.19" y="119.36" width="5.93" height="0.77"/><rect class="cls-12" x="64.19" y="120.93" width="9.12" height="0.77"/><rect class="cls-12" x="64.19" y="122.49" width="2.62" height="0.77"/><rect class="cls-12" x="67.88" y="122.49" width="9.49" height="0.77"/><path class="cls-107" d="M186.06,38.64a1.61,1.61,0,1,1-1.61-1.59A1.6,1.6,0,0,1,186.06,38.64Z"/><path class="cls-108" d="M35.82,75.43a2,2,0,1,1-2-2A2,2,0,0,1,35.82,75.43Z"/><ellipse class="cls-109" cx="189.16" cy="38.64" rx="1.6" ry="1.59"/><ellipse class="cls-110" cx="85.81" cy="49.55" rx="1.13" ry="1.12"/><ellipse class="cls-111" cx="161.72" cy="99.05" rx="1.13" ry="1.12"/><ellipse class="cls-112" cx="43.89" cy="110.23" rx="1.01" ry="1"/><path class="cls-113" d="M61.17,100.38H43.66a2.6,2.6,0,0,1-2.61-2.49l-.39-11.4a2.6,2.6,0,0,1,2.61-2.67H61.52a2.6,2.6,0,0,1,2.61,2.66l-.35,11.4A2.6,2.6,0,0,1,61.17,100.38Z"/><path class="cls-114" d="M61.17,100.47H43.66A2.68,2.68,0,0,1,41,97.89l-.39-11.4a2.65,2.65,0,0,1,.76-1.94,2.7,2.7,0,0,1,1.94-.82H61.52a2.73,2.73,0,0,1,1.94.81,2.68,2.68,0,0,1,.76,1.95l-.35,11.39A2.69,2.69,0,0,1,61.17,100.47ZM43.27,83.91a2.53,2.53,0,0,0-1.81.76,2.48,2.48,0,0,0-.71,1.82l.39,11.39a2.51,2.51,0,0,0,2.52,2.42H61.17a2.51,2.51,0,0,0,2.52-2.43L64,86.48a2.44,2.44,0,0,0-.71-1.81,2.51,2.51,0,0,0-1.81-.76Z"/><polygon class="cls-12" points="48.33 87.91 44.01 92.86 48.41 96.56 48.41 94.65 45.87 92.47 48.23 89.83 48.33 87.91"/><polygon class="cls-12" points="55.91 88.14 60.23 93.09 55.84 96.78 55.84 94.87 58.38 92.69 55.55 89.73 55.91 88.14"/><polygon class="cls-12" points="49.27 96.56 53.03 88.36 54.8 88.36 50.54 96.56 49.27 96.56"/><path class="cls-115" d="M178.92,123.83H157a3.25,3.25,0,0,1-3.27-3.12l-.49-14.26a3.25,3.25,0,0,1,3.27-3.34h22.82a3.26,3.26,0,0,1,3.27,3.33l-.44,14.26A3.26,3.26,0,0,1,178.92,123.83Z"/><path class="cls-114" d="M178.92,123.92H157a3.32,3.32,0,0,1-3.36-3.21l-.49-14.25a3.35,3.35,0,0,1,3.36-3.44h22.82a3.35,3.35,0,0,1,2.41,1,3.3,3.3,0,0,1,.95,2.41l-.44,14.26A3.33,3.33,0,0,1,178.92,123.92ZM156.54,103.2a3.18,3.18,0,0,0-2.29,1,3.11,3.11,0,0,0-.89,2.29l.49,14.25a3.15,3.15,0,0,0,3.18,3h21.89a3.16,3.16,0,0,0,3.18-3l.44-14.25a3.16,3.16,0,0,0-3.18-3.24Z"/><rect class="cls-100" x="157.66" y="105.4" width="20.05" height="11.79"/><polygon class="cls-12" points="165.91 108.33 165.91 114.27 171.03 111.03 165.91 108.33"/><rect class="cls-100" x="157.66" y="119.36" width="20.05" height="1.08"/><rect class="cls-12" x="157.66" y="119.36" width="5.19" height="1.08"/><path class="cls-116" d="M143,101.68l-1.05,3C142.5,103,143.33,101.94,143,101.68Zm-1.05,3-1,3C141.14,107.53,141.34,106.28,141.92,104.64Zm1.05-3-1.05,3C142.5,103,143.33,101.94,143,101.68Zm-1.05,3-1,3C141.14,107.53,141.34,106.28,141.92,104.64Zm3,2.57,1,.57,1.1-3-1.18-.19.06-.33a8.37,8.37,0,0,0,.1-1.48l1.23-.76-.56-2.61-1.18,1.11a3.63,3.63,0,0,0-.6-.87l-.21-.19.72-1.65-1.91-.62h0l-.47,1.66a3.23,3.23,0,0,0-1.29.3l-.22-1.57-2.11,1.58.49,1.4a7.77,7.77,0,0,0-1,1.48l-1-.57-1.09,3,1.17.19a8.14,8.14,0,0,0-.15,1.81l-1.23.76.56,2.61,1.18-1.11a3.22,3.22,0,0,0,.8,1.06l-.72,1.65,1.89.73.29-1,.2-.72a3.24,3.24,0,0,0,1.3-.3l.21,1.57,2.11-1.58-.49-1.39a7.59,7.59,0,0,0,.83-1.14C144.81,107.44,144.88,107.33,144.94,107.21Zm-3-2.57c-.58,1.64,0,3.33-1,3s-1.43-2-.85-3.62,1.9-2.67,2.95-2.3S142.5,103,141.92,104.64Zm1.05-3-1.05,3C142.5,103,143.33,101.94,143,101.68Zm-1.05,3-1,3C141.14,107.53,141.34,106.28,141.92,104.64Z"/><path class="cls-117" d="M146,107.78l1.1-3-1.12-.52-.18-.08.12-1.64,1.24-.6-.41-2.53L144,98.56l.5,1.18.94-1.9-1.91-.62-.79-.25-1.89-.73-.36,1.27-1.64-.77-2.11,1.58.64,1.71-2,5.42-1,3.52,1.87.2-.61,1.4,1.89.73,2.71.87-.44-.86-.27-.51,1,.32,1.71.55,2.11-1.58-1.3-1.53,1.64-1ZM140,104c.58-1.63,1.9-2.67,2.95-2.3l-1.05,3-1,3C139.82,107.24,139.44,105.62,140,104Z"/><path class="cls-118" d="M143.26,106.9l1.09-3-1.17-.19a8.19,8.19,0,0,0,.15-1.81l1.23-.76L144,98.56l-1.18,1.12a3.37,3.37,0,0,0-.8-1.07l.72-1.64-1.89-.73L140.36,98a3.08,3.08,0,0,0-1.3.3l-.21-1.57-2.11,1.58.48,1.39a8.33,8.33,0,0,0-1,1.49l-1-.57-1.1,3,1.18.19a7.53,7.53,0,0,0-.16,1.8l-1.23.77.56,2.61,1.18-1.11a3.32,3.32,0,0,0,.81,1.06l-.73,1.65,1.89.73.49-1.77a3.24,3.24,0,0,0,1.3-.3l.21,1.57,2.11-1.59-.48-1.39a8.1,8.1,0,0,0,1-1.48Zm-5.09-.17c-1-.36-1.44-2-.86-3.62s1.9-2.67,2.95-2.31,1.44,2,.86,3.63S139.22,107.09,138.17,106.73Z"/><polygon class="cls-119" points="147.27 102.05 144.56 101.18 143.33 101.94 146.04 102.81 147.27 102.05"/><polygon class="cls-120" points="144.4 110.09 141.69 109.21 141.21 107.82 143.91 108.7 144.4 110.09"/><polygon class="cls-119" points="142.02 98.61 143.5 99.04 144 98.56 144.99 98.88 145.44 97.84 142.74 96.97 142.02 98.61"/><path class="cls-119" d="M138.07,109.53l1.42.58-.12-.88A2.54,2.54,0,0,1,138.07,109.53Z"/><path class="cls-119" d="M138.29,101.5l2.39,1.24a3.76,3.76,0,0,1,.61-.64S140.67,99.5,138.29,101.5Z"/><polygon class="cls-121" points="83.51 13.12 85.81 17.68 84.27 18.38 82.12 14.19 83.51 13.12"/><polygon class="cls-122" points="31.7 119.39 33.83 121.7 34.67 120.75 32.66 118.56 31.7 119.39"/><polygon class="cls-123" points="139.93 40.96 137.79 42.24 136.93 40.63 139.27 39.27 139.93 40.96"/><polygon class="cls-123" points="150.49 122.5 147.42 124.67 146.56 123.05 149.54 121.33 150.49 122.5"/><polygon class="cls-124" points="146.43 29.93 145.91 17.98 161.72 17.98 161.07 29.89 146.43 29.93"/><polygon class="cls-125" points="145.91 17.98 145.44 18.68 145.91 29.93 146.43 29.93 145.91 17.98"/><polygon class="cls-12" points="151.16 20.36 148.68 20.1 149.02 28.29 151.16 28.08 151.16 27.23 149.92 27.26 149.78 20.95 151.16 20.99 151.16 20.36"/><polygon class="cls-12" points="156.24 20.36 158.72 20.1 158.38 28.29 156.24 28.08 156.24 27.23 157.48 27.26 157.62 20.95 156.24 20.99 156.24 20.36"/><polygon class="cls-126" points="37.44 56.08 37.8 47.94 27.02 47.94 27.47 56.06 37.44 56.08"/><polygon class="cls-127" points="37.8 47.94 38.12 48.42 37.8 56.08 37.44 56.08 37.8 47.94"/><path class="cls-12" d="M33.65,49.58a6.91,6.91,0,0,1,1.39.05c.21.09-.06,2-.06,2l.47.42-.44.43s0,1.93-.25,2.09a3.09,3.09,0,0,1-1.23,0v-.48s.78,0,.9-.06a8.73,8.73,0,0,0,.12-1.79l.21-.22-.21-.25s0-1.2,0-1.53-.92-.23-.92-.23Z"/><path class="cls-12" d="M30.94,49.58a6.91,6.91,0,0,0-1.39.05c-.21.09.06,2,.06,2l-.48.42.44.43s0,1.93.26,2.09a3.09,3.09,0,0,0,1.23,0v-.48a2.72,2.72,0,0,1-.91-.06A9.44,9.44,0,0,1,30,52.24L29.83,52l.21-.25s0-1.2,0-1.53.92-.23.92-.23Z"/><path class="cls-94" d="M128.36,31l-2.64-6.84,6.85,1.42ZM126,24.4l2.41,6.24,3.83-4.95Z"/><polygon class="cls-94" points="147.29 127.98 147.14 127.88 149.47 124.75 149.61 124.85 147.29 127.98"/><polygon class="cls-94" points="125.51 99.1 123.02 96.03 123.16 95.92 125.66 98.99 125.51 99.1"/><polygon class="cls-94" points="48.65 120.66 43.67 117.09 43.78 116.94 48.75 120.51 48.65 120.66"/><polygon class="cls-94" points="44.42 121.27 44.28 121.17 48 116.33 48.14 116.44 44.42 121.27"/><polygon class="cls-94" points="40.62 68.29 37.4 66.62 37.49 66.46 40.7 68.14 40.62 68.29"/><polygon class="cls-94" points="164.3 25.34 164.16 25.22 167.88 21.02 168.02 21.14 164.3 25.34"/><polygon class="cls-94" points="93.55 38.88 91.88 35.57 92.04 35.49 93.7 38.8 93.55 38.88"/><polygon class="cls-94" points="65.69 94.84 65.57 94.71 69.85 91.17 69.96 91.3 65.69 94.84"/></g></g></g></g></svg>